<?xml version="1.0" encoding="UTF-8" standalone="no"?>
<!DOCTYPE svg PUBLIC "-//W3C//DTD SVG 1.1//EN" "http://www.w3.org/Graphics/SVG/1.1/DTD/svg11.dtd">
<svg width="100%" height="100%" viewBox="0 0 651 359" version="1.1" xmlns="http://www.w3.org/2000/svg" xmlns:xlink="http://www.w3.org/1999/xlink" xml:space="preserve" xmlns:serif="http://www.serif.com/" style="fill-rule:evenodd;clip-rule:evenodd;stroke-linecap:round;stroke-linejoin:round;stroke-miterlimit:1.5;">
    <g>
        <g transform="matrix(2.02728,0,0,1.42966,-188.488,-107.838)">
            <path d="M238.098,233.961C235.337,232.38 238.263,214.985 234.015,211.793C229.769,208.602 217.074,225.703 209.743,226.706C204.318,227.449 209.882,217.741 216.531,183.766C217.525,178.69 218.906,171.757 219.514,164C220.271,154.339 220.425,142.271 222.998,132.439C228.045,113.154 232.975,94.738 236.254,93.875C238.936,93.168 243.341,92.734 243.747,96.176C245.192,108.409 249.171,115.863 252.944,114.899C258.682,113.434 258.169,104.599 260.828,104.325C269.472,103.434 277.693,118.771 290.92,131.766C315.199,155.62 323.362,175.702 325.375,189.434C325.981,193.573 324.169,191.183 320.088,191.962C316.037,192.734 306.131,197.464 299.425,202.081C295.482,204.795 284.149,214.175 279.527,215.598C275.856,216.728 270.143,219.42 266.826,220.266C261.988,221.5 255.719,221.056 250.583,221.282C244.226,221.562 240.859,235.543 238.098,233.961Z" style="fill:rgb(239,221,211);stroke:black;stroke-width:0.57px;"/>
        </g>
        <g transform="matrix(0.516455,0.35828,-0.637184,0.91849,264.824,-90.3334)">
            <path d="M234.304,201.104C241.456,201.184 247.804,202.817 247.626,210.31C247.494,215.878 240.993,221.87 232.094,223.516C225.909,224.66 220.882,217.838 220.882,210.781C220.882,203.723 227.605,201.03 234.304,201.104Z" style="fill:rgb(236,70,94);stroke:black;stroke-width:1.1px;"/>
        </g>
        <g transform="matrix(0.94922,-0.314612,0.314612,0.94922,-55.3608,110.332)">
            <path d="M329.035,200.445C347.723,210.279 357.069,199.818 359.089,213.136C361.142,226.66 335.145,203.487 322.929,204.955C305.364,207.067 299.169,223.788 298.739,215.532C298.446,209.902 309.258,190.037 329.035,200.445Z" style="fill:rgb(214,52,37);stroke:black;stroke-width:1px;"/>
        </g>
        <g transform="matrix(0.758752,0.651379,-0.651379,0.758752,177.177,-146.405)">
            <path d="M282.211,174.029C291.965,170.553 303.999,184.664 301.439,190.775C299.033,196.517 289.369,195.524 279.04,194.648C270.791,193.949 261.961,195.25 261.961,188.624C261.961,181.998 275.403,176.455 282.211,174.029Z" style="fill:rgb(243,123,47);stroke:black;stroke-width:1px;"/>
        </g>
        <g transform="matrix(1,0,0,1.09768,13.4658,-20.2063)">
            <path d="M251.893,112.129C258.579,113.305 264.718,115.092 266.634,134.018C268.051,148.011 266.105,156.211 257.904,162.283C248.602,169.17 239.82,168.301 238.702,162.048C237.631,156.057 241.672,145.754 242.654,140.435C244.228,131.907 244.365,110.805 251.893,112.129Z" style="fill:rgb(214,52,37);stroke:black;stroke-width:0.95px;"/>
        </g>
        <g transform="matrix(0.879976,0.475018,-0.475018,0.879976,2.5826,-286.206)">
            <path d="M506.994,231.889C513.019,230.591 524.309,238.544 524.309,251.789C524.309,265.035 511.316,272.18 505.153,272.18C498.99,272.18 496.319,259.071 496.319,245.826C496.319,232.58 499.782,233.442 506.994,231.889Z" style="fill:rgb(49,67,143);stroke:black;stroke-width:1px;"/>
        </g>
        <g transform="matrix(0.730574,0.682834,-0.769201,0.822979,169.885,-189.489)">
            <path d="M300.045,78.648C308.817,78.648 321.109,91.413 317.835,106.242C314.476,121.457 315.126,139.18 306.354,139.18C297.583,139.18 288.474,112.93 285.29,97.686C281.855,81.243 291.273,78.648 300.045,78.648Z" style="fill:rgb(49,67,143);stroke:black;stroke-width:0.94px;"/>
        </g>
        <g transform="matrix(0.759758,0.650206,-0.781412,0.913072,216.795,-201.931)">
            <path d="M287.441,152.2C295.331,148.695 308.756,159.504 309.146,175.432C309.47,188.675 302.12,199.831 293.388,199.831C284.656,199.831 278.275,189.726 278.275,176.481C278.275,174.697 280.776,155.161 287.441,152.2Z" style="fill:rgb(24,135,64);stroke:black;stroke-width:0.9px;"/>
        </g>
        <g transform="matrix(0.997095,0.677155,-1.08643,1.59975,169.349,-344.296)">
            <path d="M369.762,128.56C375.813,128.56 382.656,136.55 384.06,147.48C385.541,159.015 379.605,169.736 372.759,169.57C366.712,169.422 361.706,160.196 361.706,149.231C361.706,138.265 363.71,128.56 369.762,128.56Z" style="fill:rgb(115,42,134);stroke:black;stroke-width:0.62px;"/>
        </g>
        <g transform="matrix(0.974572,0.224074,-0.238335,1.12807,54.7636,-91.2722)">
            <path d="M323.172,115.72C331.133,115.72 341.73,124.375 341.73,134.686C341.73,144.998 329.198,154.68 321.236,154.68C313.275,154.68 314.1,148.304 314.1,137.992C314.1,127.68 315.211,115.72 323.172,115.72Z" style="fill:rgb(243,123,47);stroke:black;stroke-width:0.92px;"/>
        </g>
        <g transform="matrix(1.05732,-0.498624,0.461753,0.979135,-106.116,185.431)">
            <path d="M391.722,181.827C398.627,182.159 410.648,192.742 410.764,198.364C411.066,212.998 413.773,219.635 398.155,225.506C395.039,226.677 389.833,224.876 386.265,224.905C369.952,225.034 361.734,213.293 365.505,200.621C368.128,191.809 372.04,180.88 391.722,181.827Z" style="fill:rgb(214,52,37);stroke:black;stroke-width:0.89px;"/>
        </g>
        <g transform="matrix(0.934287,-0.440603,0.461753,0.979135,-51.6223,171.738)">
            <path d="M388.63,180.464C400.746,180.464 408.091,183.655 411.793,192.629C417.012,205.28 402.8,218.997 385.743,215.306C373.901,212.744 366.743,207.462 366.743,197.754C366.743,188.046 376.514,180.464 388.63,180.464Z" style="fill:rgb(214,52,37);stroke:black;stroke-width:0.95px;"/>
        </g>
        <g transform="matrix(2.02728,0,0,1.42966,-188.388,-108.665)">
            <path d="M232.49,93.42C237.978,89.289 229.706,104.513 223.386,130.423C220.462,142.413 219.929,164.973 217.432,181.011C214.114,202.315 204.048,226.048 208.348,227.351C211.781,228.391 231.92,208.571 234.473,212.486C238.216,218.225 236.243,231.123 237.785,233.959C238.821,235.863 239.751,234.691 240.969,232.379C243.497,227.583 247.112,220.771 252.389,221.362C262.824,222.53 274.13,219.678 283.659,214.382C289.07,211.375 296.883,203.203 306.26,198.332C316.159,193.189 328.012,189.056 328.33,196.481C328.85,208.636 330.873,243.682 330.092,244.753C328.703,246.659 325.121,235.122 320.418,222.533C317.425,214.524 318.566,204.101 313.175,203.508C308.975,203.046 301.289,207.254 292.417,212.897C282.543,219.176 272.356,229.507 260.687,229.097C250.676,228.745 247.508,235.582 243.75,237.386C237.454,240.409 239.435,269.037 244.385,283.959C247.093,292.123 248.213,307.493 245.363,314.15C242.626,320.542 233.089,327.312 225.886,326.116C220.567,325.233 214.188,324.448 209.15,322.101C200.284,317.972 199.472,311.483 198.442,306.601C197.023,299.872 194.66,294.092 203.036,279.061C208.4,269.435 221.597,272.918 225.938,260.925C228.065,255.05 228.97,249.177 230.05,242.917C231.65,233.648 232.466,218.771 229.162,218.229C227.452,217.949 222.002,229.468 216.388,238.043C210.353,247.263 200.409,250.199 199.392,243.065C198.823,239.078 198.544,237.039 199.965,230.814C202.459,219.882 210.345,200.668 213.289,185.425C214.889,177.138 217.107,166.521 218.033,155.707C219.104,143.209 218.781,130.084 221.551,122.667C227.773,106.011 226.73,97.754 232.49,93.42Z" style="fill:rgb(243,226,48);stroke:black;stroke-width:0.57px;"/>
        </g>
        <g transform="matrix(1,0,0,1,27.451,-6.91017)">
            <path d="M251.335,30.815C259.338,31.718 245.146,46.742 240.408,59.433C236.495,69.912 229.999,82.37 229.515,89.313C228.14,109.069 225.417,129.876 221.247,145.479C217.469,159.616 215.341,171.773 208.748,183.725C204.267,191.847 201.377,200.909 197.148,210.223C190.333,225.232 188.347,237.584 186.993,242.029C185.459,247.065 177.028,237.483 179.56,216.171C181.759,197.654 182.179,167.537 185.571,154.478C188.171,144.47 195.304,128.157 197.21,121.845C202.9,103.003 208.274,88.187 214.245,73.263C224.603,47.376 240.737,29.617 251.335,30.815Z" style="fill:rgb(248,170,36);stroke:black;stroke-width:1px;"/>
        </g>
        <g transform="matrix(0.880755,0.473572,-0.473572,0.880755,217.945,-49.0314)">
            <path d="M184.424,210.891C186.249,214.351 190.28,225.017 191.704,235.052C192.92,243.625 195.37,250.762 191.689,258.994C185.752,272.275 177.786,274.699 169.233,287.542C164.949,293.976 163.062,305.808 164.652,313.242C169.766,337.163 186.278,341.993 183.529,342.791C175.566,345.106 168.394,346.657 163.409,342.791C156.923,337.76 149.015,327.194 148.53,310.764C147.651,281.001 171.481,279.495 181.681,259.825C188.344,246.974 176.453,227.887 178.312,219.431C179.147,215.629 182.529,207.297 184.424,210.891Z" style="fill:rgb(248,170,36);stroke:black;stroke-width:1px;"/>
        </g>
        <g transform="matrix(1,0,0,1,-124.546,-38.0555)">
            <path d="M438.421,41.991C447.002,42.879 476.007,34.142 472.582,48.394C470.298,57.899 466.266,71.779 461.249,81.945C457.562,89.415 453.031,94.897 449.853,95.072C442.246,95.489 426.997,83.038 432.131,60.115C436.049,42.624 432.075,41.334 438.421,41.991Z" style="fill:rgb(243,226,48);stroke:black;stroke-width:1px;"/>
        </g>
    </g>
    <g>
        <path d="M407.911,15.183L414.036,17.92L408.172,21.177L407.911,15.183Z"/>
        <path d="M328.738,19.146C355.78,19.961 382.274,20.222 409.281,19.127C409.832,19.105 410.262,18.639 410.239,18.088C410.217,17.536 409.751,17.107 409.2,17.129C382.241,18.222 355.793,17.961 328.798,17.147C328.246,17.13 327.785,17.565 327.768,18.116C327.752,18.668 328.186,19.129 328.738,19.146Z"/>
        <g transform="matrix(1,0,0,-0.21336,0,106.828)">
            <g transform="matrix(1,0,0,-4.68692,-0,500.696)">
                <path d="M424.02,84.936L430.029,87.917L424.038,90.936L424.02,84.936Z"/>
                <path d="M319.899,89.043C354.804,88.417 390.197,89.008 425.231,88.932C425.783,88.931 426.23,88.482 426.229,87.93C426.228,87.378 425.779,86.931 425.227,86.932C390.182,87.008 354.779,86.417 319.863,87.044C319.311,87.054 318.871,87.51 318.881,88.061C318.891,88.613 319.347,89.053 319.899,89.043Z"/>
            </g>
        </g>
        <g transform="matrix(0.969338,-1.44693e-15,7.69177e-16,0.125603,17.0812,115.512)">
            <g transform="matrix(1.03163,1.18843e-14,-6.31759e-15,7.9616,-17.6215,-919.657)">
                <path d="M501.111,129.24L507.119,132.224L501.127,135.24L501.111,129.24Z"/>
                <path d="M387.406,133.233C402.431,133.278 417.4,133.511 432.442,133.518C455.781,133.53 479.028,133.309 502.322,133.237C502.874,133.235 503.32,132.786 503.319,132.234C503.317,131.682 502.867,131.235 502.315,131.237C479.024,131.309 455.78,131.53 432.443,131.518C417.402,131.511 402.436,131.278 387.412,131.233C386.86,131.231 386.411,131.678 386.409,132.23C386.407,132.782 386.854,133.231 387.406,133.233Z"/>
            </g>
        </g>
        <g transform="matrix(1,0,0,-0.121889,0,189.993)">
            <g transform="matrix(1,0,0,-8.20416,-0,1558.74)">
                <path d="M511.405,166.316L517.387,169.351L511.369,172.315L511.405,166.316Z"/>
                <path d="M344.184,170.016C400.354,169.402 456.397,169.982 512.581,170.323C513.133,170.326 513.584,169.881 513.587,169.329C513.59,168.777 513.145,168.326 512.593,168.323C456.398,167.982 400.343,167.402 344.162,168.016C343.61,168.022 343.167,168.475 343.173,169.027C343.179,169.579 343.632,170.022 344.184,170.016Z"/>
            </g>
        </g>
        <g transform="matrix(0.971261,-3.77397e-16,7.98502e-17,-0.203815,11.633,232.278)">
            <g transform="matrix(1.02959,-1.90646e-15,4.03371e-16,-4.90642,-11.9773,1139.65)">
                <path d="M511.102,189.985L517.09,193.008L511.079,195.985L511.102,189.985Z"/>
                <path d="M404.827,193.94C422.684,193.038 441.223,193.531 459.331,193.739C476.972,193.941 494.63,193.927 512.287,193.989C512.839,193.991 513.289,193.545 513.29,192.993C513.292,192.441 512.846,191.991 512.294,191.989C494.643,191.927 476.99,191.941 459.354,191.739C441.205,191.531 422.624,191.038 404.726,191.942C404.174,191.97 403.75,192.44 403.777,192.991C403.805,193.543 404.275,193.968 404.827,193.94Z"/>
            </g>
        </g>
        <g transform="matrix(0.923423,-0.415432,0.0138091,0.0306949,5.46101,352.981)">
            <g transform="matrix(0.900642,12.1895,-0.405183,27.0948,138.104,-9630.54)">
                <path d="M146.741,303.76L140.034,303.613L144.176,298.336L146.741,303.76Z"/>
                <path d="M269.622,241.866C226.927,261.76 183.946,281.757 143.946,300.657C143.447,300.893 143.234,301.489 143.469,301.988C143.705,302.487 144.302,302.701 144.801,302.465C184.797,283.567 227.775,263.571 270.467,243.679C270.967,243.446 271.184,242.851 270.951,242.35C270.718,241.85 270.123,241.633 269.622,241.866Z"/>
            </g>
        </g>
        <g transform="matrix(1.02386,-0.419849,0.00640894,0.0156291,-6.68992,294.657)">
            <g transform="matrix(0.836101,22.4603,-0.342854,54.7729,106.618,-15989)">
                <path d="M146.322,239.463L139.629,239.004L144.012,233.926L146.322,239.463Z"/>
                <path d="M248.412,192.536C212.599,207.431 178.692,221.626 143.675,236.234C143.165,236.446 142.924,237.032 143.137,237.542C143.349,238.051 143.935,238.292 144.445,238.079C179.461,223.472 213.368,209.277 249.18,194.382C249.69,194.17 249.931,193.585 249.719,193.075C249.507,192.565 248.921,192.324 248.412,192.536Z"/>
            </g>
        </g>
        <g transform="matrix(1,0,0,-0.0107333,0,180.725)">
            <g transform="matrix(1,0,0,-93.1684,-0,16837.8)">
                <path d="M167.153,181.805L161.153,178.805L167.153,175.805L167.153,181.805Z"/>
                <path d="M264.73,177.773C243.944,177.779 223.082,177.769 202.337,177.777C190.204,177.782 178.105,177.803 165.953,177.805C165.401,177.806 164.953,178.254 164.953,178.806C164.953,179.358 165.401,179.806 165.953,179.805C178.105,179.803 190.205,179.782 202.338,179.777C223.083,179.769 243.944,179.779 264.731,179.773C265.283,179.773 265.731,179.324 265.731,178.772C265.731,178.22 265.282,177.773 264.73,177.773Z"/>
            </g>
        </g>
        <g transform="matrix(1.01063,0,0,0.0591255,-2.97335,145.485)">
            <g transform="matrix(0.989482,-0,-0,16.9132,2.94208,-2460.61)">
                <path d="M167.173,157.749L161.192,154.713L167.21,151.75L167.173,157.749Z"/>
                <path d="M279.73,153.801C255.698,153.634 231.818,153.602 207.685,153.643C194.315,153.666 179.625,153.8 165.996,153.742C165.444,153.74 164.994,154.186 164.992,154.738C164.989,155.29 165.435,155.74 165.987,155.742C179.62,155.8 194.315,155.666 207.688,155.643C231.816,155.602 255.69,155.634 279.716,155.801C280.268,155.805 280.719,155.36 280.723,154.808C280.726,154.256 280.281,153.805 279.73,153.801Z"/>
            </g>
        </g>
        <g transform="matrix(1,0,0,0.0941927,-0.526151,119.729)">
            <g transform="matrix(1,-0,-0,10.6165,0.526151,-1271.11)">
                <path d="M168.149,135.174L162.14,132.193L168.131,129.175L168.149,135.174Z"/>
                <path d="M339.948,131.141C319.831,131.359 299.14,131.69 278.86,131.66C241.643,131.606 204.22,131.092 166.938,131.178C166.386,131.179 165.939,131.628 165.94,132.18C165.941,132.732 166.39,133.179 166.942,133.178C204.222,133.092 241.643,133.606 278.857,133.66C299.146,133.69 319.845,133.359 339.969,133.141C340.521,133.135 340.964,132.682 340.958,132.13C340.952,131.578 340.5,131.135 339.948,131.141Z"/>
            </g>
        </g>
        <g transform="matrix(1,0,0,0.137999,0,89.9929)">
            <g transform="matrix(1,-0,-0,7.24642,0,-652.126)">
                <path d="M173.588,107.794L167.603,104.763L173.619,101.794L173.588,107.794Z"/>
                <path d="M264.237,103.824C249.887,103.603 235.506,103.338 221.023,103.413C204.844,103.497 188.629,103.832 172.406,103.788C171.854,103.786 171.405,104.233 171.403,104.785C171.402,105.337 171.849,105.786 172.4,105.788C188.629,105.832 204.85,105.497 221.033,105.413C235.503,105.338 249.87,105.603 264.207,105.823C264.759,105.832 265.213,105.391 265.222,104.839C265.23,104.287 264.789,103.832 264.237,103.824Z"/>
            </g>
        </g>
        <g transform="matrix(0.963883,0.636433,-0.0135856,0.0205755,18.5679,-6.22174)">
            <g transform="matrix(0.722488,-22.3477,0.477044,33.8458,-10.447,625.529)">
                <path d="M409.098,255.675L412.369,261.532L405.721,260.635L409.098,255.675Z"/>
                <path d="M329.638,206.321C359.511,226.457 381.402,241.64 407.838,259.657C408.294,259.968 408.917,259.85 409.228,259.394C409.539,258.938 409.421,258.315 408.965,258.004C382.525,239.985 360.633,224.8 330.756,204.662C330.298,204.354 329.676,204.475 329.368,204.933C329.059,205.39 329.18,206.012 329.638,206.321Z"/>
            </g>
        </g>
        <g transform="matrix(0.999597,0.0283996,0.00676235,-0.238018,-6.653,389.1)">
            <g transform="matrix(0.999597,0.119269,0.0283996,-4.19798,-4.39998,1634.23)">
                <path d="M335.233,318.939L341.136,322.126L335.045,324.936L335.233,318.939Z"/>
                <path d="M261.278,321.719C286.291,321.988 311.252,322.223 336.309,322.975C336.86,322.992 337.322,322.557 337.338,322.005C337.355,321.454 336.92,320.992 336.369,320.976C311.299,320.223 286.325,319.988 261.299,319.719C260.747,319.713 260.294,320.156 260.289,320.708C260.283,321.26 260.726,321.713 261.278,321.719Z"/>
            </g>
        </g>
    </g>
</svg>
