<?xml version="1.0" encoding="UTF-8" standalone="no"?><!DOCTYPE svg PUBLIC "-//W3C//DTD SVG 1.1//EN" "http://www.w3.org/Graphics/SVG/1.1/DTD/svg11.dtd"><svg width="100%" height="100%" viewBox="0 0 1302 718" version="1.1" xmlns="http://www.w3.org/2000/svg" xmlns:xlink="http://www.w3.org/1999/xlink" xml:space="preserve" xmlns:serif="http://www.serif.com/" style="fill-rule:evenodd;clip-rule:evenodd;stroke-linecap:round;stroke-linejoin:round;stroke-miterlimit:1.5;"><g><text x="1030.52px" y="405.501px" style="font-family:'Arial-BoldMT', 'Arial', sans-serif;font-weight:700;font-size:25px;">Mammilary bodies</text><text x="792.876px" y="524.627px" style="font-family:'Arial-BoldMT', 'Arial', sans-serif;font-weight:700;font-size:25px;">Arcuate nucleus</text><text x="853.166px" y="180.739px" style="font-family:'Arial-BoldMT', 'Arial', sans-serif;font-weight:700;font-size:25px;">Paraventricular nucleus</text><text x="815.878px" y="43.568px" style="font-family:'Arial-BoldMT', 'Arial', sans-serif;font-weight:700;font-size:25px;">Fornix</text><text x="119.075px" y="575.597px" style="font-family:'Arial-BoldMT', 'Arial', sans-serif;font-weight:700;font-size:25px;">Infundibular stalk</text><g transform="matrix(2,0,0,2,-815.482,-184.734)"><text x="464.844px" y="316.386px" style="font-family:'Arial-BoldMT', 'Arial', sans-serif;font-weight:700;font-size:12.5px;">Suprachiasmatic</text><text x="491.248px" y="329.295px" style="font-family:'Arial-BoldMT', 'Arial', sans-serif;font-weight:700;font-size:12.5px;">nucleus</text></g><text x="107.349px" y="350.643px" style="font-family:'Arial-BoldMT', 'Arial', sans-serif;font-weight:700;font-size:25px;">Supraoptic nucleus</text><text x="63.883px" y="314.655px" style="font-family:'Arial-BoldMT', 'Arial', sans-serif;font-weight:700;font-size:25px;">Paraventricular nucleus</text><text x="138.413px" y="240.046px" style="font-family:'Arial-BoldMT', 'Arial', sans-serif;font-weight:700;font-size:25px;">Preoptic nucleus</text><text x="88.648px" y="271.375px" style="font-family:'Arial-BoldMT', 'Arial', sans-serif;font-weight:700;font-size:25px;">Dorsomedial nucleus</text><text x="674.235px" y="656.221px" style="font-family:'Arial-BoldMT', 'Arial', sans-serif;font-weight:700;font-size:25px;">Pituitary gland</text><g transform="matrix(2,0,0,2,31.1253,-377.123)"><text x="464.844px" y="316.386px" style="font-family:'Arial-BoldMT', 'Arial', sans-serif;font-weight:700;font-size:12.5px;">Posterior hypothalamic</text><text x="510.687px" y="329.295px" style="font-family:'Arial-BoldMT', 'Arial', sans-serif;font-weight:700;font-size:12.5px;">nucleus</text></g><text x="1011.16px" y="353.372px" style="font-family:'Arial-BoldMT', 'Arial', sans-serif;font-weight:700;font-size:25px;">V<tspan x="1026.46px 1040.36px " y="353.372px 353.372px ">en</tspan>tromedial nucleus</text></g><g><path d="M571.003,452.916c-11.195,-4.522 0.669,-54.26 -16.553,-63.386c-17.218,-9.125 -68.689,39.773 -98.415,42.642c-21.994,2.122 0.565,-25.636 27.526,-122.78c4.028,-14.515 9.627,-34.338 12.092,-56.516c3.069,-27.626 3.693,-62.132 14.127,-90.245c20.465,-55.141 40.454,-107.798 53.749,-110.268c10.874,-2.02 28.731,-3.262 30.38,6.581c5.858,34.978 21.99,56.29 37.29,53.535c23.264,-4.189 21.183,-29.451 31.966,-30.235c35.045,-2.548 68.381,41.306 122.009,78.462c98.441,68.207 131.539,125.627 139.699,164.893c2.459,11.835 -4.888,5.001 -21.434,7.227c-16.426,2.209 -56.591,15.733 -83.781,28.934c-15.985,7.761 -61.937,34.582 -80.677,38.65c-14.885,3.232 -38.047,10.927 -51.496,13.346c-19.616,3.528 -45.037,2.26 -65.861,2.906c-25.773,0.8 -39.425,40.776 -50.621,36.254Z" style="fill:#efddd3;stroke:#000;stroke-width:2px;"/><path d="M497.978,356.271c7.287,5.272 11.762,12.82 2.03,26.457c-7.233,10.134 -21.583,16.482 -32.873,13.129c-7.847,-2.33 -4.344,-18.464 4.649,-31.428c8.994,-12.964 19.37,-13.095 26.194,-8.158Z" style="fill:#ec465e;stroke:#000;stroke-width:2px;"/><path d="M622.654,393.781c41.666,6.911 52.825,-18.829 65.042,5.182c12.406,24.385 -51.528,-3.252 -73.797,7.223c-32.016,15.061 -33.257,50.704 -39.268,35.3c-4.099,-10.504 3.928,-55.019 48.023,-47.705Z" style="fill:#d63425;stroke:#000;stroke-width:2px;"/><path d="M538.492,338.553c19.33,7.433 19.207,44.523 7.36,50.461c-11.13,5.579 -24.502,-8.516 -39.036,-23.303c-11.605,-11.807 -26.701,-21.336 -18.069,-31.391c8.632,-10.054 36.252,-0.955 49.745,4.233Z" style="fill:#f37b2f;stroke:#000;stroke-width:2px;"/><path d="M513.316,205.37c13.37,2.582 25.649,6.506 29.481,48.055c2.834,30.719 -1.058,48.722 -17.46,62.052c-18.604,15.119 -36.169,13.212 -38.405,-0.517c-2.142,-13.151 5.942,-35.77 7.905,-47.447c3.148,-18.723 3.422,-65.049 18.479,-62.143Z" style="fill:#d63425;stroke:#000;stroke-width:2px;"/><path d="M659.745,316.985c11.837,3.439 24.151,28.163 11.568,51.474c-12.584,23.311 -42.239,23.543 -53.086,17.688c-10.847,-5.855 -3.093,-31.465 9.49,-54.776c12.584,-23.311 17.861,-18.504 32.028,-14.386Z" style="fill:#31438f;stroke:#000;stroke-width:2px;"/><path d="M639.785,159.857c12.817,11.979 11.141,49.775 -16.456,69.713c-28.315,20.455 -54.63,50.515 -67.447,38.536c-12.817,-11.98 14.257,-67.625 33.056,-97.065c20.278,-31.756 38.03,-23.164 50.847,-11.184Z" style="fill:#31438f;stroke:#000;stroke-width:2px;"/><path d="M615.097,247.489c17.466,3.859 20.974,41.056 -3.327,70.651c-20.203,24.604 -48.808,35.419 -62.076,24.065c-13.268,-11.355 -7.171,-38.106 13.529,-62.294c2.788,-3.259 37.119,-35.682 51.874,-32.422Z" style="fill:#188740;stroke:#000;stroke-width:2px;"/><path d="M779.325,223.128c12.067,8.195 8.353,43.026 -12.598,79.899c-22.11,38.912 -57.243,65.176 -70.534,55.37c-11.738,-8.66 -1.673,-44.959 22.154,-80.043c23.826,-35.084 48.911,-63.422 60.978,-55.226Z" style="fill:#732a86;stroke:#000;stroke-width:2px;"/><path d="M666.873,222.984c15.518,3.568 32.046,27.844 27.131,51.109c-4.915,23.264 -33.957,39.491 -49.475,35.924c-15.518,-3.568 -10.871,-17.584 -5.956,-40.849c4.916,-23.265 12.782,-49.751 28.3,-46.184Z" style="fill:#f37b2f;stroke:#000;stroke-width:2px;"/><path d="M766.633,335.904c14.91,-6.237 50.104,2.499 55.541,13.393c14.153,28.357 26.007,38.654 -1.599,65.727c-5.506,5.4 -18.18,7.066 -25.698,10.679c-34.377,16.522 -62.599,1.725 -66.326,-26.852c-2.591,-19.871 -4.412,-45.173 38.082,-62.947Z" style="fill:#d63425;stroke:#000;stroke-width:2px;"/><path d="M772.196,354.029c22.64,-10.676 39.312,-10.899 54.518,3.413c21.434,20.174 7.546,59.559 -27.735,67.362c-24.494,5.417 -42.747,1.382 -51.712,-17.629c-8.966,-19.011 2.289,-42.469 24.929,-53.146Z" style="fill:#d63425;stroke:#000;stroke-width:2px;"/><path d="M548.464,49.406c22.254,-11.81 -11.287,31.719 -36.911,105.806c-11.857,34.283 -14.016,98.787 -24.143,144.648c-13.451,60.912 -54.264,128.773 -36.83,132.499c13.919,2.974 95.575,-53.696 105.926,-42.503c15.174,16.408 7.178,53.29 13.43,61.399c4.198,5.444 7.969,2.091 12.909,-4.519c10.248,-13.714 24.907,-33.19 46.301,-31.502c42.309,3.339 88.152,-4.814 126.786,-19.956c21.939,-8.598 53.618,-31.966 91.637,-45.894c40.137,-14.704 88.196,-26.522 89.484,-5.292c2.109,34.757 10.314,134.963 7.147,138.026c-5.634,5.45 -20.155,-27.54 -39.227,-63.534c-12.135,-22.902 -7.508,-52.703 -29.364,-54.399c-17.031,-1.322 -48.194,10.712 -84.167,26.846c-40.032,17.954 -81.339,47.494 -128.649,46.321c-40.592,-1.007 -53.437,18.543 -68.674,23.701c-25.527,8.642 -17.495,90.5 2.576,133.168c10.98,23.343 15.518,67.291 3.964,86.325c-11.097,18.278 -49.763,37.635 -78.971,34.214c-21.565,-2.525 -47.428,-4.77 -67.856,-11.48c-35.947,-11.806 -39.239,-30.359 -43.414,-44.319c-5.754,-19.24 -15.338,-35.767 18.626,-78.747c21.749,-27.523 75.253,-17.563 92.857,-51.855c8.624,-16.799 12.291,-33.593 16.673,-51.492c6.487,-26.501 9.794,-69.041 -3.603,-70.589c-6.931,-0.801 -29.032,32.135 -51.792,56.655c-24.471,26.361 -64.787,34.757 -68.913,14.358c-2.307,-11.401 -3.435,-17.231 2.323,-35.03c10.113,-31.259 42.088,-86.197 54.024,-129.782c6.489,-23.695 15.481,-54.051 19.238,-84.973c4.341,-35.736 3.03,-73.263 14.263,-94.472c25.226,-47.623 20.995,-71.233 44.35,-83.628Z" style="fill:#f3e230;stroke:#000;stroke-width:2px;"/><path d="M540.169,47.429c16.007,1.808 -12.379,31.855 -21.855,57.237c-7.824,20.958 -20.818,45.873 -21.784,59.76c-2.75,39.512 -8.198,81.126 -16.537,112.333c-7.555,28.273 -11.812,52.588 -24.999,76.491c-8.962,16.245 -14.742,34.368 -23.199,52.996c-13.629,30.019 -17.601,54.722 -20.309,63.612c-3.068,10.072 -19.931,-9.092 -14.868,-51.716c4.4,-37.033 5.239,-97.268 12.024,-123.386c5.2,-20.016 19.464,-52.641 23.277,-65.266c11.38,-37.684 22.129,-67.316 34.071,-97.163c20.716,-51.774 52.982,-87.292 74.179,-84.898Z" style="fill:#f8aa24;stroke:#000;stroke-width:2px;"/><path d="M543.609,447.721c-0.063,7.823 -3.065,30.429 -10.062,49.455c-5.976,16.253 -8.422,31.144 -22.702,42.16c-23.038,17.77 -39.365,14.496 -66.595,29.018c-13.641,7.275 -28.171,26.331 -32.412,40.933c-13.648,46.981 10.863,71.126 5.265,69.93c-16.22,-3.464 -30.322,-7.526 -35.442,-19.058c-6.661,-15.005 -10.581,-41.107 4.126,-70.507c26.642,-53.261 70.044,-33.343 106.642,-58.333c23.907,-16.325 21.041,-61.209 32.323,-74.344c5.074,-5.907 18.921,-17.38 18.857,-9.254Z" style="fill:#f8aa24;stroke:#000;stroke-width:2px;"/><path d="M610.347,7.492c17.162,1.776 75.172,-15.699 68.322,12.806c-4.569,19.01 -12.632,46.77 -22.666,67.101c-7.374,14.941 -16.437,25.905 -22.792,26.254c-15.215,0.836 -45.713,-24.067 -35.444,-69.913c7.836,-34.983 -0.112,-37.561 12.58,-36.248Z" style="fill:#f3e230;stroke:#000;stroke-width:2px;"/></g><g><path d="M658.127,31.362l-17.994,6.017l18.006,5.983l-0.012,-12Z"/><path d="M654.535,39.366c52.252,-0.046 103.65,-0.053 156.131,0.028c1.103,0.002 2.001,-0.893 2.003,-1.997c0.001,-1.104 -0.893,-2.001 -1.997,-2.003c-52.484,-0.081 -103.885,-0.074 -156.141,-0.028c-1.104,0 -1.999,0.897 -1.998,2.001c0.001,1.104 0.898,1.999 2.002,1.999Z"/><path d="M630.356,169.429l-17.905,6.279l18.091,5.72l-0.186,-11.999Z"/><path d="M626.876,177.484c69.5,-0.918 147.352,0.247 215.787,-0.029c1.104,-0.004 1.997,-0.904 1.992,-2.008c-0.004,-1.104 -0.904,-1.996 -2.008,-1.992c-68.446,0.276 -146.312,-0.889 -215.824,0.029c-1.104,0.015 -1.988,0.923 -1.974,2.027c0.015,1.103 0.923,1.988 2.027,1.973Z"/><path d="M775.452,258.198l-18.037,5.889l17.963,6.111l0.074,-12Z"/><path d="M771.798,266.175c19.987,0.166 39.94,0.47 59.972,0.483c41.183,0.025 82.191,-0.481 123.306,-0.589c1.104,-0.003 1.998,-0.901 1.995,-2.005c-0.003,-1.104 -0.902,-1.998 -2.006,-1.995c-41.111,0.108 -82.114,0.614 -123.293,0.589c-20.022,-0.013 -39.964,-0.317 -59.941,-0.482c-1.103,-0.01 -2.007,0.879 -2.016,1.983c-0.009,1.104 0.88,2.007 1.983,2.016Z"/><path d="M668.284,340.054l-17.94,6.177l18.059,5.822l-0.119,-11.999Z"/><path d="M664.762,348.089c112.737,-1.019 225.247,0.169 338.049,0.812c1.104,0.006 2.005,-0.885 2.011,-1.989c0.006,-1.103 -0.885,-2.005 -1.988,-2.011c-112.822,-0.643 -225.351,-1.831 -338.108,-0.812c-1.104,0.01 -1.992,0.914 -1.982,2.018c0.01,1.104 0.914,1.992 2.018,1.982Z"/><path d="M817.398,392.787l-17.743,6.722l18.228,5.268l-0.485,-11.99Z"/><path d="M814.105,400.926c31.235,-0.97 63.272,-0.181 94.66,0.179c38.478,0.442 76.998,0.368 115.51,0.539c1.103,0.005 2.003,-0.887 2.008,-1.991c0.005,-1.104 -0.887,-2.004 -1.991,-2.009c-38.502,-0.171 -77.012,-0.097 -115.481,-0.539c-31.445,-0.36 -63.539,-1.148 -94.83,-0.177c-1.103,0.035 -1.971,0.958 -1.937,2.061c0.034,1.104 0.958,1.972 2.061,1.937Z"/><path d="M540.042,515.392l15.751,-10.579l-18.948,-0.988l3.197,11.567Z"/><path d="M541.381,506.721c-67.946,18.738 -144.924,39.401 -207.13,56.639c-1.063,0.294 -1.688,1.397 -1.393,2.461c0.295,1.064 1.398,1.688 2.461,1.393c62.205,-17.237 139.181,-37.899 207.126,-56.637c1.064,-0.293 1.69,-1.395 1.396,-2.459c-0.293,-1.064 -1.395,-1.69 -2.46,-1.397Z"/><path d="M476.892,383.872l14.371,-12.388l-18.93,1.288l4.559,11.1Z"/><path d="M477.183,375.105c-51.936,21.343 -106.198,43.796 -156.706,64.527c-1.022,0.42 -1.51,1.589 -1.091,2.61c0.419,1.021 1.588,1.51 2.609,1.091c50.51,-20.731 104.772,-43.185 156.708,-64.529c1.021,-0.419 1.509,-1.589 1.09,-2.61c-0.42,-1.021 -1.589,-1.509 -2.61,-1.089Z"/><path d="M497.72,349.766l17.974,-6.076l-18.025,-5.924l0.051,12Z"/><path d="M501.29,341.751c-28.097,0.064 -56.248,-0.15 -84.264,0.083c-21.697,0.18 -43.329,1.06 -65.089,0.935c-1.103,-0.007 -2.005,0.884 -2.011,1.988c-0.006,1.104 0.885,2.005 1.988,2.011c21.779,0.126 43.429,-0.754 65.145,-0.934c28.009,-0.233 56.151,-0.019 84.24,-0.083c1.104,-0.003 1.998,-0.901 1.995,-2.005c-0.002,-1.104 -0.9,-1.998 -2.004,-1.995Z"/><path d="M555.318,315.576l18.092,-5.716l-17.903,-6.282l-0.189,11.998Z"/><path d="M369.783,311.276c-0.221,0.126 -0.506,0.228 -0.869,0.265c-0.468,0.048 -3.557,0.069 -6.603,0.057c-3.109,-0.013 -6.172,-0.074 -6.472,-0.126c-0.711,-0.123 -1.03,-0.49 -1.147,-0.615c-0.577,-0.621 -0.637,-1.284 -0.461,-1.908c0.059,-0.207 0.295,-1.228 1.641,-1.44c0.255,-0.04 2.176,-0.106 6.859,-0.156c14.375,-0.154 28.626,-0.331 42.287,-0.387c51.595,-0.212 102.695,-0.081 154.023,0.668c1.104,0.016 1.987,0.925 1.971,2.029c-0.016,1.104 -0.926,1.987 -2.029,1.971c-51.303,-0.749 -102.378,-0.88 -153.948,-0.668c-11.429,0.047 -23.27,0.178 -35.252,0.31Z"/><path d="M652.151,270.101l17.932,-6.199l-18.065,-5.8l0.133,11.999Z"/><path d="M364.537,262.012c60.152,0.19 120.383,0.843 180.352,0.93c36.731,0.052 74.12,-0.459 110.772,-0.88c1.104,-0.013 2.01,0.873 2.023,1.977c0.013,1.103 -0.873,2.01 -1.977,2.023c-36.669,0.421 -74.075,0.932 -110.824,0.88c-61.794,-0.089 -123.865,-0.78 -185.835,-0.948c-3.39,-0.009 -4.859,-0.017 -5.133,-0.024c-0.443,-0.011 -0.66,-0.114 -0.688,-0.124c-0.849,-0.311 -1.092,-0.909 -1.2,-1.219c-0.206,-0.589 -0.167,-1.186 0.229,-1.775c0.052,-0.078 0.419,-0.803 1.526,-0.88c0.044,-0.003 0.325,-0.009 0.773,-0.011c1.944,-0.011 7.662,-0.013 9.233,-0.003c0.1,0 0.193,0.003 0.279,0.009l0.017,-0.001l-0.001,0.001c0.185,0.01 0.337,0.028 0.454,0.045Z"/><path d="M508.433,242.122l18.009,-5.972l-17.991,-6.028l-0.018,12Z"/><path d="M512.045,234.128c-25.679,-0.04 -51.421,-0.077 -77.318,-0.064c-37.743,0.019 -43.903,0.102 -81.753,0.073c-1.104,-0.001 -2.001,0.895 -2.002,1.998c-0.001,1.104 0.895,2.001 1.999,2.002c37.853,0.029 44.012,-0.054 81.758,-0.073c25.894,-0.013 51.633,0.024 77.31,0.064c1.104,0.001 2.001,-0.894 2.003,-1.997c0.002,-1.104 -0.893,-2.002 -1.997,-2.003Z"/><path d="M633.357,405.158l-18.294,-5.033l11.615,15.003l6.679,-9.97Z"/><path d="M625.913,409.8c59.509,39.903 104.602,70.668 160.09,108.041c0.916,0.617 2.16,0.374 2.777,-0.541c0.616,-0.916 0.374,-2.16 -0.542,-2.776c-55.491,-37.375 -100.586,-68.142 -160.098,-108.046c-0.916,-0.615 -2.16,-0.369 -2.775,0.547c-0.614,0.917 -0.369,2.161 0.548,2.775Z"/><path d="M523.237,641.251l-18.063,5.808l17.935,6.192l0.128,-12Z"/><path d="M519.552,649.212c48.399,0.518 96.727,1.071 145.252,2.659c1.104,0.036 2.029,-0.83 2.065,-1.933c0.036,-1.103 -0.831,-2.028 -1.934,-2.065c-48.554,-1.588 -96.912,-2.142 -145.34,-2.66c-1.104,-0.012 -2.01,0.874 -2.022,1.978c-0.011,1.104 0.875,2.01 1.979,2.021Z"/></g></svg>