<?xml version="1.0" encoding="UTF-8" standalone="no"?><!DOCTYPE svg PUBLIC "-//W3C//DTD SVG 1.1//EN" "http://www.w3.org/Graphics/SVG/1.1/DTD/svg11.dtd"><svg width="100%" height="100%" viewBox="0 0 1302 718" version="1.1" xmlns="http://www.w3.org/2000/svg" xmlns:xlink="http://www.w3.org/1999/xlink" xml:space="preserve" xmlns:serif="http://www.serif.com/" style="fill-rule:evenodd;clip-rule:evenodd;stroke-linecap:round;stroke-linejoin:round;stroke-miterlimit:1.5;"><g><text x="1047.92px" y="405.88px" style="font-family:'Arial-BoldMT', 'Arial', sans-serif;font-weight:700;font-size:20.833px;">Mammilary bodies</text><text x="810.279px" y="525.007px" style="font-family:'Arial-BoldMT', 'Arial', sans-serif;font-weight:700;font-size:20.833px;">Arcuate nucleus</text><text x="870.569px" y="181.118px" style="font-family:'Arial-BoldMT', 'Arial', sans-serif;font-weight:700;font-size:20.833px;">Paraventricular nucleus</text><text x="833.281px" y="43.947px" style="font-family:'Arial-BoldMT', 'Arial', sans-serif;font-weight:700;font-size:20.833px;">Fornix</text><text x="98.509px" y="587.4px" style="font-family:'Arial-BoldMT', 'Arial', sans-serif;font-weight:700;font-size:20.833px;">Infundibular stalk</text><text x="34.528px" y="467.347px" style="font-family:'Arial-BoldMT', 'Arial', sans-serif;font-weight:700;font-size:20.833px;">Suprachiasmatic nucleus</text><text x="124.752px" y="351.023px" style="font-family:'Arial-BoldMT', 'Arial', sans-serif;font-weight:700;font-size:20.833px;">Supraoptic nucleus</text><text x="81.286px" y="313.534px" style="font-family:'Arial-BoldMT', 'Arial', sans-serif;font-weight:700;font-size:20.833px;">Paraventricular nucleus</text><text x="162.139px" y="240.425px" style="font-family:'Arial-BoldMT', 'Arial', sans-serif;font-weight:700;font-size:20.833px;">Preoptic nucleus</text><text x="106.051px" y="271.755px" style="font-family:'Arial-BoldMT', 'Arial', sans-serif;font-weight:700;font-size:20.833px;">Dorsomedial nucleus</text><text x="691.638px" y="656.601px" style="font-family:'Arial-BoldMT', 'Arial', sans-serif;font-weight:700;font-size:20.833px;">Pituitary gland</text><g transform="matrix(2,0,0,2,93.9429,-364.504)"><text x="464.844px" y="316.386px" style="font-family:'Arial-BoldMT', 'Arial', sans-serif;font-weight:700;font-size:10.417px;">Posterior hypothalamic</text><text x="503.047px" y="327.143px" style="font-family:'Arial-BoldMT', 'Arial', sans-serif;font-weight:700;font-size:10.417px;">nucleus</text></g><text x="1028.56px" y="353.752px" style="font-family:'Arial-BoldMT', 'Arial', sans-serif;font-weight:700;font-size:20.833px;">V<tspan x="1041.31px 1052.9px " y="353.752px 353.752px ">en</tspan>tromedial nucleus</text></g><g><path d="M588.406,453.295c-11.195,-4.522 0.669,-54.26 -16.553,-63.386c-17.219,-9.124 -68.689,39.773 -98.415,42.642c-21.995,2.123 0.564,-25.636 27.525,-122.779c4.029,-14.516 9.628,-34.339 12.092,-56.517c3.07,-27.625 3.694,-62.131 14.128,-90.245c20.465,-55.141 40.454,-107.798 53.748,-110.267c10.875,-2.02 28.732,-3.263 30.381,6.58c5.857,34.978 21.989,56.29 37.29,53.535c23.264,-4.188 21.182,-29.451 31.965,-30.235c35.046,-2.547 68.382,41.306 122.009,78.463c98.442,68.206 131.539,125.626 139.7,164.893c2.459,11.835 -4.888,5 -21.434,7.226c-16.426,2.21 -56.591,15.734 -83.781,28.934c-15.985,7.761 -61.937,34.582 -80.678,38.651c-14.884,3.231 -38.047,10.926 -51.495,13.345c-19.617,3.529 -45.038,2.26 -65.861,2.906c-25.773,0.8 -39.425,40.776 -50.621,36.254Z" style="fill:#efddd3;stroke:#000;stroke-width:2px;"/><path d="M515.381,356.65c7.286,5.272 11.762,12.82 2.029,26.457c-7.232,10.134 -21.583,16.482 -32.873,13.13c-7.846,-2.33 -4.344,-18.465 4.65,-31.429c8.993,-12.964 19.37,-13.095 26.194,-8.158Z" style="fill:#ec465e;stroke:#000;stroke-width:2px;"/><path d="M640.056,394.16c41.667,6.911 52.826,-18.829 65.042,5.182c12.406,24.385 -51.528,-3.252 -73.796,7.224c-32.016,15.061 -33.257,50.704 -39.268,35.3c-4.099,-10.505 3.928,-55.02 48.022,-47.706Z" style="fill:#d63425;stroke:#000;stroke-width:2px;"/><path d="M555.894,338.932c19.331,7.433 19.208,44.524 7.361,50.462c-11.13,5.579 -24.502,-8.517 -39.036,-23.303c-11.606,-11.808 -26.701,-21.336 -18.069,-31.391c8.632,-10.055 36.252,-0.956 49.744,4.232Z" style="fill:#f37b2f;stroke:#000;stroke-width:2px;"/><path d="M530.718,205.75c13.371,2.581 25.65,6.505 29.482,48.055c2.833,30.718 -1.058,48.722 -17.46,62.052c-18.604,15.119 -36.169,13.211 -38.405,-0.517c-2.142,-13.152 5.941,-35.771 7.905,-47.448c3.148,-18.723 3.422,-65.049 18.478,-62.142Z" style="fill:#d63425;stroke:#000;stroke-width:2px;"/><path d="M677.148,317.364c11.837,3.44 24.151,28.163 11.567,51.474c-12.583,23.311 -42.238,23.544 -53.085,17.688c-10.847,-5.855 -3.093,-31.464 9.49,-54.775c12.584,-23.311 17.86,-18.504 32.028,-14.387Z" style="fill:#31438f;stroke:#000;stroke-width:2px;"/><path d="M657.188,160.236c12.817,11.979 11.141,49.776 -16.457,69.713c-28.314,20.456 -54.629,50.515 -67.446,38.536c-12.817,-11.979 14.257,-67.625 33.056,-97.065c20.277,-31.755 38.03,-23.163 50.847,-11.184Z" style="fill:#31438f;stroke:#000;stroke-width:2px;"/><path d="M632.5,247.868c17.466,3.86 20.974,41.057 -3.327,70.651c-20.204,24.604 -48.808,35.42 -62.076,24.065c-13.268,-11.355 -7.172,-38.106 13.528,-62.294c2.789,-3.258 37.12,-35.681 51.875,-32.422Z" style="fill:#188740;stroke:#000;stroke-width:2px;"/><path d="M796.728,223.507c12.067,8.195 8.352,43.026 -12.599,79.9c-22.109,38.911 -57.242,65.175 -70.533,55.369c-11.738,-8.66 -1.673,-44.959 22.153,-80.043c23.827,-35.084 48.912,-63.421 60.979,-55.226Z" style="fill:#732a86;stroke:#000;stroke-width:2px;"/><path d="M684.276,223.364c15.517,3.567 32.046,27.843 27.131,51.108c-4.916,23.265 -33.958,39.492 -49.475,35.924c-15.518,-3.568 -10.871,-17.583 -5.956,-40.848c4.915,-23.265 12.782,-49.752 28.3,-46.184Z" style="fill:#f37b2f;stroke:#000;stroke-width:2px;"/><path d="M784.036,336.283c14.909,-6.236 50.103,2.499 55.541,13.394c14.153,28.357 26.007,38.653 -1.6,65.727c-5.505,5.399 -18.179,7.066 -25.697,10.679c-34.378,16.521 -62.599,1.724 -66.326,-26.852c-2.592,-19.871 -4.413,-45.174 38.082,-62.948Z" style="fill:#d63425;stroke:#000;stroke-width:2px;"/><path d="M789.599,354.409c22.64,-10.677 39.311,-10.9 54.517,3.412c21.435,20.175 7.547,59.559 -27.734,67.362c-24.494,5.418 -42.747,1.383 -51.713,-17.629c-8.965,-19.011 2.29,-42.468 24.93,-53.145Z" style="fill:#d63425;stroke:#000;stroke-width:2px;"/><path d="M565.867,49.786c22.254,-11.811 -11.287,31.719 -36.911,105.805c-11.858,34.283 -14.016,98.788 -24.143,144.648c-13.452,60.913 -54.265,128.774 -36.83,132.499c13.918,2.974 95.575,-53.696 105.926,-42.503c15.174,16.409 7.177,53.29 13.43,61.399c4.197,5.444 7.969,2.092 12.908,-4.519c10.249,-13.713 24.908,-33.19 46.302,-31.501c42.309,3.339 88.152,-4.815 126.786,-19.957c21.938,-8.598 53.617,-31.965 91.637,-45.894c40.136,-14.704 88.196,-26.522 89.484,-5.292c2.108,34.757 10.313,134.964 7.147,138.026c-5.634,5.45 -20.155,-27.539 -39.227,-63.533c-12.136,-22.903 -7.509,-52.704 -29.364,-54.4c-17.031,-1.321 -48.195,10.713 -84.168,26.846c-40.032,17.954 -81.338,47.495 -128.649,46.321c-40.592,-1.007 -53.436,18.543 -68.673,23.701c-25.527,8.643 -17.495,90.5 2.576,133.168c10.98,23.343 15.518,67.292 3.963,86.325c-11.096,18.278 -49.762,37.635 -78.97,34.215c-21.565,-2.526 -47.429,-4.771 -67.857,-11.48c-35.946,-11.807 -39.239,-30.36 -43.413,-44.32c-5.754,-19.24 -15.338,-35.766 18.626,-78.746c21.749,-27.523 75.253,-17.564 92.857,-51.856c8.624,-16.798 12.291,-33.593 16.672,-51.492c6.487,-26.501 9.795,-69.041 -3.602,-70.589c-6.932,-0.801 -29.032,32.136 -51.793,56.655c-24.471,26.362 -64.786,34.757 -68.913,14.359c-2.306,-11.402 -3.434,-17.232 2.324,-35.031c10.112,-31.259 42.088,-86.197 54.024,-129.782c6.489,-23.695 15.48,-54.05 19.237,-84.973c4.342,-35.736 3.031,-73.263 14.264,-94.471c25.225,-47.624 20.995,-71.233 44.35,-83.628Z" style="fill:#f3e230;stroke:#000;stroke-width:2px;"/><path d="M557.572,47.809c16.007,1.808 -12.379,31.854 -21.855,57.236c-7.825,20.958 -20.818,45.874 -21.784,59.761c-2.751,39.511 -8.198,81.126 -16.537,112.332c-7.556,28.273 -11.812,52.588 -24.999,76.491c-8.962,16.245 -14.742,34.369 -23.199,52.996c-13.63,30.019 -17.602,54.722 -20.31,63.613c-3.067,10.071 -19.93,-9.092 -14.867,-51.716c4.4,-37.034 5.239,-97.269 12.024,-123.387c5.2,-20.016 19.464,-52.64 23.277,-65.265c11.38,-37.685 22.129,-67.317 34.071,-97.163c20.716,-51.775 52.982,-87.292 74.179,-84.898Z" style="fill:#f8aa24;stroke:#000;stroke-width:2px;"/><path d="M561.011,448.1c-0.062,7.823 -3.064,30.429 -10.061,49.455c-5.977,16.253 -8.422,31.145 -22.703,42.16c-23.037,17.771 -39.364,14.497 -66.594,29.019c-13.641,7.274 -28.171,26.33 -32.412,40.932c-13.648,46.981 10.863,71.127 5.265,69.931c-16.22,-3.465 -30.323,-7.527 -35.442,-19.059c-6.661,-15.004 -10.581,-41.107 4.125,-70.507c26.642,-53.261 70.045,-33.342 106.642,-58.332c23.908,-16.325 21.042,-61.21 32.324,-74.344c5.074,-5.907 18.921,-17.38 18.856,-9.255Z" style="fill:#f8aa24;stroke:#000;stroke-width:2px;"/><path d="M627.749,7.872c17.163,1.776 75.173,-15.7 68.323,12.805c-4.569,19.01 -12.632,46.771 -22.667,67.102c-7.374,14.94 -16.437,25.904 -22.792,26.253c-15.214,0.836 -45.712,-24.067 -35.443,-69.912c7.835,-34.984 -0.112,-37.562 12.579,-36.248Z" style="fill:#f3e230;stroke:#000;stroke-width:2px;"/></g><g><path d="M675.53,31.742l-17.994,6.016l18.005,5.984l-0.011,-12Z"/><path d="M671.937,39.745c52.253,-0.046 103.651,-0.052 156.131,0.028c1.104,0.002 2.002,-0.893 2.003,-1.997c0.002,-1.103 -0.893,-2.001 -1.997,-2.003c-52.483,-0.08 -103.884,-0.074 -156.14,-0.028c-1.104,0.001 -1.999,0.898 -1.998,2.002c0.001,1.103 0.898,1.999 2.001,1.998Z"/><path d="M657.666,169.806l-17.904,6.281l18.091,5.718l-0.187,-11.999Z"/><path d="M654.187,177.862c68.333,-0.915 137.485,0.248 205.879,-0.028c1.104,-0.004 1.997,-0.904 1.992,-2.008c-0.004,-1.103 -0.904,-1.996 -2.008,-1.991c-68.407,0.275 -137.571,-0.888 -205.917,0.027c-1.103,0.015 -1.988,0.923 -1.973,2.027c0.015,1.104 0.923,1.988 2.027,1.973Z"/><path d="M792.846,258.552l-18.028,5.914l17.971,6.086l0.057,-12Z"/><path d="M789.205,266.535c25.225,0.159 50.4,0.489 75.679,0.502c49.884,0.025 99.555,-0.481 149.357,-0.588c1.104,-0.003 1.998,-0.901 1.996,-2.005c-0.002,-1.104 -0.9,-1.998 -2.004,-1.995c-49.799,0.107 -99.467,0.613 -149.347,0.588c-25.271,-0.013 -50.438,-0.343 -75.656,-0.502c-1.103,-0.007 -2.005,0.883 -2.012,1.987c-0.007,1.104 0.883,2.006 1.987,2.013Z"/><path d="M691.736,340.43l-17.939,6.181l18.059,5.819l-0.12,-12Z"/><path d="M688.215,348.466c110.719,-1.015 221.215,0.172 331.998,0.814c1.104,0.007 2.006,-0.884 2.012,-1.988c0.006,-1.104 -0.885,-2.005 -1.988,-2.012c-110.804,-0.642 -221.32,-1.829 -332.059,-0.814c-1.104,0.01 -1.992,0.915 -1.982,2.018c0.01,1.104 0.915,1.992 2.019,1.982Z"/><path d="M834.8,393.166l-17.742,6.723l18.227,5.267l-0.485,-11.99Z"/><path d="M831.508,401.306c31.235,-0.97 63.272,-0.181 94.66,0.179c38.478,0.441 76.998,0.368 115.509,0.538c1.104,0.005 2.004,-0.887 2.009,-1.991c0.005,-1.104 -0.887,-2.004 -1.991,-2.009c-38.502,-0.17 -77.012,-0.097 -115.482,-0.538c-31.444,-0.361 -63.538,-1.149 -94.829,-0.177c-1.104,0.034 -1.971,0.957 -1.937,2.061c0.034,1.103 0.958,1.971 2.061,1.937Z"/><path d="M538.917,510.892l15.605,-10.792l-18.96,-0.729l3.355,11.521Z"/><path d="M540.137,502.205c-89.164,25.959 -178.57,51.963 -261.688,76.694c-1.058,0.315 -1.662,1.429 -1.347,2.487c0.315,1.058 1.429,1.662 2.487,1.347c83.112,-24.729 172.51,-50.731 261.666,-76.688c1.06,-0.308 1.67,-1.419 1.361,-2.479c-0.308,-1.06 -1.419,-1.67 -2.479,-1.361Z"/><path d="M487.831,387.028l14.426,-12.324l-18.935,1.203l4.509,11.121Z"/><path d="M488.161,378.261c-67.222,27.249 -131.379,53.137 -197.759,80.005c-1.023,0.414 -1.518,1.581 -1.104,2.604c0.415,1.023 1.582,1.517 2.605,1.103c66.38,-26.867 130.538,-52.756 197.761,-80.005c1.023,-0.414 1.517,-1.582 1.102,-2.605c-0.415,-1.023 -1.582,-1.516 -2.605,-1.102Z"/><path d="M515.098,351.098l17.999,-6.004l-18.001,-5.996l0.002,12Z"/><path d="M518.697,343.097c-36.802,0.006 -73.686,-0.009 -110.388,0.006c-27.457,0.011 -54.832,0.064 -82.367,0.056c-1.104,0 -2,0.896 -2.001,2c-0,1.104 0.896,2 2,2c27.536,0.008 54.911,-0.045 82.37,-0.056c36.701,-0.015 73.585,-0 110.386,-0.006c1.104,0 2,-0.896 2,-2c-0,-1.104 -0.897,-2 -2,-2Z"/><path d="M541.407,315.487l18.038,-5.885l-17.961,-6.115l-0.077,12Z"/><path d="M545.057,307.51c-43.212,-0.254 -86.244,-0.298 -129.687,-0.224c-29.908,0.051 -63.12,0.38 -92.971,0.14c-1.103,-0.009 -2.007,0.88 -2.016,1.984c-0.009,1.104 0.88,2.007 1.984,2.016c29.863,0.24 63.09,-0.089 93.01,-0.14c43.432,-0.074 86.455,-0.03 129.657,0.224c1.104,0.006 2.005,-0.885 2.012,-1.988c0.006,-1.104 -0.885,-2.006 -1.989,-2.012Z"/><path d="M661.987,270.486l17.93,-6.205l-18.067,-5.794l0.137,11.999Z"/><path d="M665.494,262.445c-35.663,0.421 -72.037,0.928 -107.774,0.876c-77.629,-0.114 -155.707,-1.226 -233.447,-0.936c-1.104,0.004 -1.997,0.904 -1.993,2.008c0.004,1.103 0.904,1.996 2.008,1.992c77.733,-0.29 155.804,0.822 233.426,0.936c35.754,0.052 72.146,-0.455 107.828,-0.876c1.103,-0.013 1.989,-0.92 1.976,-2.023c-0.013,-1.104 -0.92,-1.99 -2.024,-1.977Z"/><path d="M525.836,242.501l18.009,-5.972l-17.991,-6.028l-0.018,12Z"/><path d="M529.448,234.507c-25.68,-0.04 -51.421,-0.077 -77.318,-0.064c-37.744,0.02 -75.583,0.102 -113.434,0.073c-1.104,-0 -2.001,0.895 -2.001,1.999c-0.001,1.104 0.894,2.001 1.998,2.001c37.853,0.029 75.694,-0.053 113.439,-0.073c25.894,-0.013 51.633,0.024 77.31,0.064c1.104,0.002 2.001,-0.893 2.003,-1.997c0.002,-1.104 -0.893,-2.001 -1.997,-2.003Z"/><path d="M658.609,409.364l-18.276,-5.097l11.562,15.043l6.714,-9.946Z"/><path d="M651.148,413.98c56.65,38.292 99.545,68.053 152.403,104.022c0.913,0.621 2.158,0.384 2.779,-0.528c0.621,-0.913 0.384,-2.158 -0.528,-2.779c-52.862,-35.972 -95.761,-65.734 -152.414,-104.029c-0.914,-0.618 -2.159,-0.377 -2.777,0.537c-0.618,0.915 -0.377,2.159 0.537,2.777Z"/><path d="M540.64,641.631l-18.063,5.807l17.935,6.192l0.128,-11.999Z"/><path d="M536.955,649.592c48.399,0.517 96.727,1.071 145.252,2.659c1.103,0.036 2.028,-0.831 2.064,-1.934c0.036,-1.103 -0.83,-2.028 -1.933,-2.064c-48.555,-1.589 -96.912,-2.143 -145.341,-2.661c-1.103,-0.012 -2.009,0.875 -2.021,1.978c-0.012,1.104 0.875,2.01 1.979,2.022Z"/></g></svg>