<?xml version="1.0" encoding="UTF-8" standalone="no"?>
<!-- Created with Inkscape (http://www.inkscape.org/) -->

<svg
   xmlns:dc="http://purl.org/dc/elements/1.1/"
   xmlns:cc="http://creativecommons.org/ns#"
   xmlns:rdf="http://www.w3.org/1999/02/22-rdf-syntax-ns#"
   xmlns:svg="http://www.w3.org/2000/svg"
   xmlns="http://www.w3.org/2000/svg"
   xmlns:sodipodi="http://sodipodi.sourceforge.net/DTD/sodipodi-0.dtd"
   xmlns:inkscape="http://www.inkscape.org/namespaces/inkscape"
   id="svg3390"
   version="1.1"
   inkscape:version="0.91 r13725"
   width="392.78137"
   height="398.08646"
   viewBox="0 0 392.78137 398.08646"
   sodipodi:docname="Motor_homunculus.svg">
  <metadata
     id="metadata3396">
    <rdf:RDF>
      <cc:Work
         rdf:about="">
        <dc:format>image/svg+xml</dc:format>
        <dc:type
           rdf:resource="http://purl.org/dc/dcmitype/StillImage" />
        <dc:title></dc:title>
      </cc:Work>
    </rdf:RDF>
  </metadata>
  <defs
     id="defs3394" />
  <sodipodi:namedview
     pagecolor="#ffffff"
     bordercolor="#666666"
     borderopacity="1"
     objecttolerance="10"
     gridtolerance="10"
     guidetolerance="10"
     inkscape:pageopacity="0"
     inkscape:pageshadow="2"
     inkscape:window-width="1231"
     inkscape:window-height="1000"
     id="namedview3392"
     showgrid="false"
     fit-margin-top="0"
     fit-margin-left="0"
     fit-margin-right="0"
     fit-margin-bottom="0"
     inkscape:zoom="1.3965674"
     inkscape:cx="221.89396"
     inkscape:cy="196.71877"
     inkscape:window-x="49"
     inkscape:window-y="24"
     inkscape:window-maximized="1"
     inkscape:current-layer="svg3390" />
  <path
     style="fill:#000000"
     d="m 207.55632,397.14432 c 0,-0.53496 1.67304,-4.35996 3.71786,-8.5 2.04483,-4.14003 3.93302,-8.31568 4.19597,-9.27921 0.42944,-1.57354 0.32321,-1.66897 -1.04355,-0.9375 -3.42441,1.83268 -3.20388,0.11656 0.53014,-4.12551 4.17696,-4.74527 4.98152,-8.27427 3.51029,-15.39696 -1.46476,-7.09134 -5.23551,-18.58296 -7.70324,-23.47616 -2.68394,-5.3219 -8.56892,-11.22759 -13.15359,-13.19986 -3.85002,-1.65624 -8.91555,-1.76938 -13.86638,-0.30972 -2.3363,0.68881 -2.18915,-0.98101 0.18164,-2.06121 1.31984,-0.60137 1.65237,-1.11283 1.13151,-1.74043 -1.03898,-1.25189 -0.14712,-1.87578 2.68146,-1.87578 2.69225,0 16.02845,6.43111 19.06789,9.19511 4.26792,3.88114 9.76594,15.59411 12.46038,26.54555 1.61032,6.54509 3.43748,10.19229 5.9215,11.81988 7.02474,4.60278 21.7978,2.85572 37.67282,-4.4552 7.0022,-3.22471 7.89902,-4.86654 5.47973,-10.03185 -0.94274,-2.01277 -1.5705,-4.09027 -1.39503,-4.61667 0.51936,-1.55812 3.52211,2.21769 4.94127,6.21344 0.96555,2.71857 1.56691,3.47529 2.5211,3.17244 6.03284,-1.91475 17.49251,-2.29044 31.74113,-1.04058 13.2025,1.15809 20.46836,3.99309 25.80157,10.06727 3.03188,3.45313 3.62555,4.97502 4.29021,10.99816 0.28874,2.6166 0.80742,5.51803 1.15261,6.44764 0.68301,1.83932 -1.83813,15.73565 -3.08017,16.97769 -1.38047,1.38047 -1.5481,-1.49999 -0.40387,-6.93949 1.34448,-6.39143 1.46915,-10.73099 0.34072,-11.85942 -0.56076,-0.56076 -1.71004,-0.57657 -3.77694,-0.0519 -1.63399,0.41475 -3.17562,0.54936 -3.42584,0.29915 -0.63641,-0.63641 1.23237,-2.74119 2.43382,-2.74119 0.54524,0 1.90047,-0.782 3.01163,-1.73777 1.91499,-1.64721 1.97165,-1.88506 1.08742,-4.56433 -1.8746,-5.6801 -8.63355,-10.87125 -17.13515,-13.1605 -9.36124,-2.52072 -35.63931,-2.33779 -40.527,0.28213 -2.46041,1.31884 -16.32131,6.35214 -24.84904,9.02342 -3.49917,1.0961 -9.67535,2.45788 -13.72485,3.02616 -13.0457,1.83077 -15.9048,4.1975 -23.41302,19.3811 -4.05311,8.19643 -6.375,11.34771 -6.375,8.65213 z M 35.594903,383.97635 C 34.657418,379.2417 33.458574,366.6772 33.686915,363.97964 l 0.244405,-2.88733 1.946584,1.53809 1.946583,1.53809 3.074028,-1.52091 c 1.690716,-0.8365 3.852253,-1.40028 4.803417,-1.25285 1.508487,0.23382 1.235877,0.5789 -2.134212,2.70152 -5.766878,3.63221 -6.347712,4.88986 -6.133491,13.28051 0.109464,4.28747 -0.136494,7.42381 -0.620119,7.90743 -0.56872,0.56872 -0.922858,0.18884 -1.219207,-1.30784 z M 299.25468,349.91952 c -0.34608,-1.32342 -0.78041,-1.49241 -2.74229,-1.06695 -1.28208,0.27803 -3.5967,0.69258 -5.14357,0.92121 -4.47877,0.66199 -3.60539,-1.52123 1.75054,-4.37592 3.02873,-1.61429 7.46246,-5.30738 13.18581,-10.98316 4.74253,-4.7031 8.80988,-8.364 9.03856,-8.13531 0.80126,0.80126 -2.29732,4.64457 -8.95876,11.11197 l -6.72015,6.52437 0.87547,2.65268 c 1.10582,3.35067 1.64964,3.66427 4.83107,2.78584 2.43567,-0.67253 17.27402,-9.4902 20.12246,-11.95776 1.53727,-1.33171 1.70141,-2.39462 0.375,-2.42836 -0.51563,-0.0131 -1.59782,-0.52316 -2.40486,-1.13342 -1.44015,-1.089 -1.43348,-1.13375 0.35975,-2.41365 1.00491,-0.71724 2.50628,-1.48741 3.33636,-1.71148 0.83009,-0.22407 1.86516,-1.06782 2.30015,-1.875 0.435,-0.80718 2.15306,-2.85677 3.81791,-4.55465 4.47287,-4.56161 6.15655,-12.3154 4.58182,-21.10045 -0.72609,-4.05075 0.56886,-4.27137 2.2011,-0.375 0.85945,2.05162 1.06926,4.2328 0.77556,8.0625 -1.2656,16.50262 -11.77731,30.24731 -30.31786,39.64238 -5.06414,2.56616 -10.6471,2.76945 -11.26407,0.41016 z M 29.817241,343.24198 c 0.0029,-1.44375 0.527197,-4.3125 1.165052,-6.375 0.802938,-2.5963 1.122045,-6.40352 1.037225,-12.375 -0.15468,-10.88976 -0.127887,-11.23409 0.756628,-9.72376 0.370817,0.63318 0.913842,6.08019 1.206722,12.10448 l 0.53251,10.95324 4.582971,1.19338 c 2.520634,0.65637 5.511096,1.40531 6.645471,1.66434 1.134375,0.25901 2.0625,0.7491 2.0625,1.08908 0,1.26929 -2.752382,1.40767 -6.75,0.33938 -6.431092,-1.7186 -8.039554,-1.50145 -9.75822,1.31736 l -1.486173,2.4375 0.0053,-2.625 z m 223.489079,1.03471 c 0,-0.86971 4.93019,-4.55217 5.29794,-3.95714 0.52879,0.85559 7.75428,-3.75305 13.82706,-8.81934 2.475,-2.06479 5.91995,-5.75196 7.65546,-8.1937 4.73054,-6.65556 13.39169,-24.53787 15.59076,-32.18953 2.35861,-8.20675 3.34101,-15.90371 1.91759,-15.02399 -0.97142,0.60037 -0.79124,-0.43169 0.83232,-4.76753 0.83594,-2.23242 1.11885,-1.95711 1.99474,1.94118 0.51209,2.27915 0.46798,3.01857 -0.16559,2.77545 -0.56996,-0.21872 -1.1582,1.77791 -1.72988,5.87174 -0.47643,3.41173 -1.74327,8.90315 -2.8152,12.20315 -2.1462,6.60718 -10.49317,23.73652 -13.92722,28.58092 -3.25263,4.58848 -11.58518,12.09383 -17.96482,16.1814 -3.10098,1.98686 -5.16003,3.61252 -4.57566,3.61258 0.58437,5e-5 0.91224,0.15036 0.7286,0.334 -0.47304,0.47304 -6.6661,1.8209 -6.6661,1.45081 z m 40.25,-3.78471 c -1.26535,-1.26534 -0.1585,-3.08046 3.31592,-5.43777 2.07749,-1.40952 6.35874,-5.03765 9.51389,-8.0625 5.97331,-5.72664 7.67019,-6.59139 7.67019,-3.90882 0,1.97897 -10.14183,12.26945 -15.33434,15.55909 -3.92337,2.48561 -4.37008,2.64558 -5.16566,1.85 z m -11,-6.7974 c 0,-0.95721 3.88571,-5.45725 4.42465,-5.12417 0.65584,0.40532 5.61248,-4.64758 8.415,-8.57843 2.57236,-3.60803 6.66035,-11.03707 6.66035,-12.10377 0,-0.48207 0.8806,-2.73791 1.95688,-5.01299 1.07628,-2.27507 2.24441,-5.85139 2.59584,-7.94737 0.81357,-4.85227 4.15159,-17.23196 5.14872,-19.09514 0.41808,-0.78118 0.96726,-6.264 1.22042,-12.18404 0.25315,-5.92005 0.61966,-11.02162 0.81446,-11.33682 0.19481,-0.31519 0.1186,-2.96395 -0.16934,-5.88613 -0.3309,-3.35807 -0.75728,-4.9443 -1.15877,-4.3109 -0.77666,1.22527 -0.76235,-2.59845 0.0201,-5.37284 l 0.52881,-1.875 0.81972,2.25 c 0.45084,1.2375 1.08034,2.89599 1.39889,3.68553 0.37861,0.93846 0.30528,1.26627 -0.21179,0.94669 -0.53642,-0.33152 -0.75846,1.86151 -0.68996,6.81448 0.15098,10.91722 -0.91411,25.35152 -2.10386,28.51179 -0.57801,1.53533 -1.45985,4.64776 -1.95964,6.91651 -0.49979,2.26875 -1.23219,4.75056 -1.62754,5.51514 -0.39536,0.76457 -0.99342,3.33273 -1.32902,5.70701 -0.3356,2.37429 -1.48628,6.16878 -2.55706,8.43223 -1.07078,2.26345 -1.94688,4.5449 -1.94688,5.06988 0,2.14314 -9.23328,15.95738 -12.97884,19.41808 -1.05204,0.97203 -1.76912,2.15329 -1.59352,2.625 0.17561,0.47171 -1.03002,1.42322 -2.67917,2.11447 -1.64914,0.69123 -2.99845,1.06059 -2.99845,0.82079 z m 36.49491,-2.25858 c -1.93307,-3.12778 -0.53705,-13.56573 2.78478,-20.82157 2.04878,-4.47512 7.15215,-10.41084 10.39093,-12.08568 3.326,-1.71995 3.9377,-0.38789 0.79976,1.74157 -1.55149,1.05288 -3.26714,2.46159 -3.81254,3.13049 -5.56066,6.81968 -9.53629,17.4867 -8.90518,23.89354 0.347,3.52263 -0.30778,5.67874 -1.25775,4.14165 z m -49.74006,-9.81943 c -7.39658,-5.85925 -7.0326,-7.48202 0.44372,-1.97826 2.53748,1.86798 4.41094,3.72423 4.16325,4.125 -0.63084,1.02071 -0.57648,1.04604 -4.60697,-2.14674 z m 32.75867,-4.65108 c 0.8492,-1.66457 1.85712,-2.83297 2.23984,-2.59643 0.868,0.53645 4.71068,-4.6668 7.47904,-10.12708 2.92763,-5.77446 5.83583,-15.38657 7.17703,-23.72132 1.89598,-11.78242 1.3833,-35.45956 -1.04945,-48.46618 -0.36647,-1.95938 -0.43079,-3.5625 -0.14291,-3.5625 0.82903,0 2.23701,10.64488 2.99559,22.64783 1.59586,25.2513 -2.49815,45.65038 -11.96507,59.61782 -2.0286,2.99299 -3.28635,5.5131 -2.82781,5.66594 0.69655,0.23219 -4.07432,3.56841 -5.10289,3.56841 -0.19105,0 0.34742,-1.36192 1.19663,-3.02649 z m 13.91555,-1.38602 c -1.1349,-1.83631 4.32047,-20.64297 5.83261,-20.1071 2.0811,0.73751 -0.76733,15.77996 -3.61498,19.09056 -1.1725,1.3631 -1.82,1.65992 -2.21763,1.01654 z M 29.540878,294.40794 c -0.266507,-2.54979 -0.460837,-13.27711 -0.431844,-23.83848 0.04805,-17.50375 0.481632,-23.31558 1.596711,-21.4027 0.224498,0.38512 0.535843,11.63957 0.691877,25.00989 0.201829,17.29449 0.04478,24.39014 -0.544244,24.58848 -0.513228,0.17283 -1.012131,-1.48341 -1.3125,-4.35719 z m 252.034792,3.13018 c -3.92546,-1.83161 -5.07012,-3.04614 -2.87089,-3.04614 2.11396,0 9.10154,2.94992 9.10154,3.84235 0,1.05027 -3.13075,0.65019 -6.23065,-0.79621 z m 73.19087,-3.48785 c -5.33523,-1.14827 -14.25811,-4.77819 -17.60668,-7.16258 -1.25029,-0.89029 -2.73976,-2.73521 -3.30994,-4.09985 -1.31185,-3.13971 -2.34113,-15.77699 -2.92566,-35.92086 -0.69948,-24.10534 -1.10436,-26.25335 -7.84596,-41.625 -1.35684,-3.09375 -3.0981,-6.52085 -3.86948,-7.61578 -1.86367,-2.64538 -1.86144,-4.63096 0.005,-4.03873 1.02994,0.32689 1.53566,-0.0113 1.88699,-1.26196 0.64281,-2.28823 1.5767,-0.66597 2.25462,3.91647 0.2746,1.85625 1.97633,7.25625 3.78161,12 4.96483,13.04611 5.69353,17.72013 6.43111,41.25 0.67102,21.40642 1.62096,30.69955 3.42779,33.53349 1.23652,1.93941 10.025,6.30295 16.34297,8.11438 7.93769,2.27584 14.6132,-0.33549 17.7124,-6.92874 1.75123,-3.72558 1.54201,-5.40388 -0.74831,-6.00281 -2.32853,-0.60892 -1.85982,-4.02527 1.16994,-8.52748 l 2.66616,-3.96189 -1.91616,-4.26976 c -2.20421,-4.91171 -2.25797,-5.20719 -0.94736,-5.20719 0.53282,0 1.88471,1.86757 3.00418,4.15014 2.35046,4.79249 3.41988,5.44609 6.06991,3.70972 l 1.91404,-1.25412 -1.5401,-3.01885 c -0.84706,-1.66037 -4.51068,-7.61853 -8.14138,-13.24037 l -6.60127,-10.22152 -0.50382,-7.26481 c -0.62781,-9.05257 0.0152,-11.53711 4.93705,-19.07663 4.43275,-6.79029 13.31945,-16.03356 15.41504,-16.03356 1.78192,0 3.22759,-1.39109 3.22759,-3.10574 0,-2.02571 -1.16045,-2.28192 -4.06407,-0.89727 -3.45789,1.64895 -4.38049,0.68983 -1.53162,-1.59225 l 2.22069,-1.77886 -1.38772,-2.36851 c -1.19784,-2.04441 -1.31513,-3.28575 -0.85716,-9.07197 0.71989,-9.09572 0.0436,-10.14698 -6.91915,-10.75541 -9.45189,-0.82595 -20.07888,-2.00484 -21.30081,-2.363 -0.8743,-0.25626 -1.34208,0.28011 -1.66875,1.91346 -0.68009,3.40045 -1.99141,2.733 -1.99141,-1.01362 0,-4.72881 -0.92102,-5.20388 -9.37228,-4.83425 -5.4192,0.23702 -7.12772,0.0839 -7.12772,-0.63903 0,-0.52293 0.87358,-2.90103 1.94128,-5.28467 1.0677,-2.38363 2.25454,-5.17763 2.63741,-6.20888 l 0.69614,-1.875 -1.46112,1.86379 c -1.86916,2.38429 -2.80065,1.49744 -1.56371,-1.48879 0.52355,-1.26395 0.79095,-2.45906 0.59422,-2.65577 -0.59856,-0.59856 -5.09422,4.08874 -5.09422,5.31138 0,0.62842 -0.52698,2.39735 -1.17106,3.93098 -0.96061,2.28728 -1.29466,2.56969 -1.85883,1.5714 -0.80436,-1.42333 0.90426,-8.74245 2.7836,-11.92393 0.67152,-1.13677 1.02344,-2.58152 0.78206,-3.21055 -0.24138,-0.62902 -2.96141,-2.39039 -6.04451,-3.91414 -5.1425,-2.54156 -5.82369,-2.69849 -8.24474,-1.89947 -3.50026,1.15518 -11.71979,6.50505 -11.84755,7.71124 -0.0556,0.52463 -0.13995,1.87434 -0.1875,2.99937 -0.13135,3.10717 -1.45072,2.60671 -2.73414,-1.03711 -0.96876,-2.75043 -1.60876,-3.41011 -4.1053,-4.23151 -1.62669,-0.53522 -3.47274,-1.42067 -4.10233,-1.96769 -0.62958,-0.54701 -2.37765,-1.39012 -3.88458,-1.87358 -2.85829,-0.917 -6.63512,-3.91952 -6.63512,-5.27481 0,-1.28442 1.5812,-0.90171 4.05421,0.98127 1.27643,0.97191 3.16454,2.02798 4.19579,2.34685 1.03125,0.31886 3.76837,1.55829 6.0825,2.75427 4.80965,2.48572 5.46736,2.38066 12.73537,-2.03443 3.34083,-2.02945 5.05439,-2.58377 7.98711,-2.58377 4.77481,0 13.22103,3.83914 18.94502,8.61127 2.49948,2.08384 4.64221,3.30903 5.4375,3.10911 0.91447,-0.22989 1.3125,0.11408 1.3125,1.13421 0,0.80529 1.57128,4.69411 3.49173,8.64183 2.82421,5.8055 3.93697,7.3637 5.8207,8.15077 3.25569,1.36031 12.89847,2.60281 20.19996,2.60281 6.84773,0 8.70666,0.80395 10.20106,4.41177 0.70253,1.69605 0.72698,3.46677 0.10337,7.48603 -1.14144,7.35675 -1.22186,7.03815 2.92046,11.57049 l 3.73727,4.08918 -1.05391,3.28377 c -0.57964,1.80607 -1.24907,4.46869 -1.48761,5.91693 -0.38441,2.33379 -1.09452,3.02674 -6.24587,6.09482 -3.19669,1.90391 -6.65591,3.71341 -7.68716,4.02112 -2.73478,0.81602 -3.66059,1.74931 -5.67116,5.71698 -2.33451,4.60693 -2.97532,10.3618 -1.87813,16.8667 1.49334,8.85349 5.13635,13.5107 11.20523,14.32471 1.83789,0.24652 3.38974,0.92688 3.72376,1.63258 0.45471,0.96069 0.60549,13.31225 0.20786,17.02822 -0.0482,0.45007 -1.85943,1.76481 -4.02506,2.92166 -6.99248,3.73528 -7.43555,4.59929 -5.69525,11.10606 1.14122,4.26688 0.5321,6.33009 -3.08045,10.43416 -4.86907,5.53156 -9.14889,6.94792 -16.32658,5.40311 z m 26.93978,-40.20829 c -0.495,-0.495 -0.91123,-1.42313 -0.92495,-2.0625 -0.0647,-3.01279 -4.47505,-5.6499 -4.47505,-2.67578 0,1.53291 3.70737,5.63828 5.09167,5.63828 0.93982,0 1.00833,-0.2 0.30833,-0.9 z m -0.9,-50.5433 c 0,-0.58931 0.46834,-0.8299 1.125,-0.57792 0.78064,0.29955 1.125,-0.052 1.125,-1.14854 0,-2.23604 -2.65573,-2.0529 -4.19018,0.28897 -1.50631,2.29893 -0.89528,4.80034 0.82405,3.37342 0.61387,-0.50946 1.11613,-1.38063 1.11613,-1.93593 z m 5.49325,-5.2546 c -0.22205,-0.57866 -1.04262,-1.0521 -1.82349,-1.0521 -1.6286,0 -1.92628,2.19348 -0.49229,3.62747 0.73664,0.73664 1.11185,0.67534 1.82349,-0.2979 0.4928,-0.67395 0.71434,-1.69881 0.49229,-2.27747 z m 1.32708,-2.03177 c -0.59378,-0.59378 -0.82033,-0.39917 -0.82033,0.70467 0,1.98281 1.04884,3.03528 1.38283,1.38762 0.14182,-0.69957 -0.11131,-1.6411 -0.5625,-2.09229 z m -42.93711,-40.93229 c 0.83217,-0.52741 0.79607,-1.04927 -0.20676,-2.98852 -1.60527,-3.10425 -2.26072,-3.041 -5.27164,0.50877 -1.2543,1.47877 -1.30937,1.835 -0.375,2.42601 1.3728,0.86833 4.52248,0.89725 5.8534,0.0538 z M 321.0742,288.3712 c 2.29643,-15.24916 2.70476,-19.47857 2.71754,-28.14746 0.0149,-10.10784 0.48418,-11.77058 2.78353,-9.86228 1.05478,0.87538 1.14033,2.52603 0.69336,13.37706 -0.28044,6.80815 -1.08981,15.75346 -1.7986,19.87846 -1.18752,6.91109 -1.42994,7.51997 -3.0873,7.75422 -1.72173,0.24336 -1.77764,0.11516 -1.30853,-3 z m -27.83505,-20.62749 c -1.91359,-0.77148 0.011,-1.75148 3.42393,-1.74347 4.85771,0.0114 9.19458,0.80191 8.70909,1.58746 -0.42324,0.6848 -10.5,0.81438 -12.13302,0.15601 z m 76.02241,-14.18807 c -0.25039,-0.65249 -0.45524,-1.70631 -0.45524,-2.34183 0,-0.94207 0.2078,-0.98304 1.125,-0.22183 1.21649,1.00959 1.54916,3.75 0.45524,3.75 -0.36837,0 -0.87462,-0.53385 -1.125,-1.18634 z m -10.68903,-4.58334 c -2.10285,-5.03284 -3.62422,-14.42889 -3.31607,-20.48032 0.16026,-3.14734 1.27865,-0.23486 2.304,6 0.50878,3.09375 1.55538,7.65 2.32578,10.125 0.7704,2.475 1.40508,5.09063 1.4104,5.8125 0.0167,2.256 -1.51496,1.43672 -2.72411,-1.45718 z m -34.99028,-2.9544 c -0.28926,-0.28925 -0.52701,-3.25404 -0.52832,-6.58842 -0.005,-11.8206 -3.12894,-24.24143 -10.51356,-41.79779 -3.89645,-9.2635 -4.47857,-11.88971 -2.63544,-11.88971 1.39498,0 1.73382,0.65746 7.02398,13.62872 6.58605,16.14874 9.79043,30.13992 9.58688,41.85881 -0.0651,3.74747 -0.35084,4.91434 -1.24604,5.08843 -0.63887,0.12424 -1.39824,-0.0108 -1.6875,-0.30004 z m 27.81358,-2.54124 c -1.49329,-2.37214 -3.13121,-9.39273 -2.5467,-10.91593 0.81359,-2.12019 1.84611,-0.35814 3.10447,5.29791 1.41235,6.34829 1.2066,8.42075 -0.55776,5.61802 z m -9.88427,-14.67102 c -0.68622,-1.78828 -0.53682,-9.61907 0.32747,-17.16393 0.93426,-8.1555 1.40122,-10.14973 2.37666,-10.14973 0.46899,0 0.58437,2.16205 0.31021,5.8125 -0.2401,3.19687 -0.64962,9.60937 -0.91003,14.25 -0.44542,7.93731 -1.04637,10.0081 -2.10431,7.25116 z m 6.62346,-2.23595 c -0.28225,-1.88225 -0.28411,-5.84788 -0.004,-8.8125 0.57885,-6.12899 3.74172,-22.52686 4.9663,-25.74767 0.69934,-1.83939 0.91414,-1.96469 1.51805,-0.88559 0.47332,0.84577 0.19706,3.42187 -0.84453,7.875 -2.17646,9.30504 -3.70478,19.98712 -3.70997,25.93055 -0.005,5.76922 -1.15913,6.7522 -1.92572,1.64021 z m -33.24266,-6.90127 c -1.39643,-4.42829 -2.87075,-9.23269 -3.27627,-10.67644 -1.43317,-5.10245 -9.05493,-20.31586 -9.6826,-19.32694 -0.44885,0.70718 -0.60715,0.63857 -0.61569,-0.26681 -0.006,-0.67031 -0.20751,-2.35781 -0.44709,-3.75 l -0.43562,-2.53125 2.38625,2.53399 c 1.32098,1.40275 2.05701,2.74203 1.64874,3 -0.42837,0.27067 0.97474,4.08133 3.34737,9.09101 2.24669,4.74375 4.55689,10.41925 5.13379,12.61223 0.5769,2.19299 1.9246,6.52436 2.99489,9.62528 1.0703,3.10093 1.84232,6.11107 1.71559,6.68922 -0.12672,0.57813 -1.37293,-2.57199 -2.76936,-7.00029 z m 39.39357,4.55317 c -1.07711,-1.0771 -0.32424,-5.81713 2.49184,-15.68856 3.58371,-12.56224 4.94629,-16.16166 9.71698,-25.66836 2.01904,-4.0234 4.05586,-8.74462 4.52627,-10.4916 1.00653,-3.73797 1.95934,-3.53004 2.65357,0.5791 0.28442,1.68347 1.36007,3.82462 2.50276,4.98193 l 2.00397,2.0296 -3.22111,-0.41901 c -3.08002,-0.40064 -3.30423,-0.29337 -5.11926,2.44932 -4.48298,6.77424 -12.50566,29.43488 -13.5536,38.28315 -0.43699,3.68974 -1.04932,4.89653 -2.00142,3.94443 z m -61.22961,-6.16471 c 0,-1.01627 2.72661,-2.13353 6.79403,-2.78394 3.44413,-0.55074 4.01139,0.62229 0.89347,1.84758 -3.49726,1.37436 -7.6875,1.88475 -7.6875,0.93636 z M 12.243193,206.09075 c -1.203469,-0.26057 -2.3389322,-0.92703 -2.5232522,-1.48103 -0.263093,-0.79075 0.8520492,-0.975 5.1881272,-0.85719 9.644725,0.26203 10.252575,0.15901 11.65064,-1.97471 1.135034,-1.73228 1.262905,-3.92331 1.08314,-18.55916 -0.112106,-9.12723 -0.270738,-16.66189 -0.352515,-16.74367 -0.08178,-0.0818 -1.612729,0.18027 -3.402115,0.58231 -3.36638,0.75638 -6.405084,0.31599 -5.699307,-0.82599 0.221854,-0.35896 1.893859,-0.87618 3.715565,-1.14936 5.55168,-0.83252 5.764367,-1.40788 6.140366,-16.6109 0.310632,-12.56005 1.045177,-16.47315 2.216325,-11.80694 0.280043,1.11578 0.321525,5.83873 0.09218,10.49543 -0.365884,7.42913 -0.256808,8.6117 0.890047,9.64959 0.718869,0.65057 2.124209,1.18746 3.122979,1.19309 2.595889,0.0146 5.190944,0.80313 5.190944,1.57723 0,0.36439 -1.998137,0.66253 -4.440304,0.66253 l -4.440305,0 -0.531839,4.96624 c -0.292512,2.73144 -0.377586,12.20991 -0.189053,21.06329 0.273111,12.82506 0.559644,16.2343 1.409645,16.77227 0.58677,0.37138 3.879356,0.6804 7.316856,0.68672 4.618924,0.008 6.169504,0.25296 5.941554,0.93681 -0.53559,1.60677 -6.538442,2.31299 -11.816554,1.39018 -3.410294,-0.59624 -5.6622,-0.62146 -7.495048,-0.0839 -2.81815,0.82651 -9.514633,0.88655 -13.068079,0.11718 z m 361.063127,-9.3046 c 0,-1.28939 5.1742,-6.11997 5.84104,-5.45314 0.58159,0.5816 -2.10679,4.11248 -4.1786,5.48811 -1.47132,0.97692 -1.66244,0.9729 -1.66244,-0.035 z m -87,-10.92378 c 0,-1.17926 12.043,-6.12039 14.91721,-6.12039 2.86128,0 1.22229,1.06477 -6.25046,4.06063 -6.84243,2.74317 -8.66675,3.17673 -8.66675,2.05976 z m 38.67857,-2.04896 c -0.64822,-0.64821 -1.17857,-1.42776 -1.17857,-1.73233 0,-0.30456 -1.51875,-2.33302 -3.375,-4.50767 -3.72167,-4.36005 -4.23537,-6.84723 -1.83695,-8.89393 0.84594,-0.72187 2.53123,-2.27396 3.74511,-3.44908 2.45515,-2.37675 3.29007,-1.71101 2.83527,2.26073 -0.20552,1.79474 -0.65229,2.18426 -2.86843,2.50085 -3.21039,0.45863 -4.05843,3.09031 -1.49891,4.65152 0.87779,0.53541 2.75483,2.57661 4.1712,4.53598 2.67366,3.69869 3.84231,4.1906 6.30378,2.65339 2.1838,-1.36381 2.91552,0.0721 0.87834,1.72367 -2.14585,1.73967 -5.57045,1.86226 -7.17584,0.25687 z m -19.47149,-2.00893 c -2.58593,-4.04988 -3.4184,-11.30417 -1.1353,-9.89314 1.20932,0.7474 4.4123,7.9151 4.42089,9.89314 0.005,0.9916 -0.44947,1.6875 -1.10038,1.6875 -0.60924,0 -1.59258,-0.75937 -2.18521,-1.6875 z m 21.38835,-2.63419 c -0.41568,-0.7767 -2.13998,-2.37144 -3.83179,-3.54386 -3.15555,-2.1868 -3.7313,-4.27848 -1.30624,-4.74551 1.1822,-0.22767 3.6341,1.32136 7.52622,4.75479 1.62834,1.43644 1.39743,4.36953 -0.37052,4.70635 -0.69404,0.13223 -1.60199,-0.39507 -2.01767,-1.17177 z m 51.65457,-3.51802 c 0,-1.5058 1.61279,-4.91029 2.32612,-4.91029 1.0507,0 1.21539,1.08181 0.54233,3.5625 -0.65475,2.41321 -2.86845,3.45335 -2.86845,1.34779 z m -80.56313,-11.8875 c -2.5722,-3.37233 -7.33968,-13.81083 -7.02646,-15.3846 0.21036,-1.05699 0.58838,-0.92877 2.31581,0.78554 2.01904,2.00369 8.02378,13.45735 8.02378,15.30484 0,2.00215 -1.48973,1.68481 -3.31313,-0.70578 z m -14.53162,0.0398 c 0.33603,-1.12407 7.90372,-5.00432 9.82651,-5.03843 2.20696,-0.0392 0.70706,1.35902 -4.01501,3.74271 -4.80698,2.42656 -6.24542,2.74727 -5.8115,1.29572 z m -7.9683,-13.21227 c -0.51467,-0.83274 1.26943,-2.36326 5.78443,-4.96227 3.38391,-1.9479 4.99579,-2.15514 3.9801,-0.5117 -0.47912,0.77519 -8.31516,6.1237 -8.97182,6.1237 -0.21512,0 -0.57184,-0.2924 -0.79271,-0.64976 z m 11.65713,-6.75615 c -1.88728,-1.88728 -2.81784,-5.17032 -1.76416,-6.224 1.00732,-1.00732 3.70631,1.64205 4.37109,4.29075 0.7076,2.81933 -0.68679,3.85339 -2.60693,1.93325 z m -18.84408,-2.95385 c 0,-1.37418 8.13782,-7.62855 9.9375,-7.63751 1.61891,-0.008 0.0547,1.7838 -4.22024,4.83429 -4.86322,3.47033 -5.71726,3.88907 -5.71726,2.80322 z m 11.59091,-7.98123 c -2.21101,-2.211 -2.46226,-4.90909 -0.45715,-4.90909 1.54544,0 3.64779,2.02803 3.88741,3.75 0.48672,3.49764 -0.69306,3.89629 -3.43026,1.15909 z m -18.67027,-1.98957 c 1.98057,-2.22941 8.55375,-7.41952 9.39671,-7.41952 2.80931,0 -4.28049,6.38743 -9.39671,8.46581 -1.43915,0.58463 -1.43915,0.57368 0,-1.04629 z m 10.49959,-8.53034 c -3.51988,-4.12006 -4.1349,-6.78789 -1.44247,-6.25711 1.57315,0.31012 6.82178,6.52555 7.14891,8.46574 0.50412,2.98991 -2.13924,1.96682 -5.70644,-2.20863 z m -21.42023,-1.06393 c 0,-0.80193 7.78326,-8.02269 9.82617,-9.11602 2.72998,-1.46104 1.39009,0.58541 -3.38626,5.17189 -4.51895,4.33932 -6.43991,5.51582 -6.43991,3.94413 z m 28.28934,-3.22588 c -4.87975,-5.19758 -7.13608,-8.56325 -11.2839,-16.83167 -3.25754,-6.493707 -6.23126,-10.017697 -8.45345,-10.017697 -3.53442,0 -9.76932,-3.602295 -17.62828,-10.18497 -13.22319,-11.07576 -67.13196,-43.018251 -79.04871,-46.838619 -2.8875,-0.925698 -6.56976,-2.346064 -8.18281,-3.156368 -3.41058,-1.713289 -6.42459,-1.464466 -13.78045,1.137653 l -4.71326,1.667304 -3.14638,-1.808968 c -2.56917,-1.477101 -4.86911,-1.947532 -12.53675,-2.564266 -8.38537,-0.674464 -10.41066,-0.581197 -18.92394,0.871468 -5.24347,0.894721 -11.88542,1.626766 -14.759885,1.626766 -4.906988,0 -5.781862,-0.280157 -14.319765,-4.585544 C 63.406802,23.1649 62.262221,22.792046 56.561005,22.436361 50.669692,22.068814 50.28943,22.142674 47.953489,24.108238 44.631724,26.90332 41.2811,31.926884 39.029372,37.4881 c -1.196395,2.9548 -3.304803,6.132826 -5.829805,8.787328 -5.289802,5.5611 -8.154097,11.52242 -14.690531,30.574692 l -2.138458,6.233146 1.830596,5.766857 c 1.006828,3.17177 2.18417,7.19211 2.616316,8.93407 0.534312,2.15379 1.558154,3.739257 3.199776,4.954987 3.82589,2.83332 7.199102,4.59275 7.7497,4.04216 0.278738,-0.27874 0.906734,-4.05674 1.395545,-8.395547 0.840331,-7.45899 1.369696,-9.41792 2.294972,-8.49265 0.4923,0.4923 0.540623,30.657057 0.0499,31.147777 -0.87586,0.87586 -1.951061,-0.86813 -1.951061,-3.16463 0,-1.38994 -0.520346,-3.04752 -1.156325,-3.68349 -1.041766,-1.04177 -1.567107,-1.00263 -5.302659,0.39501 -5.353325,2.00294 -8.390852,1.45684 -12.199571,-2.19328 -2.083005,-1.99628 -3.254741,-4.01467 -4.16568,-7.17568 -1.3541892,-4.69911 -5.7783942,-14.411987 -9.1208172,-20.023802 -2.7468355,-4.61184 -2.17468096,-6.495945 3.217185,-10.59417 5.7612302,-4.378965 7.7189022,-8.315197 8.5952322,-17.282169 0.944664,-9.666198 1.568459,-11.129165 7.450116,-17.472541 2.850384,-3.074146 5.182517,-5.724159 5.182517,-5.88892 0,-3.388152 2.920863,-13.812423 4.932223,-17.602618 1.412277,-2.661286 2.567777,-5.307535 2.567777,-5.880553 0,-1.7321233 2.726224,-6.4877843 4.862434,-8.4820943 3.374727,-3.150555 7.590324,-2.63691605 16.933749,2.063251 9.607187,4.832849 13.59784,5.6694 21.886142,4.58793 3.405975,-0.444415 10.748925,-0.823217 16.317675,-0.841781 11.44289,-0.03815 12.56867,0.272558 20.39036,5.6274923 2.73055,1.869409 6.26289,3.818885 7.84964,4.33217 1.58675,0.513285 4.28313,1.742303 5.99195,2.731152 2.98922,1.72978 3.23078,1.754242 6.375,0.645564 1.79743,-0.633788 6.64305,-1.665388 10.76805,-2.292443 8.05465,-1.224416 12.47889,-3.057204 24.29779,-10.0656113 8.18718,-4.854859 14.70336,-6.429858 26.32721,-6.363445 11.57975,0.06616 31.41342,3.734138 42.05448,7.7774243 4.99932,1.899591 15.58801,1.365823 19.44552,-0.9802353 2.33862,-1.422299 3.68869,-1.589963 12.375,-1.536838 5.3625,0.0328 11.60625,0.470334 13.875,0.972305 5.90913,1.307419 12.31135,6.0681903 16.093,11.9669443 4.12914,6.440786 13.98697,19.746607 18.09176,24.419755 4.9455,5.630264 5.78878,9.567104 5.72059,26.706366 -0.0117,2.944672 -4.07528,16.17001 -5.61555,18.27645 -1.13754,1.55569 -8.35632,2.6361 -17.9773,2.69062 l -5.8125,0.03293 0,6.77409 c 0,4.410487 -0.40404,7.741087 -1.15798,9.545517 -1.38008,3.30301 -7.77176,11.94903 -9.28051,12.55375 -0.65501,0.26253 -2.48797,-1.09101 -4.77217,-3.52399 z m 4.71066,0.32107 c 0,-3.51052 -13.13696,-20.972377 -14.66321,-19.490587 -1.30588,1.267847 5.36688,12.267327 11.15169,18.382647 2.60429,2.75308 3.51152,3.03932 3.51152,1.10794 z m 5.08236,-4.68114 c 0.93904,-1.38603 2.24489,-4.36911 2.90187,-6.62905 1.28594,-4.42347 0.77139,-10.159707 -1.66455,-18.556577 -2.12042,-7.30924 -8.70487,-15.70675 -14.6961,-18.742728 -1.97813,-1.002397 -4.15769,-2.748052 -4.84347,-3.87924 -0.68578,-1.131187 -2.37935,-3.768902 -3.76349,-5.861591 -1.38414,-2.092688 -2.51662,-4.460186 -2.51662,-5.261107 0,-3.630779 -6.29977,-11.760637 -13.72208,-17.708374 -3.06475,-2.455876 -4.15455,-2.422885 -2.8123,0.08514 0.46044,0.860328 0.57215,1.56389 0.24826,1.563471 -0.32388,-4.19e-4 -1.58328,-1.772294 -2.79866,-3.9375 -5.0452,-8.988005 -11.09715,-13.278315 -28.91522,-20.498398 l -7.125,-2.887129 -12.75,-0.307773 c -14.44347,-0.348651 -14.89556,-1.4832923 -0.62384,-1.5657273 9.27782,-0.05359 11.81902,-0.42789 11.07527,-1.631303 -0.52499,-0.849447 -0.64625,-0.864617 3.79857,0.475204 5.59018,1.6850723 14.11035,4.9585873 15.26021,5.8630923 0.82292,0.647325 0.75842,0.882976 -0.3479,1.271054 -1.02025,0.357882 0.1757,1.274381 4.80724,3.683977 4.18786,2.178761 9.31086,5.946367 15.97217,11.746418 5.39374,4.696365 10.44206,8.538844 11.21849,8.538844 1.06205,0 2.45979,2.1826 5.64348,8.8125 8.08112,16.828552 8.08918,16.841198 12.70787,19.954155 7.84108,5.2848 12.57334,11.184218 15.42816,19.233345 l 1.19703,3.375 10.56611,0 c 13.69337,0 13.80454,-0.0716 17.34282,-11.160983 2.36004,-7.396679 2.48279,-8.246392 1.61402,-11.172277 -1.04317,-3.513248 -5.56255,-8.324074 -11.14647,-11.865291 -4.2731,-2.709922 -4.98413,-2.71269 -6.09793,-0.02374 -1.36215,3.288515 -3.70885,4.013142 -8.44545,2.607828 -6.13101,-1.819026 -10.80217,-4.476902 -13.05197,-7.426535 -1.80351,-2.364521 -2.13716,-2.532349 -2.77358,-1.395121 -1.02662,1.834453 0.50985,7.881774 2.93278,11.543081 2.87689,4.347262 9.23415,8.232659 17.48277,10.685001 7.46536,2.219483 8.81951,2.833035 6.25265,2.833035 -0.85937,0 -1.68922,0.380153 -1.84409,0.844778 -0.18601,0.55803 -1.34271,0.303442 -3.40763,-0.75 -4.31498,-2.201341 -5.43578,-2.075364 -5.43578,0.610956 0,3.65124 -1.27622,3.271035 -1.78748,-0.532515 -0.46395,-3.451733 -0.6042,-3.614362 -5.15722,-5.98062 -2.57417,-1.33782 -5.66339,-2.784735 -6.86493,-3.21537 -1.61536,-0.57894 -1.96526,-1.002345 -1.34276,-1.624845 0.95263,-0.952627 -2.63465,-7.988802 -7.3899,-14.4947 -1.51447,-2.072025 -3.48137,-5.1939 -4.37089,-6.9375 -0.88952,-1.743599 -2.07664,-3.170182 -2.63805,-3.170182 -1.12637,0 -4.14681,-3.772615 -5.47606,-6.839762 -0.46831,-1.08062 -1.08691,-3.61187 -1.37466,-5.625 -0.32044,-2.241909 -1.20021,-4.386794 -2.2704,-5.535238 -0.96097,-1.03125 -2.46375,-3.495386 -3.3395,-5.475857 -1.78666,-4.040442 -4.08905,-5.423903 -7.11315,-4.274143 -2.24816,0.854746 -2.3963,2.295749 -0.4199,4.084366 0.80031,0.724266 2.5319,3.611892 3.84798,6.416946 1.40634,2.997415 3.1354,5.497479 4.19386,6.063951 0.99054,0.530117 4.59909,5.204174 8.01902,10.386793 8.37468,12.691159 8.86813,13.520675 8.57182,14.409621 -0.14121,0.423615 -2.36885,-2.38134 -4.95031,-6.233233 -7.6549,-11.422135 -7.97571,-11.839306 -8.86849,-11.532362 -1.25579,0.431754 -5.37402,-5.030601 -7.19973,-9.549616 -4.8524,-12.010713 -10.57047,-15.672618 -31.48917,-20.1659463 -6.29998,-1.353231 -10.23534,-1.664209 -21.58008,-1.705284 -9.42059,-0.03411 -15.15255,0.277983 -17.85443,0.972127 -2.18868,0.562299 -7.9059,3.386903 -12.70492,6.2768973 -9.66966,5.823113 -14.12528,7.61416 -20.81565,8.367365 -2.475,0.278637 -6.70882,1.190796 -9.40848,2.027019 l -4.90847,1.520406 -5.57037,-2.669525 c -3.0637,-1.468239 -5.93585,-2.669525 -6.38256,-2.669525 -0.44671,0 -2.96901,-1.51875 -5.60512,-3.375 -4.11104,-2.894844 -5.31866,-3.375 -8.4883,-3.375 -3.13239,0 -3.55873,-0.164639 -2.79848,-1.080686 1.84342,-2.2211893 -2.30885,-2.2180083 -29.21322,0.02238 -4.888433,0.40707 -6.275475,0.221484 -10.592543,-1.4172923 -2.732149,-1.037134 -6.275899,-2.699942 -7.875,-3.69513 -3.98207,-2.47821 -8.882165,-4.329272 -11.460363,-4.329272 -2.934551,0 -7.14371,4.753156 -8.624333,9.7389533 -0.625291,2.105584 -2.159442,5.92257 -3.409224,8.48219 -1.249782,2.559622 -2.577267,6.847607 -2.949966,9.528857 -0.872087,6.273903 -2.759932,10.157935 -5.812788,11.959163 -4.463846,2.633734 -6.39127,6.633168 -7.158551,14.854104 -0.799877,8.570173 -1.799436,11.965468 -5.010932,17.021068 -1.2959652,2.040135 -2.3563002,4.14951 -2.3563002,4.6875 0,0.53799 -0.3375,0.978165 -0.75,0.978165 -0.4125,0 -0.75,-0.3375 -0.75,-0.75 0,-1.145332 -1.597176,-0.89454 -3.128444,0.491242 -1.445779,1.308413 -1.944385,6.258758 -0.630391,6.258758 1.036281,0 9.5343952,17.778697 10.0911332,21.111407 0.533993,3.19657 3.35036,7.21108 4.15057,5.91631 0.368468,-0.59619 0.811108,-0.50343 1.487669,0.31178 1.222558,1.47309 2.279463,1.48955 2.279463,0.0355 0,-1.66279 2.818206,-1.36607 3.761242,0.39601 0.44771,0.83655 1.135497,1.32231 1.528417,1.07948 0.448687,-0.27731 0.434691,-0.96416 -0.03763,-1.8467 -1.042757,-1.94841 -0.941443,-2.48696 0.372972,-1.98257 2.379886,0.91325 0.964032,-1.55653 -2.993946,-5.22255 -2.380689,-2.20509 -4.131055,-4.467967 -4.131055,-5.340657 0,-0.83288 -0.987016,-4.94387 -2.193369,-9.13553 l -2.193369,-7.621215 3.364846,-9.163132 c 3.783462,-10.303107 8.881104,-21.438894 11.740191,-25.646418 1.04937,-1.544286 2.942993,-3.437244 4.208053,-4.206572 1.760355,-1.070536 2.415877,-2.122765 2.793452,-4.483987 0.289653,-1.811391 2.045953,-5.457393 4.253791,-8.830682 2.068244,-3.160011 4.532094,-7.432974 5.475221,-9.495474 1.424371,-3.114922 1.722092,-3.417688 1.75798,-1.787773 0.04306,1.955448 0.06866,1.963454 7.411877,2.317054 4.395376,0.211652 8.253892,0.807667 9.562502,1.477094 1.2066,0.617247 4.575008,2.348423 7.485345,3.847057 9.029273,4.649485 15.516668,5.171607 29.07002,2.339626 2.81133,-0.587432 6.18633,-1.079286 7.5,-1.09301 l 2.38846,-0.02495 -1.77059,-1.475048 c -2.24681,-1.871781 -1.48787,-1.857584 3.5755,0.06688 2.23019,0.847647 6.95519,1.88393 10.5,2.302852 4.60139,0.543791 7.15259,1.253743 8.91835,2.481821 l 2.47326,1.720145 4.48433,-1.811301 c 2.90113,-1.171819 6.74891,-1.971115 10.89867,-2.263967 5.82006,-0.410728 6.39145,-0.332105 6.1674,0.848631 -0.19281,1.016134 1.17225,1.838086 6.22925,3.750864 7.18342,2.717085 14.15237,6.353746 29.18817,15.2315 35.09895,20.723854 40.8118,24.367759 48.80634,31.130854 7.80756,6.604896 12.90888,9.566671 16.47752,9.566671 2.30893,0 2.36114,-0.0735 1.93173,-2.719615 -0.24688,-1.521383 -1.12716,-3.199988 -1.99796,-3.809918 -0.85614,-0.59967 -3.48608,-2.783573 -5.8443,-4.853115 -4.77349,-4.189163 -7.58612,-5.78277 -13.66267,-7.741148 -5.89288,-1.899187 -7.24475,-2.68815 -13.30912,-7.767381 -4.27069,-3.576924 -6.53467,-4.871053 -10.68262,-6.106368 -10.88879,-3.242819 -25.51077,-11.370703 -31.13326,-17.305959 -3.57486,-3.773723 -2.7036,-3.346941 5.25,2.571673 6.7406,5.01597 19.2969,11.230376 26.48848,13.109766 3.99843,1.044914 5.78214,2.114497 11.00381,6.598314 4.92772,4.231393 7.30707,5.704828 11.36978,7.040841 7.67976,2.525452 10.53174,4.181129 16.60957,9.642434 4.31812,3.880103 6.16714,6.229913 8.45908,10.750176 2.29764,4.53149 3.78731,6.42181 6.87617,8.72554 5.21873,3.892217 7.1085,6.045957 11.80935,13.458917 2.1691,3.42054 4.32405,6.09451 4.78879,5.94218 0.46473,-0.15234 1.61328,-1.411 2.55233,-2.79704 z M 96.47507,24.448278 c 0.98656,-0.82159 1.99853,-1.289018 2.24882,-1.038727 0.53264,0.532643 -2.08563,2.594014 -3.24842,2.55748 -0.43678,-0.01373 0.013,-0.697162 0.9996,-1.518753 z M 321.88008,56.44337 c -1.27803,-7.576662 -5.00465,-11.519583 -16.93516,-17.918136 -4.39252,-2.355788 -8.27377,-4.283251 -8.625,-4.283251 -0.35123,0 -0.6386,2.66504 -0.6386,5.922311 l 0,5.922311 6.375,3.785815 c 3.50625,2.082199 9.07498,5.667135 12.37495,7.966523 5.54718,3.865227 6.07322,4.080621 6.97096,2.854374 0.63753,-0.870831 0.80164,-2.33039 0.47785,-4.249947 z m -18.72779,-0.717388 c 0.64912,-1.855983 0.50121,-2.345401 -1.11108,-3.676412 -2.53315,-2.09121 -12.31656,-6.584008 -15.44143,-7.091104 l -2.54346,-0.412747 0,3.830843 c 0,3.253043 0.28127,4.015135 1.86482,5.05272 3.85528,2.526078 10.52651,4.812537 13.49626,4.625633 2.53344,-0.159446 3.09958,-0.512467 3.73489,-2.328933 z M 276.40654,45.365218 c -1.42986,-1.786529 -3.03455,-4.34511 -3.56598,-5.685735 -1.25944,-3.177211 -3.03424,-3.215753 -3.03424,-0.06589 0,2.740411 3.01399,8.277815 5.42461,9.966278 1.4246,0.997831 1.79799,1.010945 2.71362,0.09531 0.91563,-0.915634 0.70401,-1.508676 -1.53801,-4.30996 z m 6.167,-1.007141 c 1.60721,-0.83112 3.31934,-1.001494 6.41179,-0.638036 4.8255,0.567142 5.54105,0.01727 5.55951,-4.27221 0.0218,-5.066698 -0.93546,-5.549781 -11.5515,-5.829516 l -9.43702,-0.248667 0,2.948639 c 0,2.087402 0.65855,3.857743 2.2547,6.061168 2.46128,3.397688 3.4557,3.688644 6.76252,1.978623 z m 26.36513,-8.026938 c -0.84631,-1.369359 -2.44393,-3.327736 -3.55028,-4.35195 -1.10635,-1.024213 -2.79836,-3.094913 -3.76003,-4.601555 -2.11257,-3.309745 -7.98642,-6.358889 -13.63454,-7.077752 -2.16562,-0.27563 -3.9375,-0.257774 -3.9375,0.03968 0,0.297455 0.67913,1.404199 1.50917,2.459433 0.83005,1.055233 1.71813,3.225321 1.97352,4.822419 0.25538,1.597097 0.74064,3.074577 1.07834,3.283288 0.3377,0.208711 3.18076,1.035941 6.31791,1.838287 3.13714,0.802347 7.78436,2.631253 10.32715,4.064234 2.54279,1.432982 4.7564,2.472275 4.91913,2.30954 0.16274,-0.162735 -0.39655,-1.416266 -1.24287,-2.785625 z M 265.61052,34.91948 c -1.55745,-1.594979 -2.96539,-2.766313 -3.12873,-2.602964 -0.52337,0.523366 1.44739,3.758612 3.07884,5.054308 2.8882,2.293802 2.92486,0.492884 0.0499,-2.451344 z m 4.9841,-0.969636 c 1.75169,-1.473954 3.33093,-1.887202 8.89484,-2.32757 7.50057,-0.593648 8.58694,-1.466389 6.67607,-5.363269 -2.20779,-4.502385 -8.07916,-6.687147 -14.93547,-5.557552 -7.64813,1.260047 -9.56306,2.641174 -8.65858,6.24491 0.44579,1.776161 4.84292,8.79562 5.50975,8.79562 0.21095,0 1.34198,-0.806462 2.51339,-1.792139 z m -12.243,-16.87816 c -1.64406,-3.725267 -2.7953,-4.34808 -2.7953,-1.512245 0,1.30784 3.67055,6.261994 4.22715,5.705396 0.15977,-0.159775 -0.48456,-2.046692 -1.43185,-4.193151 z m 39.2047,2.978741 c 0,-2.345344 -12.23457,-9.83197 -17.92302,-10.9675273 -2.54323,-0.50769 -2.54711,-0.504078 -2.0625,1.9189683 0.26704,1.335189 0.48552,3.517093 0.48552,4.848674 l 0,2.421057 6.9375,0.426136 c 3.81562,0.234375 7.78125,0.768819 8.8125,1.187653 2.40836,0.978136 3.75,1.037183 3.75,0.165039 z M 269.7806,19.193886 c 5.82602,-0.945237 6.77572,-1.627502 6.77572,-4.867666 0,-3.872726 -3.47294,-5.9753923 -9.75,-5.9030663 -2.68125,0.03089 -5.67236,0.484972 -6.64691,1.009064 -1.55496,0.8362213 -1.71354,1.3179173 -1.2952,3.9341293 0.62289,3.895297 2.46574,6.627048 4.46587,6.619971 0.88068,-0.0031 3.78342,-0.359711 6.45052,-0.792432 z m -6.48053,92.860594 c -3.73875,-3.88367 -5.1638,-6.44245 -4.15166,-7.45459 1.02348,-1.02348 2.97059,0.36875 6.34541,4.53713 4.92388,6.08167 3.13835,8.45623 -2.19375,2.91746 z M 50.719907,110.77011 c -4.064836,-2.7013 -9.948361,-8.60717 -7.788587,-7.81817 2.145805,0.78389 9.502503,5.83191 11.111357,7.62439 2.19655,2.44725 0.239895,2.56136 -3.32277,0.19378 z m 189.836413,0.83462 c 0,-1.16078 10.0943,-10.70484 10.3885,-9.82223 0.15868,0.47604 -1.85094,3.02416 -4.46582,5.6625 -4.55,4.5908 -5.92268,5.55489 -5.92268,4.15973 z m -12,-6.69044 c 0,-1.08924 8.01661,-10.403987 10.43789,-12.128077 3.69067,-2.62799 2.70113,-0.56946 -2.68093,5.57707 -4.72179,5.392497 -7.75696,7.955797 -7.75696,6.551007 z m 23.34181,-5.121007 c -3.21589,-3.65345 -3.88903,-5.5513 -1.96897,-5.5513 1.91736,0 7.22459,5.32461 6.97607,6.998917 -0.3856,2.59794 -1.80804,2.18671 -5.0071,-1.447617 z m -32.50269,-5.51316 c 0.29742,-0.80403 1.31087,-2.40715 2.2521,-3.5625 0.94124,-1.15536 2.71413,-3.535015 3.93976,-5.28814 2.7006,-3.862875 5.39088,-4.60878 3.19892,-0.886928 -1.99734,3.391408 -8.43914,11.199428 -9.23979,11.199428 -0.38047,0 -0.44843,-0.65784 -0.15099,-1.46186 z m 22.04588,-4.97158 c -3.10718,-2.659627 -4.1637,-5.56656 -2.02317,-5.56656 1.57916,0 8.1448,6.478 7.54661,7.44589 -0.85413,1.38202 -2.28013,0.89682 -5.52344,-1.87933 z M 56.654302,87.679483 C 53.171981,83.963203 42.455198,68.67035 42.738232,67.821245 c 0.155101,-0.4653 1.033695,-0.03367 2.00104,0.983108 3.44317,3.619057 15.067048,19.44225 15.067048,20.51027 0,0.98986 -1.347092,0.29105 -3.152018,-1.63514 z m -20.834242,-10.875 c 0.0236,-13.20126 3.172532,-30.855452 5.67489,-31.815698 1.983855,-0.761276 2.108837,0.380188 0.815858,7.451254 -0.696643,3.809819 -1.786911,12.301932 -2.422819,18.871354 -0.635907,6.56943 -1.328095,12.222555 -1.538195,12.5625 -0.2101,0.339953 -0.868331,0.61809 -1.462737,0.61809 -0.871584,0 -1.078078,-1.487745 -1.066997,-7.6875 z m 193.61908,2.471805 c -4.4252,-3.49791 -5.0772,-4.389922 -3.99776,-5.469368 1.3569,-1.356892 11.2408,6.06564 10.23789,7.688378 -0.83712,1.3545 -2.44071,0.784267 -6.24013,-2.21901 z m -51.4775,-6.133073 c 0.3095,-0.976927 1.54887,-4.138732 2.75417,-7.026232 1.20529,-2.8875 2.52982,-6.151066 2.94338,-7.252369 0.41357,-1.101303 1.20091,-2.174653 1.74965,-2.385223 0.79651,-0.305651 0.84919,0.154996 0.26125,2.284342 -1.31043,4.746002 -6.24353,15.479837 -7.27181,15.822595 -0.74088,0.24696 -0.85382,-0.126315 -0.43664,-1.443112 z m 38.59468,-1.944817 c -0.61875,-0.233835 -2.475,-1.355445 -4.125,-2.492467 -10.33087,-7.119024 -27.88593,-15.622789 -42.60363,-20.637422 -5.6945,-1.940236 -11.0945,-4.132363 -12,-4.871395 -1.57242,-1.283337 -1.58278,-1.368423 -0.2306,-1.894281 2.82538,-1.098786 21.83711,5.515281 35.91372,12.49417 17.1068,8.481196 26.98513,15.067868 25.70482,17.139458 -0.53958,0.873059 -0.93832,0.912337 -2.65931,0.261937 z M 67.092975,68.96078 c -1.094535,-1.691189 -8.77134,-22.249468 -9.238807,-24.741284 -0.492053,-2.622869 0.64826,-3.474765 1.559441,-1.165013 3.774904,9.569006 8.653758,24.116467 8.483928,25.296832 -0.14886,1.034648 -0.404205,1.228073 -0.804562,0.609465 z m 74.185575,-9.061476 c -0.43082,-0.697091 2.17932,-16.558869 2.83231,-17.211858 1.21716,-1.217163 1.38871,1.234197 0.52544,7.508199 -0.52379,3.806736 -1.13015,7.680713 -1.34747,8.608838 -0.39666,1.694082 -1.32684,2.200663 -2.01028,1.094821 z M 80.557425,55.804483 c -0.97512,-5.715851 -1.381013,-15.393687 -0.6642,-15.836701 0.92442,-0.571321 1.471042,2.345879 2.12427,11.336701 0.333832,4.59478 0.242625,6.9375 -0.270098,6.9375 -0.425775,0 -0.961267,-1.096875 -1.189972,-2.4375 z M 94.78529,52.41459 c -0.69735,-4.218556 -0.57043,-13.672607 0.18356,-13.672607 1.07392,0 1.56631,2.971488 1.57723,9.518237 0.0109,6.501235 -0.9846,8.84985 -1.76079,4.15437 z m 28.90365,-6.360107 0.28027,-8.0625 -1.96953,0 c -2.95557,0 -6.69336,-1.506856 -6.69336,-2.698369 0,-1.197615 8.15857,-1.409271 14.44469,-0.374734 4.2295,0.69607 4.90399,1.213449 3.80876,2.921576 -0.61485,0.958949 -1.6527,1.217319 -4.17168,1.038535 l -3.35319,-0.237993 -0.44761,6.908808 c -0.24618,3.799844 -0.83708,7.28194 -1.31311,7.737992 -0.65243,0.625053 -0.79651,-1.155676 -0.58524,-7.233315 z m -16.07012,4.43866 c -0.90476,-2.209765 -0.67566,-12.398692 0.24331,-10.821267 0.41812,0.717692 0.66098,3.755192 0.5397,6.75 -0.135,3.333601 -0.43864,4.912359 -0.78301,4.071267 z m 38.8125,-8.511233 c -6.83147,-1.530571 -10.22428,-3.662992 -8.00768,-5.032924 0.94019,-0.581072 13.42721,2.188804 14.72571,3.266464 0.62725,0.520572 0.95551,1.245752 0.72945,1.611513 -0.41791,0.676186 -4.72139,0.765721 -7.44748,0.154947 z M 45.20374,41.028261 c -0.242606,-0.392547 0.49685,-1.760465 1.643238,-3.039816 2.357282,-2.630691 4.910846,-3.378695 14.166292,-4.14967 l 6.29305,-0.524207 0,1.929722 c 0,2.109978 -0.347805,2.225347 -9.375,3.109742 -2.475,0.242476 -5.872182,1.10396 -7.549293,1.914408 -3.40239,1.644174 -4.529513,1.809559 -5.178287,0.75982 z M 73.38453,36.59977 c -0.57573,-0.38852 -0.839445,-1.246712 -0.586035,-1.907093 0.3615,-0.942066 1.587127,-1.200694 5.690025,-1.200694 4.974412,0 7.046138,0.839052 5.589953,2.263938 -0.991831,0.97051 -9.510173,1.642684 -10.693943,0.843849 z m 31.42179,-0.09428 c -4.18404,-0.61925 -3.4477,-2.586433 1.0753,-2.872729 4.52272,-0.286279 7.38345,0.357969 6.97888,1.571672 -0.37818,1.134554 -4.58626,1.814319 -8.05418,1.301057 z M 88.100363,35.035412 c -0.535223,-2.046698 -0.06244,-2.293429 4.394617,-2.293429 4.56103,0 6.31134,0.519991 6.31134,1.875 0,1.357685 -1.75166,1.875 -6.34887,1.875 -3.30591,0 -4.040393,-0.245536 -4.357087,-1.456571 z"
     id="path3400"
     inkscape:connector-curvature="0" />
</svg>
