<?xml version="1.0" encoding="utf-8"?>
<!-- Generator: Adobe Illustrator 14.0.0, SVG Export Plug-In . SVG Version: 6.00 Build 43363)  -->
<!DOCTYPE svg PUBLIC "-//W3C//DTD SVG 1.1//EN" "http://www.w3.org/Graphics/SVG/1.1/DTD/svg11.dtd">
<svg version="1.1" id="Layer_1" xmlns="http://www.w3.org/2000/svg" xmlns:xlink="http://www.w3.org/1999/xlink" x="0px" y="0px"
	 width="608px" height="611.438px" viewBox="-63.294 0 608 611.438" enable-background="new -63.294 0 608 611.438"
	 xml:space="preserve">
<g>
	<path fill="#6CB783" stroke="#967348" stroke-width="0.866" d="M428.057,422.827c-7.695,1.407-18.441,4.807-25.207,8.721
		c-10.467,6.056-18.887,0.407-30.145-1.488c-11.578-1.952-26.933-2.792-38.394-0.755c-6.082,1.082-7.249,5.688-12.289,8.171
		c-6.179,3.041-12.585,0.3-18.433-1.715c-6.191-2.132-12.938-3.195-19.092-5.858c-3.472-1.503-5.924-3.832-6.531-7.76
		c-0.682-4.393,2.257-5.195,2.902-7.946c1.664-7.119-2.409-10.604-5.247-16.396c-1.979-4.042-1.103-5.775,0.934-9.58
		c4.035-7.539,6.182-16.82,12.847-21.594c0.624,8.666-2.853,23.901,3.753,30.074c6.59,6.163,18.421,2.673,26.559,3.176
		c2.953,7.164,5.199,14.887,7.43,22.143c12.899,3.365,31.102-3.512,42.542-9.238c9.471-4.741,18.795-12.801,25.948-20.193
		c5.479-5.665,7.223-13.803,13.713-18.813c4.299-3.321,8.863-6.449,11.957-11.017c3.139-4.626,3.73-10.038,6.125-14.924
		c4.996-10.19,17.529-6.474,25.916-13.021c2.521-1.966,3.949-5.583,7.189-6.018c2.391-0.321,5.041,2.198,7.973,1.688
		c3.859-0.673,4.488-2.735,6.676-5.771c4.73-6.562,9.514-13.018,14.414-19.485c2.254-2.976,4.494-5.271,6.168-8.694
		c1.113-2.271,1.309-6.078,2.441-7.904c2.229-3.581,6.768-5.856,9.146-9.539c2.326-3.599,4.156-8.229,5.713-12.285
		c2.115-5.51,0.303-10.788,1.609-16.441c0.959-4.143,5.865-6.767,5.033-11.276c0.961,5.191,4.908,10.433,5.885,16.153
		c1.635,9.583,2.822,18.862,4.758,28.423c3.277,16.208,1.545,32.952-3.379,48.639c-2.227,7.09-4.494,13.799-6.234,20.833
		c-1.809,7.308-7.627,12.621-11.996,18.487c-3.178,4.267-5.736,8.807-9.205,12.831c-3.439,3.992-6.984,7.511-10.824,10.828
		c-9.408,8.126-18.689,20.494-30.625,24.925C448.278,423.85,438.143,420.986,428.057,422.827z"/>
	<path opacity="0.56" fill="#BCBEC0" enable-background="new    " d="M333.554,427.915c-6.136-0.543-9.184,5.229-13.534,7.072
		c-3.285,1.394-8.975,1.631-13.007,0.705c-4.83-1.108-8.642-3.666-13.151-6.352c-3.897-2.321-9.291-3.412-12.371-6.48
		c5.021-6.312,14.8-4.434,20.313-1.602c2.604,1.339,20.426,11.819,20.09,3.153c-8.866,0.497-16.742-5.268-22.208-10.607
		c0.606,0.211,1.243,0.303,1.85,0.472c-0.312-2.125,0.945-2.172,2.434-3.768c3.823,5.646,11.368,6.84,17.946,6.473
		c0.271-6.652-11.407-4.951-15.15-9.276c0.187-0.759,1.182-2.865,1.657-3.479c0.967-0.047,2.472-0.435,3.408-0.271
		c-1.774-2.096-16.371-0.912-17.249,2.781c-1.185-1.7-6.536,0.376-9.542-0.979c-3.845-1.729-7.958-7.396-9.868-10.841
		c7.633-5.338,6.43-16.948,10.606-23.251c-1.35,10.936,1.442,24.979,13.12,29.006c4.966,1.716,13.928-0.296,18.095,2.112
		c2.619,1.516,5.066,9.897,6.46,12.865c3.293,7.015,2.256,7.925,10.808,7.938c7.22,0.012,13.412-1.477,20.241-2.709
		c5.465-0.987,9.909-5.038,15.105-5.79c4.179-0.603,10.175,1.572,14.449,2.021c6.18,0.649,12.697,1.104,18.961,0.741
		c5.547-0.325,10.91-2.382,16.088-3.696c-11.049,3.301-23.277,7.327-35.01,6.542c-5.531-0.371-12.373-4.034-17.14-0.14
		c5.8,0.167,11.121,4.026,17.082,4.488c6.188,0.48,11.977,0.437,18.113-0.018c5.859-0.432,14.258-1.416,19.57-4.023
		c-8.963,3.444-19.586,6.47-28.986,8.193c-7.854,1.439-13.859-2.787-21.648-4.33c-13.888-2.752-27.61,1.104-41.139,3.77"/>
	<path opacity="0.56" fill="#BCBEC0" enable-background="new    " d="M441.085,349.973c-3.039,2.103-6.762,3.733-6.908,7.881
		c2.352-3.238,4.805-5.463,9-5.857C442.79,351.057,441.983,350.464,441.085,349.973"/>
	<path opacity="0.56" fill="#BCBEC0" enable-background="new    " d="M430.981,417.811c0.801-1.09,1.811-1.88,3.033-2.365
		c8.213,5.918,20.803,1.949,29.236-1.129c-12.014,9.191-24.885,3.235-37.824,4.955c2.301-0.381,4.441-1.593,6.277-2.904"/>
	<path opacity="0.56" fill="#BCBEC0" enable-background="new    " d="M519.749,296.568c-3.67,0.688-6.07,4.512-6.402,7.849
		c0.662,0.032,1.326,0.156,1.982,0.196c-0.332,2.622-3.064,4.779-2.145,7.164c0.217,0.56,4.279,2.869,5.1,4.261
		c4.379,7.42,1.922,21.359-1.311,28.732c3.256-8.7,7.6-20.006,6.955-29.396c-0.756,0.822-2.021,0.886-2.633,1.309
		c0.096-1.982-0.844-2.885-0.17-4.853c-7.779-0.063-2.014-12.635-2.1-16.704"/>
</g>
<g>
	<path fill="#EBBBD7" stroke="#967348" stroke-width="0.866" d="M176.192,336.946c-20.992,3.594-6.098-31.47-6.462-39.551
		c-0.401-8.953-6.257-16.779-7.286-25.397c-0.877-7.367,0.313-14.096-2.041-21.528c6.075-1.579,12.12-18.854,13.748-24.554
		c3.691,0.095,4.773-3.928,6.571-6.533c2.851,1.417,3.291-1.813,5.573-1.421c2.314,0.396,3.196,2.593,5.052,3.355
		c4.319,1.774,7.797,0.66,12.868,1.006c1.164,2.605,4.864,1.896,5.931,4.89c0.925,2.598-1.652,4.383-1.823,6.699
		c-0.163,2.214,1.072,4.064,1.195,6.263c0.268,4.843-1.299,9.184-2.459,13.821c-2.255,9.024-0.778,13.949,1.081,22.84
		c1.646,7.87-1.224,15.966-2.746,23.629c-1.495,7.539,0.217,6.434,2.296,13.1c1.082,3.46,1.083,3.824,0.865,7.884
		c-0.11,2.024,0.418,8.188-0.854,9.684c-1.567,1.843-12.208,3.108-15.437,4.111c-5.63,1.746-12.221,3.65-18.187,3.256
		c-0.834-0.263-0.852-0.776-0.053-1.55"/>
	<path opacity="0.56" fill="#BCBEC0" enable-background="new    " d="M191.002,333.065c0.748-0.229,1.458-0.448,2.121-0.651
		c9.174-2.823,10.143-7.439,8.876-17.225c-2.44,3.314-5.502,6.634-9.862,7.036c-0.044-0.039-1.139-1.805-0.898-1.771
		c-3.642-0.512-6.015,2.715-9.202-0.054c0.637-1.908,0.46-3.561,0.688-5.574c-3.703,5.605-9.308-0.65-9.432-5.304
		c-0.118-4.438,5.229-11.701,1.74-15.12c0.878-2.403,0.676-4.976-0.845-7.033c-2.403,5.717-3.604,14.48-5.035,20.668
		c-1.277,5.534-6.605,26.294,1.27,28.04C176.129,337.342,184.812,334.944,191.002,333.065z"/>
	<path opacity="0.56" fill="#BCBEC0" enable-background="new    " d="M180.522,234.467c-1.646,1.506-2.771,3.429-2.777,5.486
		c0.355-0.237,0.749-0.352,1.173-0.347c1.042,1.923,1.059,4.198,1.046,6.347c1.802-2.71,1.852-8.19-0.164-10.765"/>
	<path opacity="0.56" fill="#BCBEC0" enable-background="new    " d="M189.904,230.137c-1.311,1.279-2.387,1.968-2.063,3.565
		c5.063-1.624,3.512,11.781,3.47,13.146C192.599,243.72,191.846,230.133,189.904,230.137"/>
	<path fill="#CDB35C" d="M201.451,232.302c0,0.722,0,1.442,0,2.164"/>
</g>
<g>
	<path fill="#B5D0ED" stroke="#000000" stroke-width="0.866" d="M197.472,221.11c-2.448-7.08,6.303-20.763,8.181-25.389
		c2.829-6.978,2.333-14.476,5.381-21.07c2.978-6.443,8.649-12.367,8.874-19.436c0.161-5.1-3.773-9.458-3.679-14.325
		c0.085-4.333,3.949-11.088,6.603-14.444c4.992-6.316,11.391-10.402,11.511-20.41c0.046-3.863-2.025-8.565-0.588-12.284
		c1.026-2.661,3.13-2.777,4.392-4.968c1.661-2.884,0.662-5.842,1.902-8.582c5.772-12.755,27.143-15.216,39.004-17.412
		c6.497-1.204,13.032-1.98,19.604-2.661c5.492-0.565,11.146,1.825,16.844,1.847c6.696,0.025,13.366-0.905,20.064-0.792
		c30.63,0.515,60.886,9.345,89.15,20.625c26.586,10.613,47.52,36.32,63.805,59.064c11.154,15.579,16.783,31.265,21.174,49.613
		c4.352,18.195,5.393,37.473,13.197,54.704c-0.258,0.263-0.51,0.53-0.758,0.804c-0.611-0.225-1.283-0.387-1.928-0.565
		c0.096,2.271,0.91,4.774,1.275,6.946c-1.375-1.266-2.918-1.804-4.119-3.158c-0.203,4.009,7.848,9.321,1.275,11.781
		c-0.668-2.585-1.512-2.136-2.744-3.26c0.244,3.611-2.764,8.419,0.326,10.889c-0.752,2.818-3.293,3.419-3.188,5.778
		c0.131,2.989,3.156,4.031,3.928,6.946c-2.502,0.547-4.119-1.791-5.338-3.404c-2.592,3.904,3.73,8.771,1.314,12.84
		c-2.168-0.882-3.049-3.457-3.791-5.606c-0.725-0.043-3.354,0.421-4.074,0.72c-0.354,2.565,0.615,5.008,2.689,6.542
		c-0.184,0.574-0.451,1.159-0.639,1.756c-1.629-2.198-2.109-1.116-4.217-1.803c0.08,3.158-2.311,3.479-3.014,6.37
		c-0.676,2.771-0.041,5.386,0.59,7.898c-1.414-1.345-6.166-9.469-6.918-5.73c-1.029,5.11,6.18,8.275,4.795,13.613
		c-6.313,1.554-3.639-11.468-9.902-9.883c1.223,3.351,2.188,7.896,0.664,11.216c-2.092-2.637-4.945-7.715-5.682-1.781
		c-0.477,3.845,3.736,7.308,1.332,11.926c-1.4-2.903-2.406-6.688-4.168-9.122c-2.4,4.614,0.15,10.891-1.627,15.799
		c-3.152,8.729-3.25-0.033-8.549,0.11c-0.029,4.564-0.877,7.822-3.859,10.642c-2.076-0.748-3.713-2.174-4.834-4.058
		c2.453-1.069,2.205-1.798,2.703-3.743c-0.645,0.198-1.229,0.497-1.91,0.549c-0.207-2.904-2.584-4.351-5.811-3.394
		c0.02,0.806-0.307,1.873-0.217,2.666c-2.596,0.272-4.559-1.974-6.264-3.423c-1.553,4.506,6.594,4.031,3.359,9.921
		c-3.229,1.646-6.059-0.654-9.162,0.741c0.375-0.751,0.613-1.886,1.295-2.686c-1.559,0.545-4.293,2.413-6.439,2.086
		c-3.303-0.505-1.441-5.097-5.668-2.991c-0.688-9.586,1.857-14.916-9.326-15.037c-6.561-0.072-15.391,3.549-21.707,1.47
		c0.047,2.351-1.264,3.821-3.623,4.183c0.391-2.99,2.578-7.093-0.094-9.411c-2.014,2.229-0.391,6.892-2.074,8.618
		c-2.691,2.758-7.244-1.45-8.191,3.696c-1.219-1.17-2.33-2.346-2.846-4.151c-0.141-0.489-4.873,0.262-5.395,0.359
		c1.506-3.486-2.732-5.099-4.086-8.166c-2.855-6.473-1.24-15.616-2.801-22.651c-1.717-7.751-6.295-14.2-8.346-21.622
		c-0.987-3.578,1.439-9.379-0.003-11.725c-1.707-2.774-2.278-0.292-3.945-1.41c-2.122-1.421-1.951-0.914-3.608-2.746
		c-2.258-2.496-2.974-6.694-5.596-9.271c-0.58-0.568-2.912-0.836-3.823-1.536c-1.135-0.874-2.104-2.78-3.414-3.821
		c-1.712-1.363-4.426-1.468-5.658-3.394c-0.744-1.168,0.564-3.263-0.094-4.362c-1.876-3.142-3.862-3.512-7.536-4.838
		c-17.479-6.325-36.844-12.658-55.305-14.592c-9.407-0.985-14.979,1.083-23.743,4.11c-10.02,3.462-17.965,7.282-28.582,9.741
		c-4.036,0.935-10.484,5.612-13.924,1.823c-1.729-1.908-0.182-6.205-2.994-8.532c-2.344-1.939-5.758-0.529-7.778-2.272
		C198.338,222.904,197.802,222.068,197.472,221.11z"/>
</g>
<g>
	<path fill="#FBF4A1" stroke="#000000" stroke-width="0.866" d="M273.894,68.44c-0.329,1.604,10.671-7.899,10.119-7.74
		c-10.667,3.034-23.333,3.04-34.371,4.434c-7.448,0.939-15.314,2.728-22.517,4.998c-42.893,13.529-76.471,40.646-107.023,73.328
		c-4.951,5.294-9.593,10.16-12.212,16.759c-2.781,7.003-4.976,14.229-8.322,21.09c-8.51,17.449-23.13,35.575-16.971,56.291
		c1.7,5.717,9.749,12.085,5.319,18.477c4.776,1.247,3.236,5.958,4.223,9.447c1.842,6.524,4.586,4.874,9.189,7.233
		c5.044,2.589,6.918,6.572,11.651,9.619c-2.836-1.828,6.969-7.075,7.881-7.305c3.311-0.829,9.22-0.793,12.11,1.33
		c6.644,4.878,3.236,16.206,2.847,23.019c-0.282,4.97-6.125,17.93-2.92,21.574c8.58-4.273,9.264-18.384,10.104-26.665
		c0.663-6.523-0.864-13.174,0.358-19.684c0.561-2.979,1.192-6.245,3.759-8.19c1.519-1.149,10.768-1.43,10.168-0.42
		c1.645-2.765,4.141-3.2,5.609,0.051c2.162-5.457-1.593-13.044,5.689-15.803c-2.049-5.294,0.037-4.776,1.531-7.775
		c-0.067,0.138,2.133-3.968,1.572-3.639c0.033-0.021,5.047-1.68,4.197-0.621c1.052-1.312,2.858-18.983,9.205-10.284
		c0.585-2.19-1.368-4.444,1.463-5.623c0.528,2.481,2.154,7.651,3.875,2.937c2.035-0.437,3.818,0.277,5.127,1.95
		c7.799-2.907,3.334-7.696,6.244-14.2c0.269-0.598,3.077-0.44,3.531-1.695c0.551-1.52-0.773-3.847-0.627-5.648
		c0.37-4.55,3.963-8.44,4.489-12.916c6.678,0.983,3.908-5.433,3.644-8.152c-0.506-5.202,0.313-6.948,2.867-12.058
		c0.647,0.124,1.275,0.334,1.881,0.547c0.054,0.021,0.416-2.245,0.434-2.435c4.451-0.226,2.556-3.323,4.407-5.795
		c1.781-2.38,4.723-3.526,6.326-6.062c2.256-3.567,1.649-9.456-3.698-8.809c0.049-0.813-0.269-1.854-0.215-2.672
		c-2.108-0.088-3.841-1.024-4.87-2.806c2.403-0.86,4.385,0.137,7.084-0.293c-1.448-1.17-1.146-1.804-3.457-2.162
		c0.558-4.27,3.753-0.474,6.401-1.485c3.351-1.28,2.535-4.798,6.402-5.031c0.073-2.722-2.603-3.761-4.666-4.363
		c0.933-0.459,1.133-1.025,2.539-1.443c-1.21-0.332-2.885-1.987-4.057-2.76c2.832-1.379,3.683,1.719,6.313,1.494
		c4.884-0.42,0.955-0.253,0.666-2.939c0.081,0.747-4.707-3.71,0.021-2.92c2.713,0.455,2.329,5.21,5.667,2.774
		c0.007-0.563-0.459-0.564-0.546-1.117c2.508-0.342,4.619,0.494,7.09,0.435c-1.333-1.614-10.216-2.348-7.771-6.403
		c1.817-3.01,7.632,4.056,9.882,4.311c-0.59-1.787-0.714-3-2.719-4.126c3.178,0.488,5.164,5.007,8.351,2.088
		c-1.16-1.337-1.777-2.606-3.458-2.942c1.62-0.854,3.535-0.186,5.768-0.109c1.663-6.922-7.755-2.71-11.419-4.363
		c1.461-3.335,6.75-1.922,9.974-2.129c0.125-5.263-5.393-1.233-8.451-1.449c0.301-5.119,6.961-0.996,9.371-4.218
		c-2.183-2.762-6.482-0.396-9.375-0.108c0.631-2.725,3.57-2.33,6.29-2.162c0.353-6.853-12.132,2.419-14.786-2.603
		c5.851-5.311,19.974,4.208,24.763-3.278c-2.935-0.898-6.507-0.392-9.647-0.634c1.244-0.725,2.493-2.115,3.854-2.796
		c-3.133,0.091-8.254,1.279-10.33-0.687c3.217-2.907,10.639,0.826,12.013-3.66c-3.257-0.781-8.644,1.19-11.521-0.667
		c3.496-1.971,8.529,2.054,11.44-1.267c-2.855-1.919-7.82-0.799-11.336-1.009c-0.292-6.393,8.767-3.404,11.358-6.208
		c-3.446-2.266-7.586,0.345-11.414-0.29c1.905-5.362,9.521-3.056,10.174-7.705c3.895-0.263,2.328-3.583,4.893-4.488
		C267.796,66.932,271.1,69.021,273.894,68.44z"/>
	<path opacity="0.56" fill="#BCBEC0" enable-background="new    " d="M103.843,245.955c5.624,3.428,13.418,1.159,17.068,8.622
		c-0.717,0.592-1.191,1.687-1.807,2.188c0.752,0.384,1.489,1.32,2.017,1.622c-1.502,0.675-2.463,2.187-3.635,3.427
		c10.437,2.318,11.983,9.277,18.56,15.999c-0.476-2.687-0.807-5.658-0.488-8.509c0.918,0.354,2.171,0.076,3.213,0.68
		c-3.578-10.959-10.54-17.642-18.313-25.47c-3.677-3.703-6.111-8.813-10.949-11.583c-5.104-2.92-11.144-3.333-16.434-5.936
		C98.032,232.213,97.804,242.272,103.843,245.955z"/>
	<path opacity="0.56" fill="#BCBEC0" enable-background="new    " d="M106.587,262.698c0,4.052-2.09,14.739,2.976,15.642
		c-1.531-4.087-1.87-8.558-2.976-12.755"/>
	<path opacity="0.56" fill="#BCBEC0" enable-background="new    " d="M84.214,218.675c-7.94,11.615,3.222,20.268,6.329,30.088
		c0.081-6.192-4.036-12.056-4.742-17.736c0.315,0.009,0.586,0.127,0.813,0.354c-0.026-4.621-4.693-7.946-0.957-12.707"/>
	<path opacity="0.56" fill="#BCBEC0" enable-background="new    " d="M256.577,65.875c7.472-1.175,15.26-2.836,22.813-3.033
		c-0.752,2.136-3.132,3.565-5.198,4.373c0.169-0.092,0.557-0.38,0.708-0.526c-3.766,2.158-8.148-0.903-12.119,0.515
		c0.19,2.383-2.148,3.753-4.354,3.862c0.142,0.32,0.347,0.506,0.493,0.868c-3.43,3.366-8.246,3.162-11.259,6.122
		c-2.673,2.624-1.154,2.758-5.5,3.099c-17.466,1.379-33.005,3.454-48.604,11.905c-14.852,8.045-28.279,19.063-37.698,33.196
		c6.172-4.3,20.473,1.047,25.063,5.691c-5.529,1.36-29.521,5.711-30.948,12.249c0.607,0.207,1.316,0.572,1.909,0.849
		c-13.311,4.493-26.496,12.336-31.063,26.158c-0.717,2.175-2.728,9.946-0.016,11.594c1.885,1.148,4.565-1.796,6.744-2.287
		c3.117,3.854,18.435-10.25,21.725-12.196c13.085-7.752,32.754-18.69,48.296-18.411c-11.061,1.464-24.799,7.313-33.732,13.936
		c-5.845,4.33-9.548,10.551-14.403,15.807c0.045-0.115,0.399-0.8,0.517-1.12c-2.834,1.312-4.833,3.639-4.506,6.84
		c-2.018,0.479-4.131-0.816-5.575-0.686c-5.476,0.505-11.402,4.118-15.979,6.886c-3.35,2.022-24.946,19.341-14.492,21.454
		c-5.021,10.007,16.199,8.921,20.743,5.547c-3.012,5.829-11.033,9.512-17.095,6.146c-0.415,0.938-1.241,1.396-1.572,2.542
		c-1.768-2.733-5.18-3.812-8.406-4.146c0.945,4.19,6.613,9.021,9.991,11.472c4.646,3.372,10.154,3.686,15.639,3.508
		c-0.63,1.021-1.045,3.419-1.292,3.854c0.633-0.667,1.629-1.176,2.321-1.803c0.695,1.636-0.1,4.327,0.729,5.934
		c1.369,2.657,5.294,4.938,7.736,6.509c2.808,1.81,6.745,5.298,8.243,0.08c0.175,0.354,1.157,1.271,1.426,2.035
		c6.454-2.55,1.943-14.173-2.307-10.339c-11.885-23.305,14.551-46.375,33.854-57.165c-2.42,2.75-6.341,5.104-7.05,8.998
		c0.378,0.033,0.748,0.112,1.108,0.229c-3.379,3.837-11.113,12.083-4.875,16.688c3.19,2.355,15.799,1.06,16.037-3.591
		c2.263,1.038,1.99,0.66,4.025,0.599c3.167,3.11,9.368-0.672,8.031-5.049c-0.563,0-1.3-0.021-1.883-0.069
		c6.226-0.455,11.384-13.049,3.651-10.992c6.514-3.909,6.684-7.622,9.066-14.183c-5.706-1.066-14.235,1.021-19.429,2.496
		c-0.151-0.512-0.55-1.381-0.671-1.83c-1.051,0.86-3.067,1.596-4.052,2.742c1.281-3.605,7.278-8.535,9.842-11.522
		c3.415-3.981,4.826-3.593,10.068-5.687c4.369-1.745,8.03-4.612,12.127-6.69c1.522-0.771,1.854-1.277,3.736-1.986
		c1.719-0.651,3.949-0.748,5.715-1.391c-1.288,2.523-6.038,10.695-5.247,12.938c-7.103,3.345-8.645,6.468-9.111,14.416
		c-0.089,1.512,0.447,3.61-0.003,5.049c-0.797,2.546-2.228,2.538-3.641,4.895c-1.55,2.583-2.709,6.75-3.409,9.706
		c-0.933,3.932-1.536,5.936-3.068,9.185c-1.462,3.102-1.198,7.611-2.871,10.136c-2.764,4.17-5.903,2.015-8.87,0.882
		c-1.505-0.575,0.123-3.263-2.658-3.115c-2.214,0.116-3.19,2.337-3.012,4.129c-3.492-1.444-7.244,4.308-9.166,6.964
		c1.747,3.81-7.736,7.428-7.506,12.807c-1.573-3.206-2.531-7.688-3.571-11.381c-3.482,5.215-5.143,11.84-3.484,17.895
		c0.979,3.571,3.468,6.195,0.761,10.089c-2.488,3.578-5.179,2.729-9.366,3.589c-4.157,0.852-7.527,3.512-11.44,4.24
		c-4.778-8.917-11.778-16.074-18.149-23.688c-6.328-7.565-15.372-14.528-25.201-16.54c-0.292,3.027,1.593,5.122,2.124,7.859
		c0.502,2.599-2.329,3.501,1.396,7.054c4.64,4.422,12.406,2.65,17.314,6.466c5.56,4.322,0.774,9.763,4.316,13.144
		c4.539,4.334,10.494,4.534,13.438,11.51c-3.36-5.037-21.228-3.543-22.101,3.47c-2.145-5.396-1.907-12.847-6.313-17.109
		c-0.165,0.884-0.709,1.771-0.885,2.693c-0.311-1.53-1.626-2.75-2.146-4.095c-3.528,1.907-1.434,7.663-5.125,9.28
		c-1.636-3.556-3.825-8.88-4.834-12.84c-0.923-3.619-0.185-5.519-0.164-9.509c0.026-5.36,0.06-17.787-6.807-18.991
		c3.882-5.469,0.008-9.795,1.036-15.593c0.69-3.894,4.163-8.271,6.174-11.623c4.578-7.634,7.598-15.581,10.603-23.957
		c2.19-6.104,2.8-12.274,6.279-17.862c4.271-6.863,11.156-12.672,16.649-18.621c19.001-20.564,39.31-38.094,63.706-52.282
		c12.111-7.043,25.068-12.623,38.606-16.26c6.763-1.816,13.65-3.158,20.598-4.022C251.94,66.592,254.238,66.244,256.577,65.875z"/>
	<path opacity="0.56" fill="#BCBEC0" enable-background="new    " d="M90.71,202.798c7.355-14.224,13.427-29.011,18.764-43.821
		c2.261,6.206-0.412,12.833-2.87,18.565c-4.841,11.284-9.962,27.244-19.502,35.359"/>
</g>
<g>
	<path fill="#E2C8AD" stroke="#000000" stroke-width="0.866" d="M135.506,296.735c-0.868,5.739-0.32,13.086-3.321,18.25
		c-1.604,2.762-17.323,12.479-18.926,9.733c-1.958-3.359-1.837-10.335-2.755-14.37c-1.391-6.12-1.923-12.597-0.277-18.72
		c1.135-4.229,1.359-10.017,3.199-13.761c0.589-1.198,7.335-8.438,8.439-8.122c4.182,1.195,12.32,3.895,14.357,8.178
		C138.119,281.909,136.097,292.828,135.506,296.735z"/>
	<path opacity="0.56" fill="#BCBEC0" enable-background="new    " d="M113.837,289.464c1.244,2.928-1.53,15.318-3.446,17.984
		c-0.482-5.743-0.573-16.06,4.167-20.149"/>
	<path opacity="0.56" fill="#BCBEC0" enable-background="new    " d="M122.227,312.01c2.388-3.756,3.918-8.411,4.021-11.563
		c0.249,0.329,0.956,0.966,1.303,1.454c2.459-2.558,2.28-7.014,3.709-10.097c2.111-4.556,5.918-8.156,2.935-13.243
		c-2.158-3.684-9.112-6.502-12.67-3.344c-3.765,3.347,1.996,20.419,0.449,26.555c-1.545,6.138-7.463,11.669-8.142,17.633
		c5.781-0.872,11.989-7.381,16.326-11.216c-1.776,1.118-3.149,2.958-3.331,5.089"/>
	<path opacity="0.56" fill="#BCBEC0" enable-background="new    " d="M119.61,275.752c-1.474,4.421-4.841,8.297-6.563,12.759
		c0.633-1.042,1.462-1.27,2.092-1.875c4.644,8.063,2.822,18.809-0.672,27.147c5.1-7.193,8.853-27.35,4.421-35.144"/>
</g>
<g>
	<path fill="#72C59B" stroke="#000000" stroke-width="0.866" d="M50.585,296.377c2.334,0.998,5.264,0.486,7.594-0.101
		c-0.279,1.145-2.135,4.02-2.161,4.94c-0.075,2.813,3.829,1.537,1.098,5.087c2.458,2.113,1.936,5.387,1.986,8.408
		c1.734-1.363,3.633-1.47,5.541-0.598c1.435-4.321,7.373-5.026,10.698-6.932c-3.979-13.983,15.096-21.86,19.212-33.333
		c2.284-6.365,2.811-21.369-5.893-24.501c4.211,1.516-5.064,18.075-6.607,20.296c-6.666,9.579-19.058,11.253-26.88,19.349
		C54.591,289.595,52.39,297.149,50.585,296.377z"/>
	<path opacity="0.56" fill="#BCBEC0" enable-background="new    " d="M61.881,308.451c3.037-0.595,4.113-2.518,2.976-4.854
		c2.756-2.587,4.188-7.645,6.245-10.266c2.229-2.838,3.989-6.012,5.938-7.974c2.553-2.574,5.844-4.22,7.951-7.377
		c1.833-2.742,4.947-10.015-1.401-7.149c2.348-3.262,4.256-8.098,6.257-11.412c3.403,12.997,0.019,16.618-7.953,25.219
		c-5.245,5.66-10.895,14.709-12.196,22.249c-2.427,0.979-4.071,2.978-5.811,4.885c-1.025-0.417-1.555-0.946-2.115-1.84
		c0.523-0.689,0.983-1.582,1.554-2.198"/>
	<path fill="none" d="M61.158,293.296c0.328,0.893,0.568,1.807,0.725,2.739c1.195-0.935,2.507-2.377,3.353-3.695
		c-1.54-0.023-3.291,0.31-4.798,0.954"/>
</g>
<g>
	<g>
		<path fill="#DADD89" stroke="#000000" stroke-width="0.866" d="M271.843,380.727c5.371-9.034,0.713-18.944,0.826-29.373
			c-2.521,1.548-4.47,0.824-7.179,1.266c-0.666,0.106-1.583-1.065-2.868-0.827c-0.858,0.159-0.647,1.518-1.302,1.69
			c-4.842,1.287-10.22,2.731-15.27,1.93c-5.581-0.886-6.788-4.482-11.063-7.001c-6.643-3.916-16.314-1.125-23.604-0.077
			c-7.859,1.13-9.676,4.229-14.926,8.737c-2.586,2.22-5.888,1.412-8.169,2.852c-3.249,2.052-5.688,7.092-8.667,9.75
			c-3.293,2.94-6.51,4.628-10.626,6.5c-9.294,4.229-18.733,8.207-26.005,15.64c-3.055,3.124-5.456,7.242-10.104,7.216
			c-9.569-0.057-8.882-15.442-10.799-21.729c-1.428-4.686-4.626-17.96-9.416-19.633c1.117-7.568-9.149-8.923-11.112-15.572
			c-2.667-9.045,11.19-19.2,13.996-7.56c1.055,4.379-3.649,7.077-4.075,10.734c3.41,1.104,5.054,0.846,7.668-1.299
			c1.536-1.261,1.926-3.735,3.12-5.235c2.521-3.165,5.923-4.661,9.002-7.067c5.239-4.099,16.047-8.917,11.213-16.399
			c0.413-0.426,1.036-1.243,1.307-1.52c0.113-0.117-8.138,0.352-8.988,0.617c-2.896,0.904-5.737,4.037-8.999,2.217
			c-1.257,3.21-4.213,2.857-6.335,2.181c-0.326,1.047-0.993,2.099-1.563,3.023c-0.505-3.762-5.388-6.532-2.072-9.927
			c-4.623,0.832-4.516-4.604-3.363-4.479c-0.667-0.074-1.313-0.146-1.983-0.193c0.257-5.004-0.53-8.45,0.654-13.461
			c1.474-6.229,4.437-10.435,0.523-15.756c-2.016-2.739-4.104-4.75-5.438-7.902c-0.562-1.325-3.758-8.784-3.252-9.846
			c-1.097,2.296-0.694,5.774-2.267,7.786c-1.15,1.47-5.996,2.371-4.843-0.586c-2.584,6.63-9.258,11.92-13.668,17.341
			c-2.045,2.514-5.609,5.201-7,7.504c-2.114,3.504-0.951,6.825-2.471,10.57c-0.797-0.083-1.899,0.325-2.688,0.258
			c2.137,4.89-7.543,10.975-8.75,15.729c-1.502,5.924,1.291,12.753-0.633,18.619c8.432,3.888,12.231,8.641,12.918,17.465
			c0.504,6.457,4.214,14.786-0.071,20.672c2.167-2.484,1.874-6.071,0.632-9.051c-2.103,3.117-4.89,4.67-8.953,4.923
			c0.722,6.035-16.386,1.789-19.314,5.597c-2.617,3.406,3.359,8.057,4.235,12.758c0.898,4.825,0.149,10.166-1.105,14.861
			c-2.001,7.501-9.971,15.475-8.512,23.742c3.688,0.033,6.763,2.353,10.015,3.756c4.808,2.075,9.125,2.688,14.272,3.536
			c8.62,1.426,17.585,4.5,26.284,5.124c18.296,1.313,39.723,1.001,56.848-4.892c12.244-4.211,23.063-9.895,35.368-13.73
			c14.104-4.397,26.104-7.148,30.872-22.534c3.011-9.72,8.267-37.137,24.735-30.327c6.078,2.511,10.118,11.035,13.989,15.932
			c2.033,2.572,4.648,6.686,7.494,8.392c3.293,1.974,7.429,0.824,10.694,2.983C264.912,392.276,268.897,385.683,271.843,380.727z"/>
		<path opacity="0.56" fill="#BCBEC0" enable-background="new    " d="M51.206,378.723c-6.719-0.847,3.157,12.626,1.285,17.27
			c0.079,0.15-0.669-1.24-0.58-1.165c0.761,11.288-9.836,18.798-10.119,29.861c3.588-6.751,5.482-12.77,10.908-18.29
			c-0.614,6.3-5.563,10.757-4.959,17.586c3.527-6.854,9.279-31.965,19.249-29.999c-1.586,8.972-6.564,19.474-9.196,28.587
			c4.346-6.563,8.13-30.409,17.65-31.562c-0.259-0.094-0.371-0.282-0.334-0.564c0.803-0.42,1.885-0.474,2.678-0.832
			c1.257,4,3.851,0.033,6.671,2.786c3.205,3.126,2.455,12.677,1.496,16.531c2.193-5.088,2.352-11.01,3.519-16.323
			c0.062,0.57-0.056,1.169-0.052,1.742c1.413-0.456,0.59-1.081,2.22-0.742c2.676-6.495,6.514-11.544,10.464-17.121
			c0.302,0.372,0.909,0.933,1.243,1.403c2.623-2.261,7.589-5.587,10.679-2.311c0.248-3.499-3.064-4.088-3.537-7.541
			c1.398-0.453,1.918-1.425,2.647-1.337c-7.348-4.383-12.996-11.104-15.185-20.47c-2.939,2.349,2.03,13.749,1.657,18.507
			c-3.396,0.222-9.7,24.185-12.321,28.915c-2.407-6.998-6.912-4.852-11.421-3.494c-0.092-0.417-0.187-0.833-0.286-1.25
			c-1.105,0.803-2.519,1.333-3.338,2.545c3.318-4.66,9.065-10.434,10.013-14.864c1.947-9.129-5.754-18.434-7.107-26.569
			c7.253,13.307-1.496,30.108-8.048,40.894c-2.284-1.299-5.065-0.319-7.111,0.739c-0.388-2.204-0.613-4.505-1.296-6.491
			c0.804,0.066,1.778-0.146,2.51-0.058c-0.008-4.079,5.358-3.656,8.043-5.702c2.898-2.213,5.173-5.963,4.186-9.847
			c-4.502,8.858-17.293,6.027-24.39,9.166"/>
		<path opacity="0.56" fill="#BCBEC0" enable-background="new    " d="M113.991,383.775c0.764,3.48,1.763,7.299,2.073,10.732
			c-10.138-0.095-17.116,34.531-14.583,41.766c-3.344-3.118-2.008-15.087-8.458-13.721c-2.606,0.555-5.335,6.177-6.148,8.089
			c2.545-7.408,6.637-14.529,8.402-22.146c-1.377,3.822-2.708,7.906-2.105,11.979c8.492,4.343,15.395-26.499,17.158-31.577
			c0.664,0.216,1.421,0.292,2.072,0.545c1.041-2.464,2.453-5.907,1.59-8.554"/>
		<path opacity="0.56" fill="#BCBEC0" enable-background="new    " d="M179.973,414.099c3.044,0.466,2.078-39.275,1.732-43.22
			c-10.431,4.047-19.045,14.801-28.707,20.991c-6.741,4.317-19.275,13.701-27.512,8.773c0.971,4.733-2.688,9.795-7.792,9.233
			c1.545,7.176,19.608,0.678,24.3-1.492c1.307,1.786,1.837,4.06,1.695,6.187c2.003-1.369,3.982-2.387,6.332-2.558
			c0.019,6.191-4.721,5.308-8.623,7.084c-5.215,2.375-10.675,6.37-13.456,11.703c7.075-4.105,15.2-10.179,22.714-5.275
			c0.171-0.34,0.207-0.688,0.105-1.041c4.423-0.099,10.695-4.784,15.363-6.068c3.933-1.083,6.719-1.505,10.546-0.832
			c-0.022-0.492-0.001-1.302,0.051-1.81c2.095,1.24,4.994-0.427,5.938-0.97C181.386,414.881,180.897,414.24,179.973,414.099z"/>
		<path opacity="0.56" fill="#BCBEC0" enable-background="new    " d="M74.913,329.758c-0.483,3.716,3.969,8.148,6.442,3.732
			c0.921,5.277,10.472,8.612,13.713,4.17c0.582,0.922,0.757,2.446,0.789,3.408c-6.569,0.859-2.644,11.978-2.776,16.506
			c-1.164-4.329-2.552-9.228-5.825-12.517c0.137,1.4-0.19,2.897,0.069,4.273c-0.418-0.958-0.994-1.946-1.353-2.9
			c0.674,3.785,0.561,7.903,0.609,11.916c-0.844-11.226-9.774-16.418-18.794-20.637c-2.979-1.393-5.011-0.54-5.832-5.102
			c-0.49-2.729-0.915-11.426,0.747-13.712c0.266-0.077,3.099-0.624,2.852-0.604C60.295,318.735,74.316,334.334,74.913,329.758z"/>
		<path opacity="0.56" fill="#BCBEC0" enable-background="new    " d="M104.61,276.244c4.209,6.205,0.102,16.096-3.5,21.467
			c0.391-0.579,0.698,12.833,0.723,13.782c0.229,9.337,4.479,6.206,10.712,10.087c-0.936,0.157-1.564,0.601-2.526,0.866
			c1.04,2.061-1.516,4.311-2.44,5.501c4.684,1.26,10.097,0.968,14.402-1.478c4.422-2.512,9.987-6.508,12.396-11.153
			c-3.765,2.151-8.326,1.896-12.07,4.224c-1.616,1.006-0.582,4.191-4.274,4.062c-1.855-0.066-3.844-3.571-5.937-4.205"/>
		<path fill="none" d="M93.785,272.635c-0.625,2.216-1.718,4.276-2.814,6.227c0.705-0.172,1.335-0.27,1.97-0.364
			c0.354,1.688,1.113,3,0.842,4.815c0.003-3.958,0.345-7.596,0.616-11.197c-1.039,0.707-1.448,1.592-2.057,2.683"/>
		<path opacity="0.56" fill="#BCBEC0" enable-background="new    " d="M178.029,401.995c-0.732,4.545-2.018,8.568-3.365,10.321
			c-0.154-0.168-2.915-2.227-2.798-1.367c-0.479-3.488-1.682-6.97-2.52-10.421c0.602,3.994-4.432,8.421,0.877,10.092
			c-0.834,1.958-3.086,1.875-3.988,3.208c-0.653,0.971-0.074,2.794-0.617,3.446c-1.28,1.539-2.359,2.328-3.875,3.738
			c-1.602,1.492-10.589,6.01-8.029,9.412c-3.968-5.273-6.747-3.063-12.3-2.449c-5.038,0.553-9.925-0.559-13.713,4.584
			c-4.557-5.337-22.85-0.627-25.223,5.069c-3.292-3.226-7.384-6.423-11.779-7.119c-3.647-0.577-4.035,1.823-7.727-0.567
			c-2.077-1.348-4.257-5.133-7.069-4.907c-2.174,0.176-3.149,4.092-5.197,4.418c-3.43,0.55-3.878-2.839-6.316-4.698
			c-5.992-4.572-7.078-0.087-13.228,0.854c-2.277,0.35-14.778-2.042-8.638,2.243c0.446,0.311,7.082,0.95,8.679,1.426
			c3.445,1.029,6.714,2.335,10.301,3.589c11.474,4.012,37.046-2.464,41.103,12.752c3.227-8.515,13.321-7.566,20.764-6.133
			c2.106,0.407,1.862,2.298,4.371,1.911c0.708-0.105,2.633-3.438,3.714-4.034c5.358-2.959,12.17-1.762,17.896-3.756
			c9.83-3.422,19.113-8.553,28.723-12.479c7.527-3.075,15.165-4.928,21.796-10.089c7.53-5.865,7.197-14.287,12.069-21.962
			c0.529,0.288,0.961,0.663,1.499,0.942c2.135-5.103,0.545-10.23,3.936-14.799c1.917,0.358,2.448-0.232,4.04-1.73
			c-0.196-0.41-0.567-0.753-0.703-1.264c8.597-9.337,22.582-2.966,28.797,4.964c0.093-0.409,0.188-0.82,0.283-1.231
			c4.364-0.104,11.979,5.688,15.645,8.28c-0.485-5.36,2.87-8.668,4.294-13.455c0.775-2.607,2.224-11.262-1.464-13.604
			c-1.688-1.072-6.884,0.268-8.604,0.557c-5.871,0.982-9.953,2.139-15.752,0.091c-8.697-3.076-14.451-5.804-23.651-5.768
			c-14.118,0.054-26.992,7.246-37.864,15.684c-4.746,3.684-8.693,7.421-14.352,9.728c-6.078,2.479-12.623,3.519-17.849,7.79
			c-7.021,5.741-9.27,17.125-20.657,16.599c7.729,4.202,17.711-2.702,24.321-6.91c1.85,4.304,1.704-0.102,2.813-0.248
			c-1.025,0.135,2.617-1.962,2.202-1.714c0.435-0.259,2.458,1.552,3.639,0.863c4.027-2.354,5.907-13.031,11.44-11.246
			C178.89,384.196,179.334,393.92,178.029,401.995z"/>
		<path opacity="0.56" fill="#BCBEC0" enable-background="new    " d="M106.054,275.522c2.396,2.673,4.462,5.892,5.701,9.273
			c-5.301,0.417-6.226,8.252-7.126,12.337c-1.686,7.641-1.225,14.508-1.463,22.19c0.544-8.295-2.95-15.963-0.899-24.299
			c1.598-6.495,6.459-13.298,3.661-20.007c-0.513,0.326-0.953,0.734-1.318,1.227"/>
		<path opacity="0.56" fill="#BCBEC0" enable-background="new    " d="M65.639,334.7c-3.183,5.571,5.717,8.561,7.83,13.158
			c-1.104-1.644-1.047-3.267-1.228-5.111c8.314-0.495,16.322,5.052,24.949,4.24c-10.839-3.26-21.833-4.494-31.552-10.843"/>
		<path opacity="0.56" fill="#BCBEC0" enable-background="new    " d="M52.906,385.271c6.166-3.385,20.919-4.196,20.477-13.858
			c-2.855,0.577-7.775,2.75-9.894,5.03c-1.423,1.533-1.343,3.475-2.884,4.962C58.694,383.257,55.231,383.994,52.906,385.271z"/>
		<path opacity="0.56" fill="#BCBEC0" enable-background="new    " d="M67.804,422.746c0.463,0.996,1.035,1.924,1.715,2.778
			c0.956-2.775,2.941-5.064,4.526-7.6c-3.397,1.741-7.398,3.134-5.519,7.708"/>
	</g>
	<path opacity="0.56" fill="#BCBEC0" enable-background="new    " d="M121.931,419.137c0.599,2.022,0.846,4.142,0.686,6.234
		c0.592,0.432,2.548,1.993,3.697,2.904C126.102,424.534,124.044,421.919,121.931,419.137"/>
</g>
<path opacity="0.21" fill="#636466" enable-background="new    " d="M215.619,322.934c-0.764-3.188-1.283-7.127-3.355-11.111
	c-5.154-9.9-8.62-17.593-11.596-28.782c-2.505,4.971-5.522,16.763-11.889,18.184c3.348,9.247-5.415,21.532-11.851,9.842
	c-4.039-7.335-2.559-16.827-6.043-24.253c-1.241-2.629-4.697-3.958-5.819-6.473c-1.934-4.326-3.471-17.305-3.661-22.368
	c-0.201-5.354,1.844-9.578-0.187-14.804c-1.938-4.989-7.245-8.119-7.48-14.064c-0.594-14.933,14.815-12.869,21.981-21.362
	c3.203-3.797,3.153-11.502,6.692-16.196c4.209-5.577,10.168-8.082,14.694-12.693c3.816-3.891,3.794-10.088,11.333-9.555
	c0.792-3.025,2.971-5.588,3.962-8.172c-1.426,3.712-15.971,3.886-16.143,8.485c-0.307,8.279-11.904,15.903-17.509,21.002
	c-7.897,7.187-16.279,14.425-22.421,23.089c-2.959,4.171-8.438,11.883-7.708,17.24c0.562,4.121,4.939,7.494,6.171,11.568
	c1.91,6.313-1.553,12.113,0.865,18.473c0.966,2.536,3.202,3.946,4.229,6.811c1.113,3.109,0.617,7.104,1.54,10.383
	c1.923,6.824,7.367,11.855,7.724,19.242c0.443,9.229-7.101,18.992-4.725,28.323c2.62,10.291,22.711,4.72,29.458,3.676
	c17.9-2.771,35.508,8.565,52.918,6.492c-5.592,0.507-13.666-2.271-18.614-4.811c0.516-0.59,1.096-1.266,1.486-1.755
	C218.834,331.435,216.887,328.219,215.619,322.934z"/>
<path opacity="0.21" fill="#636466" enable-background="new    " d="M194.076,354.456c-9.306,5.564-14.288,15.694-23.512,21.765
	c-8.224,5.409-15.446,10.526-22.24,17.113c3.942-3.821,8.525-7.059,13.975-7.217c-0.294,4.597,10.537,8.474,11.921,15.227
	c1.063,5.19-1.645,9.388-3.768,14.093c3.837-2.722,10.434-6.498,14.102-2.429c5.004-4.456,9.532-6.415,16.185-5.08
	c2.09-8.888,10.804-21.039,16.527-27.988c5.752-6.985,11.973-14.248,21.121-10.135c8.479,3.812,10.835,13.525,17.633,18.836
	c8.232,6.429,16.38,2.743,21.844,10.821c1.896,2.797,4.506,5.949,4.621,9.577c0.166,5.202-3.872,5.988-4.4,9.815
	c-1.397,10.069,12.79,10.859,19.052,12.505c7.325,1.926,16.02,8.042,23.839,5.39c2.735-0.93,5.025-4.922,7.915-6.323
	c3.594-1.745,8.571-1.423,12.563-2.093c15.839-2.651,25.469-0.07,40.594,1.926c5.418,0.714,12.002,2.332,17.109,0.935
	c5.605-1.536,10.785-6.901,16.039-9.692c-5.551,0.127-11.336,0.369-16.803-0.17c6.188-2.457,12.357-3.339,17.039-8.268
	c-12.342,1.452-33.9,7.812-41.941-6.769c2.799,0.247,3.635-1.257,5.309-1.831c-2.455-0.694-4.316-2.631-5.621-4.113
	c2.27-0.697,4.061-2.523,5.684-3.632c-10.909-1.305-23.607-0.719-33.406-6.883c-4.302-2.706-9.954-9.106-10.646-14.331
	c-0.424-3.199,1.842-5.185,1.655-8.667c-16.462-0.018-28.923-21.538-45.248-24.456c-23.636-4.223-48.236,1.71-71.75,3.099
	c0.373,0.883,0.289,1.895,0.537,2.769C211.903,351.605,202.131,349.641,194.076,354.456z"/>
<g>
	<path fill="#D1EEFC" stroke="#000000" stroke-width="0.866" d="M50.438,488.417c0.957,5.136,5.482,8.874,6.354,13.872
		c2.139,12.242-7.136,22.161-7.778,33.76c-0.947,17.058,13.909,21.65,28.146,21.65c7.016,0,12.853-1.334,19.643-2.127
		c6.795-0.792,13.511-0.098,20.05-0.761c6.371-0.647,11.995-3.979,18.208-4.524c5.902-0.516,11.946-1.642,17.876-1.987
		c7.986-0.464,15.728-0.456,23.708-1.445c13.472-1.675,26.794-4.563,39.514-9.365c14.299-5.399,30.732-21.047,30.438-37.526
		c-0.178-9.943,2.956-19.715,5.391-29.639c5.67-23.12,11.438-46.416,24.322-66.52c8.198-12.793,13.846-24.146,14.467-39.532
		c0.593-14.63-20.749-19.618-26.875-6.479c-2.441,5.24,0.912,8.322,1.636,12.974c1.021,6.575-2.511,10.069-7.072,13.89
		c-7.389,6.182-21.057,14.516-31.21,11.964c-4.003-1.008-7.498-5.562-9.908-8.516c-6.308-7.735-7.045-16.759-11.179-25.239
		c-2.217-4.542-6.563-9.76-12.277-8.253c-5.859,1.546-7.393,9.528-8.318,14.705c-2.28,12.787-4.322,25.313-3.103,38.176
		c1.08,11.384,1.577,22.763,2.102,34.18c0.31,6.738,0.996,12.478-4.349,17.468c-8.851,8.261-23.886,7.962-35.078,9.953
		c-17.421,3.101-34.576,6.54-52.341,7.794c-6.586,0.466-12.57,1.391-19.149,0.854c-5.99-0.484-14.545-1.959-19.853,1.724
		C50.371,481.848,49.641,484.141,50.438,488.417z"/>
	<path opacity="0.56" fill="#BCBEC0" enable-background="new    " d="M76.506,485.783c-5.087,6.097-7.786,0.412-13.01,0.693
		c-3.239,0.175-8.78,7.087-12.26,2.193c6.575,9.246,6.958,17.256,3.747,28.017c-4.232,14.18-9.151,23.789,4.583,33.898
		c-2.61-3.218-5.758-7.947-5.519-12.372c0.211-3.856,4.436-9.938,8.007-4.567c-0.109-4.12-1.592-16.469,4.17-15.75
		c-0.313-5.688,2.961-7.42-0.072-12.017c-2.585-3.926-10.463-10.073-7.087-15.948c4.448,0.508,15.279,6.882,10.229,12.722
		c2.414,1.729,4.358,4.019,6.632,5.912c0.79-2.229,0.438-5.188,0.62-7.755c0.98-0.154,1.828-0.857,2.704-1.026
		C75.246,494.735,72.471,492.651,76.506,485.783z"/>
	<path opacity="0.56" fill="#BCBEC0" enable-background="new    " d="M80.769,481.923c-1.017,1.236-1.99,2.506-2.923,3.81
		c0.55,1.403,1.771,3.171,3.121,4.039c5.89-2.881,8.729,10.341,9.943,13.543c1.052-8.076-5.179-16.693-10.861-21.39"/>
	<path opacity="0.56" fill="#BCBEC0" enable-background="new    " d="M97.366,481.923c-6.126,5.201-5.205,4.381,0.035,9.147
		c0.427-4.931,6.214-5.754,9.831-7.774c-3.401,2.638-8.784,0.71-11.309-2.096"/>
	<path opacity="0.56" fill="#BCBEC0" enable-background="new    " d="M138.503,478.315c4.572-0.608,7.153-3.507,10.808-5.072
		c3.083-1.317,7.079-1.272,10.281-2.289c7.016-2.224,13.913-3.177,19.757-7.725c-7.599,11.778-18.066,18.476-30.827,24.155
		c1.232-0.932,3.896-3.653,3.422-5.46c-1.095-4.193-4.453-1.271-6.025-1.252c-4.861,0.059-10.164,2.724-13.691-2.234
		c2.268-0.154,4.697-0.408,6.999-0.846"/>
	<path opacity="0.56" fill="#BCBEC0" enable-background="new    " d="M91.66,540.501c3.18-3.505,2.386-5.482,8.352-6.685
		c-8.813,10.441,0.971,15.466,11.694,10.187c2.659-1.311,3.996-4.677,5.997-5.685c2.986-1.503,11.052-1.872,14.3-1.438
		c-3.024,7.308,15.263,4.888,18.621,4.071c4.132-1,10.593-7.03,14.458-5.521c0.646,2.994,7.061,1.999,9.519,0.484
		c4.527-2.786,3.272-10.604,6.367-13.721c1.615-1.63,10.193-5.847,12.321-5.734c4.662,0.251,2.243,0,4.572,4.291
		c1.406,2.595,2.734,8.409,6.121,7.442c5.325,7.921,20.479-5.404,24.714-9.468c7.014-6.724,13.091-14.397,12.14-24.479
		c-3.517,4.181-5.9,9.775-9.146,14.208c1.643-5.363-0.204-11.152-0.851-16.43c-0.623-5.085-0.084-5.838,1.642-10.23
		c0.75-1.907,1.034-5.544,1.989-7.142c1.027-1.722,2.852-1.322,4.171-2.935c4.434-5.412,8.638-12.604,11.054-19.113
		c-0.647,0.854-0.96,1.638-1.422,2.509c0.811,0.313,1.412-0.012,2.107,0.52c1.515-3.291,7.303-12.488,0.962-13.408
		c9.689-6.729,8.991-25.835,14.721-35.395c5.147-8.588,16.204-19.947,11.021-30.924c-4.48,2.317-4.056,8.562-5.793,12.879
		c-3.235,8.038-7.423,11.3-13.442,16.58c0.143-0.688,0.27-1.368,0.364-1.986c-10.332-4.948-25.732,6.997-37.086,3.685
		c14.226-4.609,28.876-8.727,39.178-20.442c3.59-4.083,13.047-12.383,8.375-18.062c0.668-0.204,2.559-0.607,3.25-0.599
		c0.01,0.753-0.031,1.385-0.006,2.023c2.647-0.964,12.801-6.134,9.685-10.243c-3.186-4.202-11.661,3.32-13.815,4.486
		c-4.629-13.106,20.836-13.464,22.121,2.942c0.96,12.251-11.577,25.206-17.198,35.325c-9.77,17.587-15.001,36.708-19.447,56.151
		c-2.677,11.707-5.186,23.557-7.435,35.375c-1.633,8.572-2.911,16.188-7.756,23.258c-15.968,23.298-45.522,21.627-70.849,25.416
		c-18.212,2.724-36.97,4.333-54.92,7.781c-15.391,2.954-31.366,4.913-46.871,1.668C76.73,555.836,84.797,548.067,91.66,540.501z"/>
	<path opacity="0.56" fill="#BCBEC0" enable-background="new    " d="M187.574,455.221c-2.374,11.22-8.785,20.841-17.278,28.41
		c3.115-0.961,14.165-2.805,14.503-5.979c4.595,1.589,6.778,7.519,7.881,11.93c-0.139-4.665,0.116-8.923,0.813-13.395
		c4.008,2.796,5.902,12.788,7.089,17.438c1.667,6.535,3.036,13.036,5.597,19.211c1.228-13.017-2.313-27.454-4.367-40.313
		c-1.918-12.002-0.16-24.565-1.224-36.755c-1.011-11.589-2.946-23.225-2.907-34.833c0.013-3.833-1.719-19.236,2.757-18.358
		c-5.8-6.065,1.475-10.5,7.076-8.279c-2.375-4.584-6.18-17.813-12.719-17.259c-7.246,0.613-8.133,20.347-8.826,25.31
		C182.598,406.48,192.61,431.42,187.574,455.221z"/>
	<path opacity="0.56" fill="#BCBEC0" enable-background="new    " d="M283.562,354.186c-4.541-1.327-7.367-3.716-12.345-1.451
		c-1.81,0.822-3.991,2.192-4.806,4.115c-0.271,0.632-0.349,5.482-0.029,5.197c1.72-1.515,7.107-6.288,9.559-5.596
		c3.083,0.872,3.77,11.361,4.012,14.493c0.561,7.229-0.369,14.067-2.706,20.805c-4.864,14.021-11.66,27.989-17.394,41.598
		c8.631-15.532,18.667-32.157,24.628-48.832c2.294-6.412,10.332-35.396-5.974-31.773"/>
	<path opacity="0.56" fill="#BCBEC0" enable-background="new    " d="M199.708,357.921c-2.92-0.687-5.293,1.237-7.3,3.083
		c-4.875,4.48-8.712,13.719-7.531,20.246c4.134-5.626,12.384-17.882,20.603-15.865C203.771,363.207,202.763,358.639,199.708,357.921
		z"/>
	
		<linearGradient id="SVGID_1_" gradientUnits="userSpaceOnUse" x1="-116.3381" y1="600.6638" x2="-106.5134" y2="600.6638" gradientTransform="matrix(1 0 0 1 202.4375 -80.166)">
		<stop  offset="0" style="stop-color:#FFFFFF"/>
		<stop  offset="0.1046" style="stop-color:#FAFAFA"/>
		<stop  offset="0.2282" style="stop-color:#ECECEC"/>
		<stop  offset="0.3616" style="stop-color:#D4D4D4"/>
		<stop  offset="0.5018" style="stop-color:#B2B2B2"/>
		<stop  offset="0.6474" style="stop-color:#888888"/>
		<stop  offset="0.7976" style="stop-color:#535353"/>
		<stop  offset="0.9487" style="stop-color:#161616"/>
		<stop  offset="1" style="stop-color:#000000"/>
	</linearGradient>
	<path fill="url(#SVGID_1_)" d="M95.924,518.728c-0.426,6.093-12.657,5.521-9.215,0.846c1.951-2.648,12.051-2.775,7.771,2.764"/>
	<path opacity="0.56" fill="#BCBEC0" enable-background="new    " d="M50.699,483.848c-0.781,2.75,0.941,3.664,2.416,1.638
		c2.392,6.138,9.015-1.224,12.417-2.54c1.4,7.408,10.594,2.446,13.554-0.601c4.18,2.676,7.32,4.121,12.028,2.101
		c1.598-0.687,3.161-2.665,4.812-3.063c1.416-0.348,5.479,0.135,7.217,0.032c4.395-0.251,8.116-0.871,12.039-1.525
		c1.505-0.251,3.582-0.003,5.271-0.35c2.022-0.417,3.594-2.653,5.306-2.959c1.521-0.271,3.008,1.038,4.809,1.01
		c2.4-0.036,4.008-1.101,6.254-1.573c1.953-0.411,3.859,0.029,5.773-0.338c2.618-0.502,5.342-2.429,7.805-3.244
		c5.757-1.914,11.872-2.949,17.694-5.078c2.879-1.054,9.051-1.922,10.705-4.547c0.497-0.789,0.68-1.09,0.781-1.984
		c-3.634-0.387-7.786-0.091-11.41,0c-8.498,0.208-16.017,4.956-24.216,6.69c-11.219,2.368-22.632,4.478-33.97,6.22
		c-11.299,1.732-22.528,5.032-33.946,5.805c-6.527,0.442-13.028,0.535-19.563,0.938c-5.869,0.36-5.45,2.247-5.775,6.255"/>
	<path opacity="0.56" fill="#BCBEC0" enable-background="new    " d="M66.575,553.13c3.097,4.145,14.073,0.713,18.294,0.481
		c6.169-0.338,12.208-1.379,18.393-1.446c10.896-0.12,21.277-4.091,32.126-4.278c10.235-0.182,21.452-0.633,31.656-1.845
		c12.318-1.46,24.202-3.574,36.36-6.153c11.787-2.5,24.311-6.174,30.441-17.537c-3.096,5.74-16.387,10.461-22.172,12.438
		c-8.75,2.984-18.454,3.253-27.584,4.015c-17.813,1.479-36.175,2.688-53.651,6.612c-20.532,4.615-40.841,9.157-61.937,9.157"/>
</g>
<g>
	<g>
		<path fill="#FFFFFF" stroke="#000000" stroke-width="1.4434" d="M60.202,470.782c0.451-3.391-0.135-7.086-1.965-11.251
			c-2.845-6.462-11.88-11.281-14.261-1.958c-1.271,4.984,0.288,10.433,1.763,15.191c1.191,3.854,2.288,9.771,5.941,11.979
			C56.427,480.402,59.515,475.944,60.202,470.782z"/>
		<path fill="#FFFFFF" stroke="#000000" stroke-width="1.4434" d="M60.771,481.823c0.807-0.16,1.565-0.35,1.966-0.747
			c1.409-1.398,1.328-4.806,0.979-7.334c-0.875-6.31-4.766-16.793-9.264-21.573c-6.38,1.299-7.715,10.528-7.104,15.731
			c0.398,3.399,1.533,6.673,3.104,9.704c1.31,2.524,4.475,5.375,4.718,8.067c0.951-1.041,2.008-2.427,3.226-3.176
			C58.974,482.144,59.899,481.998,60.771,481.823z"/>
		<path fill="#FFFFFF" stroke="#000000" stroke-width="1.4434" d="M64.144,459.792c-1.635-2.291-5.338-6.468-8.178-5.75
			c-2.055,0.519-4.445,4.616-4.797,6.563c-0.685,3.771,0.079,7.809,0.52,11.567c0.434,3.685,1.195,7.738,2.728,11.221
			c1.511,3.434,2.137,3.74,5.415,1.898c6.019-3.384,8.161-7.837,7.708-14.821C67.263,466.287,66.498,463.093,64.144,459.792z"/>
		<path fill="#FFFFFF" stroke="#000000" stroke-width="1.4434" d="M68.502,455.462c-8.917,0.353-4.188,37.142,6.254,28.892
			c6.082-4.804,5.754-11.971,4.918-18.771c-0.55-4.464-5.501-14.333-11.653-9.64"/>
		<path fill="#FFFFFF" stroke="#000000" stroke-width="1.4434" d="M93.519,463.16c-0.41-7.271-12.059-11.266-15.188-3.939
			c-2.02,4.722-0.928,12.872,1.104,17.413c0.896,2.001,5.045,7.675,6.88,8.707c2.537,1.426,5.754-1.074,7.591-3.394
			c2.258-2.851,1.245-5.456,0.443-8.591C93.456,469.878,93.721,466.719,93.519,463.16z"/>
		<path fill="#FFFFFF" stroke="#000000" stroke-width="1.4434" d="M123.924,462.265c-1.853-6.791-5.179-6.317-10.957-5.469
			c-5.146,0.757-13.09-1.358-16.915,2.985c-2.916,3.313-3.073,8.449-2.039,12.52c1.082,4.25,1.872,7.751,6.509,8.762
			c4.659,1.016,8.394-2.249,12.232-2.521c4.899-0.352,6.889,0.896,11.05-2.488C128.807,471.983,125.38,467.609,123.924,462.265z"/>
		<path fill="#FFFFFF" stroke="#000000" stroke-width="1.4434" d="M135.589,475.473c3.863-0.984,7.876-2.642,11.335-3.067
			c3.941-0.483,8.951-1.652,9.539-6.385c0.315-2.543-1.048-10.676-3.274-12.509c-3.639-2.993-9.373,0.056-13.585,0.024
			c-4.71-0.034-13.707,0.633-15.077,6.592c-0.69,3.011,0.704,5.438,1.826,8.074c1.027,2.413,1.175,5.503,2.375,7.861
			C130.84,476.437,133.186,476.086,135.589,475.473z"/>
		<path fill="#FFFFFF" stroke="#000000" stroke-width="1.4434" d="M158.096,466.422c1.625,2.877,4.751,2.255,7.941,0.973
			c3.437-1.379,7.476-2.444,10.728-3.853c6.55-2.836,7.681-13.282,2.491-17.728c-4.438-3.799-8.316,0.632-12.799,1.424
			c-4.995,0.877-8.33-1.614-9.932,4.018C155.183,455.978,155.658,462.105,158.096,466.422z"/>
	</g>
	<g>
		<path fill="#FFFFFF" stroke="#000000" stroke-width="1.4434" d="M48.165,444.279c1.213-3.55,5.997-19.949-3.611-17.577
			c-4.53,1.116-6.955,13.833-7.125,17.557c-0.147,3.22,0.903,6.173,0.744,9.375C43.211,453.588,46.68,448.615,48.165,444.279z"/>
		<path fill="#FFFFFF" stroke="#000000" stroke-width="1.4434" d="M44.323,435.711c-2.475,5.677-4.568,15.734-1.332,21.145
			c5.284-2.344,9.623-4.682,11.091-10.524c1.189-4.737,4.637-11.246,2.059-16.166C51.782,421.854,46.323,431.124,44.323,435.711z"/>
		<path fill="#FFFFFF" stroke="#000000" stroke-width="1.4434" d="M52.129,438.617c-1.397,6.151-3.505,17.229,4.171,20.367
			c7.727,3.163,12.799-11.157,14.018-16.513c0.594-2.608,1.488-5.552,0.72-8.179c-1.395-4.75-6.761-11.13-11.999-8.229
			C55.129,428.23,53.053,434.552,52.129,438.617z"/>
		<path fill="#FFFFFF" stroke="#000000" stroke-width="1.4434" d="M87.746,440.547c-0.021-5.032-4.56-11.65-10.323-10.914
			c-5.082,0.65-6.989,7.444-8.451,11.264c-1.128,2.941-2.855,6.446-2.887,9.755c-0.035,3.615,2.299,6.902,5.196,9.164
			c3.112,2.428,5.844,1.803,9.248-0.013C87.417,456.131,87.773,447.739,87.746,440.547z"/>
		<path fill="#FFFFFF" stroke="#000000" stroke-width="1.4434" d="M102.778,443.433c-1.054-6.217-7.157-14.021-13.045-6.87
			c-2.078,2.524-2.41,6.616-3.337,9.65c-0.709,2.319-4.473,13.962,1.709,10.256c2.486,5.859,7.913,3.646,11.681,1.601
			C104.707,460.589,103.194,445.889,102.778,443.433z"/>
		<path fill="#FFFFFF" stroke="#000000" stroke-width="1.4434" d="M128.16,436.699c-2.444-5.148-13.013-3.64-17.171-2.246
			c-6.023,2.022-5.527,7.337-6.991,12.817c-0.994,3.727-1.817,9.162,1.657,11.556c4.239,2.92,6.714-1.604,10.49-1.477
			c3.759,0.127,6.31,4.602,10.489,1.878c3.936-2.565,3.049-5.804,2.596-9.647C128.791,445.873,129.758,440.066,128.16,436.699z"/>
		<path fill="#FFFFFF" stroke="#000000" stroke-width="1.4434" d="M129.604,441.99c0.011,3.36-1.357,9.824,0.337,12.536
			c1.67,2.664,8.153,3.725,10.607,2.739c1.475-0.592,1.979-2.639,3.597-3.138c1.98-0.613,3.728,0.471,5.665,0.479
			c8.959,0.031,6.122-17.183,3.367-22.744c-2.331-4.708-6.287-2.194-10.573-0.938c-2.621,0.769-6.406-0.392-8.97,0.94
			C130.266,433.616,129.591,438.417,129.604,441.99z"/>
		<path fill="#FFFFFF" stroke="#000000" stroke-width="1.4434" d="M155.557,436.323c0.463,2.823,1.172,5.651,2.315,8.191
			c3.275,7.281,7.568,4.644,13.119,1.192c4.061-2.521,11.289-0.912,12.521-7.085c0.66-3.298-1.768-4.851-3.392-7.217
			c-1.774-2.586-2.655-4.808-2.479-8.096c-3.159-1.237-6.744-0.313-9.654,0.747C161.874,426.278,154.222,428.197,155.557,436.323z"
			/>
	</g>
</g>
<g>
	<path fill="#FFFFFF" stroke="#000000" stroke-width="0.866" d="M171.366,305.674c1.316-9.593,6.962-18.78-3.505-26.242
		c-0.24-4.782-0.059-23.199-4.685-26.584c-1.521,2.763-1.689,6.402-1.856,9.164c-3.439-1.077-6.776-0.995-8.142-4.307
		c-2.702,0.051-4.502,1.689-5.637,4.356c-0.451-0.828-1.567-2.059-1.896-2.715c-0.048,0.493-1.104,2.569-1.161,3.89
		c-1.421-1.27-3.479-1.716-4.874-3.41c2.324,2.823,0.993,22.74,0.745,26.959c-0.561,9.52-3.344,20.347-7.944,28.749
		c-2.736,4.998-6.426,9.139-11.572,11.521c-3.949,1.829-3.491,1.481-7.937,1.712c-3.461,0.177-4.55-3.939-7.532,1.229
		c0.091,0.684,0.523,0.938,0.727,1.68c-4.065,0.739-9.715,5.909-4.856,9.839c0.159,0.792-0.946,0.68-0.682,1.442
		c0.993,0.761,1.543,0.831,2.63,1.368c-0.241,0.776-0.81,1.667-0.734,2.507c5.127,3.934,13.611,10.351,11.547,17.371
		c0.562,0.42,1.946,0.987,2.627,1.373c0.121,0.887-0.995,0.736-0.943,1.704c0.162,0.156,1.907,1.099,1.909,1.102
		c-1.367,6.062,3.916,21.767,5.934,27.745c1.895,5.601,0.947,7.544,8.641,6.729c10.609-1.126,18.593-11.15,25.288-18.229
		c4.039-4.267,8.394-4.313,14.38-7.487c6.109-3.238,7.645-7.226,12.009-11.11c4.121-3.669,10.309-3.033,13.658-6.229
		c-1.267-0.146-2.979-1.141-4.375-1.368c0.83-1.015,1.01-2.839,1.465-3.519c-6.525,0.921-4.452-6.097-10.316-5.124
		c-0.107-1.09-0.371-2.478-0.31-3.541c-2.057-1.97-1.621-1.285-1.902-3.77c-1.182-0.238-1.973-1.229-3.561-1.348
		c0.467-3.383,1.126-7.178,1.653-10.301c-0.252,1.493-10.675,0.786-11.941,0.43C168.459,322.787,170.208,314.106,171.366,305.674z"
		/>
	<path opacity="0.56" fill="#BCBEC0" enable-background="new    " d="M157.778,275.255c0.969,9.103,8.97,19.562,3.356,28.838
		c-0.769-7.86-1.56-10.716-7.831-15.826c-1.117,0.603-2.292,0.16-3.236-0.828c-0.101,0.9-0.654,1.826-0.694,2.69
		c-2.292-5.6-1.522-11.664-1.877-17.583c-2.97,0.427-3.426-3.268-2.383-5.242c-1.396-0.482-2.822-1.624-3.736-2.5
		c1.708,8.597,2.131,20.696,0.391,29.319c-1.409,6.993-3.052,13.791-5.747,20.157c-3.192,7.542-7.583,13.591-14.239,18.595
		c-4.963,3.731-15.428,4.699-18.331,9.122c-0.01,0.102,1.273,1.215,1.426,1.443c-0.638,0.728-1.458,0.618-1.712,1.683
		c2.884,2.856,7.346,4.209,10.349,6.979c-0.401,0.313-0.8,0.632-1.191,0.958c5.135,2.625,7.35,11.712,8.568,16.888
		c1.138,4.835,3.837,13.534,3.779,19.193c2.152-3.686,3.096-9.395-0.845-12.071c0.58-0.354,1.774-0.342,2.439-0.334
		c0.008-1.033-0.085-2.568,0.28-3.559c4.211,0.184,5.889,5.103,10.44,6.349c7.397,2.021,4.47-0.901,9.626-4.641
		c1.81-1.313,4.312,0.106,5.793-1.04c1.962-1.521,1.954-4.142,3.711-5.626c4.526-3.832,13.835-5.692,15.337-11.427
		c-4.136,3.071-10.495,8.188-16.017,7.408c-0.117-0.538-0.227-1.075-0.332-1.615c-7.321,0.895-18.505,7.916-24.709,0.606
		c-1.798-2.12-0.937-7.422-3.249-10.2c-2.029-2.438-5.292-3.22-7.065-5.946c2.022-2.267,4.272-3.718,7.093-4.688
		c4.385,3.676,6.992-1.538,1.273-2.187c-0.17-1.149,0.201-2.541,0.709-3.566c-0.482-0.219-0.971-0.251-1.464-0.091
		c4.218-4.024,8.16-10.896,10.476-16.313c0.394,0.381,1.181,1.097,1.71,1.715c2.655-1.096,3.575-3.447,3.028-6.458
		c3.357-0.963,5.794-3.397,6.755-6.755c3.23,1.04,6.451,0.692,8.282-1.993c1.957,3.266,2.765,6.765,3.24,10.466
		c3.652-4.394,5.535-13.021,5.632-18.661c0.087-4.965-1.533-7.285-3.501-11.596c-2.263-4.962-1.987-10.942-2.297-16.295
		c-0.341-5.886-1.282-6.509-6.646-9.527c0.504,2.371,2.672,4.416,3.303,7.05C158.293,270.753,157.524,272.873,157.778,275.255z"/>
	<path opacity="0.56" fill="#BCBEC0" enable-background="new    " d="M138.569,390.27c5.099-0.602,11.141-7.208,15.469-9.793
		c5.384-3.22,11.752-4.21,16.989-7.646c2.113-1.384,4.439-2.818,6.431-4.366c2.04-1.588,2.362-3.699,3.657-5.188
		c1.331-1.53,6.354-2.834,8.412-2.073c-2.797,1.362-7.563,2.337-9.701,4.605c-1.101,1.168-1.267,3.226-2.06,4.683
		c-2.746,5.055-6.367,5.913-11.428,7.32c-4.84,1.347-10.169,4.383-13.468,8.289c-6.657,7.881-11.53,14.347-22.972,14.372
		c2.594-1.632,5.125-2.064,7.188-4.354C138.212,394.875,141.726,389.897,138.569,390.27z"/>
	<path opacity="0.56" fill="#BCBEC0" enable-background="new    " d="M162.671,257.798c-1.42,2.905-0.488,6.799-0.083,9.867
		c0.45,3.425-0.376,6.742-0.588,10.104c-0.452,7.134,5.049,10.977,6.764,17.316c2.292,8.48-13.839,38.296-0.1,42.27
		c-1.231-2.321,0.604-3.894,2.797-4.67c-6.229,2.207-3.535-7.74-3.128-11.01c0.967-7.752,2.219-15.458,3.316-23.194
		c0.505-3.559,1.708-7.538,0.761-11.121c-0.562-2.116-6.003-6.303-6.006-6.3c0.874-0.859-0.052-10.298-0.063-11.932
		c-0.029-4.241-0.245-9.1-2.76-12.677C163.203,256.869,162.904,257.319,162.671,257.798z"/>
	<path fill="none" stroke="#000000" stroke-width="1.4434" d="M162.001,263.332c2.431,7.479-1.605,12.503,1.177,19.031
		c2.828,6.637,6.673,7.268,6.521,15.629c-0.222,12.247-8.191,21.12-5.609,33.496c1.343-0.12,1.154,0.563,1.76,1.125"/>
	<path opacity="0.56" fill="#BCBEC0" enable-background="new    " d="M168.736,342.72c1.29,1.239,2.963,1.715,4.7,1.463
		c-0.602-0.206-1.19-0.706-1.773-0.958c1.209-2.68,4.602-4.788,5.19-7.685c-4.278,1.939-9.331,5.702-14.237,3.78
		c2.491,1.55,3.891,3.011,7.083,2.917"/>
	<path opacity="0.56" fill="#BCBEC0" enable-background="new    " d="M107.151,344.644c-0.625,0.733-0.065,1.438-1.021,1.909
		c1.653,2.374,5.573,4.09,7.815,6.554c-0.942-0.779-1.025-1.818-1.438-2.618c1.358-0.125,2.718-0.343,4.064-0.527
		c-0.227-0.063-0.269-0.196-0.125-0.398c6.575-1.254,14.375,2.15,19.399,5.979c-2.813-4.402-9.496-5.863-14.276-7.048
		c-4.083-1.012-10.394-0.086-13.938-2.406"/>
</g>
<g>
	<path fill="#FDCF8E" stroke="#000000" stroke-width="0.866" d="M287.743,355.811c2.018,2.672,3.486,7.789,6.354,5.263
		c-0.928,3.396-3.96,6.796-5.391,10.65c-1.729,4.661-2.822,9.063-3.192,13.884c7.308-6.484,7.045,9.309,5.966,12.677
		c1.329-0.198,3.264,0.544,4.589,0.364c-3.523,11.372-12.824,19.57-8.824,33.191c5.06-11.134,16.431-25.034,25.283-33.507
		c2.231,1.415,4.983,1.566,7.556,0.476c0.402,0.562,0.233,1.725,0.355,2.419c4.121,1.606,5.904,18.958,7.625,24.026
		c6.694-0.47,13.419,1.549,20.087-0.771c3.088-1.074,4.889-3.333,7.703-4.618c2.898-1.327,6.021-0.976,8.684-2.117
		c13.229-5.676,16.36-21.371,32.52-19.443c-0.748-3.311,0.354-6.498,3.607-7.553c-0.717-0.704-1.104-1.15-1.652-1.948
		c2.635-2.635,7.92-2.643,10-4.738c3.217-3.248,1.199-8.365,6.119-9.646c-0.414-2.44,5.943-6.918,8.268-9.433
		c1.746-1.89,4.117-3.809,5.295-6.225c1.559-3.2,0.588-3.773,1.182-6.432c1.484-6.644,4.938-11.389,4.881-17.361
		c-0.035-3.746-1.932-9.985-4.041-13.378c-5.896,2.924-12.65,1.462-19.076,1.804c-7.664,0.409-7.482,3.053-12.365,5.625
		c0.863-1.475,1.113-3.861,2.6-5.365c-1.98-2.148-1.721-4.513,0.049-6.848c-6.709-0.585-4.445,6.782-2.914,10.269
		c-1.037-0.312-2.621,0.013-3.75-0.385c-0.893,2.011-2.965,3.351-4.051,5.19c2.592-4.39-7.406-6.341-7.807-6.761
		c-2.338-2.458-2.678-6.464-5.818-8.593c2.447-1.755,2.336-3.519,0.76-5.835c2.238-3.64,3.143-14.132-2.959-12.669
		c3.725-2.759,2.303-6.229-0.215-9.082c4.371-1.828,2.592-7.593,3.633-11.568c-3.391-0.767-8.28-2.45-9.286-6.158
		c-1.363-5.042,6.053-6.689,2.069-11.186c0.668,0.301,2.604,0.382,3.32,0.693c2.855-12.298-9.542-9.495-15.298-4.063
		c1.787-5.619-0.684-19.847-9.354-14.193c5.104-3.327-10.894-14.487-13.302-14.734c0.398-4.778-3.223-6.563-6.942-3.574
		c-1.515-3.433-5.373-2.76-8.702-3.942c0.401-0.863,0.452-1.775,0.72-2.553c-1.667,0.881-3.781,0.646-5.559,1.396
		c2.409-8.61-7.217-1.378-9.5-1.229c-3.546,0.235-7.004-2.23-10.654-4.38c0.361-0.844,0.425-1.758,0.672-2.496
		c-3.509,1.198-9.089,1.098-9.694-3.921c-0.653,0.839-2.786,1.896-3.417,2.696c-0.133-0.555-0.262-1.111-0.383-1.667
		c-0.614,0.248-2.903,0.695-3.754,0.729c-0.281-0.916-1.562-2.356-1.779-2.982c-0.769,1.051-3.177,2.276-3.778,3.029
		c-0.019-1.674-1.011-2.345-1.299-3.442c-1.406,1.38-3.262,1.437-4.641,2.649c-0.454-0.67-0.656-1.032-1.125-1.954
		c-3.785,1.672-5.467,9.867-8.641,4.063c-3.82,4.209-8.686,5.043-10.228,10.199c-0.111-2.736-0.889-4.172-0.362-6.564
		c-4.633,3.472-11.124,7.127-13.325,12.123c-0.278-0.874-1.613-2.401-2.088-3.463c-3.273,1.641-7.849,3.526-9.62-0.697
		c-6.26,3.543-9.42,6.036-16.071,8.28c5.053,4.186,0.767,5.934-0.846,10.626c-1.485,4.323-1.182,8.693-1.93,12.485
		c-1.84,9.358,2.589,19.592-0.763,28.771c1.104-0.426,2.333-0.399,3.344-0.72c-3.58,6.911-3.778,13.542-5.561,21.021
		c4.524,2.197,4.238,6.643,2.889,10.426c0.867,0.087,1.657,0.141,2.486,0.401c-0.164,4.426,0.793,8.058-0.091,12.299
		c-0.632,3.033-1.724,2.478,0.954,4.282c1.122,0.757,3.056,0.688,4.348,1.093c5.917,1.844,11.579,3.515,17.566,4.716
		c6.104,1.226,12.419,1.428,18.764,1.428c3.722,0,7.441-0.004,11.162,0c2.261,0.003,6.992-1.094,8.646-0.106
		c-4.177-0.055-8.123,1.167-12.354,0.964c-4.939-0.238-10.018-1.114-14.939-1.699c-7.43-0.886-14.784-0.567-21.743-3.837
		c-6.188-2.906-12.58-3.511-19.728-3.029c-4.665,0.314-9.302,1.992-13.943,1.799c-2.282-0.095-8.09-2.319-8.832,1.396
		c-0.395,1.981,4.899,6.993,4.359,8.357c-0.38,0.964-0.942,1.917-1.672,2.677c4.037,1.794,8.747,5.86,9.689,9.747
		c0.691-0.15,0.781-0.771,1.498-0.733c1.688,2.218,2.979,2.625,3.316,5.541c-0.101-0.872,4.451,1.329,4.515,4.213
		c12.767-8.841,26.792-8.135,40.543-1.955c5.167,2.322,10.29,6.504,16.177,6.661c5.688,0.151,9.23-4.087,12.798-7.864
		c0.902-0.956,1.457-2.369,2.385-3.343c2.094-2.197,4.145-3.09,7.101-3.402c2.993-0.317,6.919,0.113,9.319,2.146
		c2.476,2.093,2.756,5.297,4.747,7.907c3.438-2.141,4.082-7.762,7.528-10.343c-6.17,4.909-6.68,14.96-3.316,21.782
		c0.22-0.081,1.216-0.613,1.374-0.725c0.032,0.25,0.088,0.494,0.164,0.731c0.556-0.405,0.745-0.609,1.397-0.764
		c0.674,1.783,0.891,3.827,1.516,5.678c2.866-1.325,3.448,2.665,3.333,4.824c0.587-0.397,1.635-0.42,2.209-0.843
		c0.091,0.705,0.767,1.274,0.678,2.26c0.533-0.044,1.258,0.203,1.789,0.147c-0.156,0.376-0.145,1.271-0.345,1.755
		c3.519,2.288,4.512-0.293,6.528,3.392c0.281-0.432,0.81-0.804,1.131-1.213c-0.21,2.37,1.654,4.375,4.125,4.144
		c-3.335,0.444-3.056-3.225-5.208-4.673c-2.935-1.978-7.149,1.576-6.736-4.837c-1.192-0.537-2.063-0.312-2.32-0.084"/>
	<path opacity="0.56" fill="#BCBEC0" enable-background="new    " d="M187.833,343.209c-2.696-0.035-5.417,1.493-7.409-1.129
		c4.574-2.396-3.037-5.711-2.563-6.16c0.699-0.657,12.192-2.898,12.403-2.792c-0.241-0.125-0.492-0.164-0.753-0.122
		c2.122-0.405,4.312-0.508,6.415-0.97c-0.199,0.286-0.563,0.646-0.733,0.876c1.992,1.201,4.443,0.243,6.463-0.41
		c2.413,1.267,5.972-0.016,8.728,0.999c-5.216,0.929,0.432,3.423,2.66,3.739c3.556,0.504,7.195-0.295,10.779-0.396
		c-0.185,0.061-0.271,0.19-0.256,0.389c1.684,0.642,3.432,0.563,5.1,1.104c-5.054-0.289-10.266,2.812-15.18,1.829
		c-0.054-0.441-0.084-0.858-0.116-1.302c-1.835-0.289-3.644-0.771-5.561-0.527c0.161-0.248,0.528-0.394,0.723-0.626
		c-3.28-4.089-15.971,6.417-20.534,6.292C187.941,343.739,187.886,343.475,187.833,343.209z"/>
	<path opacity="0.56" fill="#BCBEC0" enable-background="new    " d="M204.273,354.672c2.575,1.904,9.665-0.629,13.063-0.962
		c5.165-0.51,9.838,0.721,14.807,0.853c-3.894-4.252-12.877-3.255-18.714-3.258c-4.563,0-12.742-0.56-16.205,2.862
		c1.174,1.368,0.834,3.763,2.24,4.401c1.434,0.653,5.654-2.02,7.216-2.453"/>
	<path opacity="0.56" fill="#BCBEC0" enable-background="new    " d="M249.5,341.2c3.518,1.536,7.308,0.576,10.604,1.89
		c-0.626,1.305-2.001,2.067-3.229,2.921c0.921,1.103,2.202,1.621,3.654,1.517c-0.912,1.748-0.067,3.598,1.892,3.718
		c0.063-0.417,0.014-0.803,0.106-1.207c3.297,0.96,6.028-1.657,8.923-0.188c-1.659,1.646-4.117,2.063-5.566,3.884
		c0.198,0.209,0.511,0.523,0.785,0.816c-3.928,2.5-8.164,6.582-13.159,6.472c0.598,0.918,1.23,1.763,1.863,2.741
		c6.834-2.536,30.729-23.683,35.105-6.28c1.735,0.191,5.082-6.188,5.797-7.034c0.499-0.559,2.611-1.292,4.151-0.997
		c0.624,2.501-3.431,6.187-4.208,8.889c0.804-0.306,1.586-0.04,2.294-0.229c-0.768,3.706-2.449,6.3-2.365,10.825
		c0.364-0.513,1.039-0.863,1.37-1.228c-0.11,1.684,0.582,1.818,1.432,2.778c0.268-0.238,0.405-0.606,0.685-0.83
		c2.895,0.521,2.279,3.91,2.419,6.157c0.008-0.016,0.388-0.716,0.492-0.872c0.19-0.03,0.313,0.046,0.364,0.228
		c0.905-1.26,0.598-1.231,2.235-1.191c-1.266,2.004-1.035,5.323,1.536,5.657c-0.132-0.818,0.255-1.935,0.156-2.75
		c1.243-0.688,1.599-2.074,1.456-3.738c0.839,2.047,2.875,6.495,1.878,8.37c0.433,0.028,0.887,0.149,1.328,0.157
		c-0.109,1.122,0.65,2.282,0.647,3.304c1.098-0.755,2.329-1.758,3.665-1.884c0.302,1.818,0.839,3.672,1.653,5.182
		c2.354-0.846,4.93-3.637,5.542-6.072c0.475,3.24-0.788,5.148-1.757,8.008c5.53-0.963,6.536-10.979,6.228-15.681
		c-0.945,1.774-2.032,3.699-3.785,4.651c0.06-1-0.278-2.229-0.194-3.208c-0.332,1.321-1.137,2.437-2.225,2.688
		c0.03-2.511-0.661-4.962-0.602-7.487c0.367,0.976,1.446,1.636,1.854,2.217c0.407-1.103,1.095-2.066,1.153-3.3
		c0.668,0.68,2.161,1.614,2.709,2.34c3.076-5.849-5.505-10.106-8.878-12.999c2.693,1.271,5.174,1.875,7.433,3.893
		c1.563,1.399,2.354,3.508,3.861,4.766c-0.684-2.791-1.827-5.675-4.207-7.47c0.645,0.635,2.033,1.131,2.737,1.695
		c0.871-3.319-2.991-6.429-4.661-9.019c4.241,0.629,7.743,4.188,11.949,5.327c-1.96,1.785-5.274,6.096-0.418,6.646
		c1.845,0.211,6.78-3.458,8.071-4.432c0.417-7.299,13.236-5.878,17.883-4.721c2.65,0.663,5.038,1.698,7.688,2.863
		c4.549,2.003,6.805,1.181,11.393,0.694c-0.193,0.206-0.484,0.654-0.385,0.479c-0.586,0.559-1.064,1.195-1.662,1.77
		c4.48-3.859,11.873-3.038,15.166-9.113c-2.537,0.238-4.064-1.965-6.18-1.083c1.869-3.678,7.646-4.608,8.582-8.946
		c-4.195,3.08-10.111,7.363-15.26,8.382c3.059,0.639,4.602,2.376,2.234,4.342c-2.467,2.051-9.246,1.673-11.828,0.014
		c1.33-0.991,3.035-1.416,4.564-2.201c-0.662-0.124-1.533-0.197-2.203-0.18c-0.049-0.265-0.08-0.528-0.094-0.796
		c-6.458-0.998-12.474,1.869-19.205,0.796c0.318-0.238,0.73-0.901,1.297-1.238c-3.926-1.589-13.524,0.856-15.721-2.443
		c5.022-0.505,10.061,0.693,15.257-0.189c3.745-0.637,5.543-2.753,8.821-3.584c0.092,0.901,1.101,2.056,1.386,2.789
		c1.901-0.827,3.298-3.842,5.216-3.243c-0.12,1.147,0.258,2.506,0.157,3.639c2.77-2.458,4.331-4.921,8.12-6.586
		c1.225-0.539,2.541-1.11,3.799-1.599c0.762-0.296,1.549,0.739,2.467,0.357c0.273-0.11,1.564-2.703,1.893-3.1
		c0.275,0.602,1.139,1.178,1.453,1.807c1.885-0.784,0.729-6.179,0.436-8.216c-0.176-1.223,1.389-0.655,0.42-2.262
		c-0.395-0.653-2.643-0.389-3.369-1.949c-2.75,1.456-2.053-0.51-2.791-1.998c-1.184-2.393-0.395-2.197-2.299-3.848
		c-1.141-0.99-2.27-0.958-3.369-2.487c-1.033-1.434-1.27-3.709-2.371-5.224c-3.521,6.335-2.668,11.25-9.402,14.832
		c-3.979,2.117-8.363,4.289-12.748,5.495c0.888,0.163,1.776,0.803,2.725,0.963c-2.879,2.687-9.644,0.752-13.453,1.431
		c-3.532,0.633-6.754,2.117-10.443,2.312c-12.506,0.659-25.373,0.999-37.957,0.961c-9.871-0.029-19.606,0.961-29.52,0.962
		c-4.422,0.001-16.295-1.265-19.727,0.963"/>
	<path opacity="0.56" fill="#BCBEC0" enable-background="new    " d="M267.75,332.414c-1.134-0.645-3.849,0.219-4.236-1.785
		c-0.543-2.812,8.057-4.371,10.011-4.764c-0.439,0.479-0.985,2.201-1.351,2.74c3.757,1.194,7.582-2.5,10.017-4.701
		c2.206-1.993,4.497-3.439,7.216-4.692c1.113-0.511,1.802-1.387,2.936-1.654c0.264-0.063,1.271,1.375,2.381,1.083
		c2.51-0.664,5.244-4.054,7.699-5.342c4.845-2.542,9.503-3.227,14.898-3.848c8.925-1.027,17.013,0.16,23.559-6.675
		c-8.285,3.809-17.021,4.28-25.949,5.203c-6.592,0.683-12.517,3.265-18.727,5.255c0.504-1.077,1.753-2.156,2.844-2.735
		c-2.794,0.158-5.718,1.519-8.591,1.28c-0.693-5.941,15.047-8.714,19.177-10.027c6.615-2.103,12.839-7.969,20.56-10.13
		c-10.298-0.076-20.213,6.426-29.679,10.16c-5.643,2.227-16.681,5.108-18.743,11.45c0.938-0.323,1.873-0.207,2.812-0.859
		c-0.667,1.784-1.531,3.742-3.674,4.173c0.256,0.039,0.479,0.147,0.672,0.325c-1.37,1.742-9.743,7.266-10.984,3.171
		c-0.712-2.351,4.377-4.382,3.946-7.122c2.502-0.804,8.47-2.79,7.605-6.295c-5.885,0.446-10.831,5.963-16.666,6.232
		c7.912-4.33,16.562-9.97,24.313-13.429c-8.093-0.564-19.712,8.18-25.871,12.928c-2.983,2.299-8.223,8.708-12.452,8.103
		c0.15-2.368,0.89-6.749,2.462-8.627c2.892-3.456,9.228-3.394,12.83-6.645c2.669-2.409,3.385-4.591,6.792-6.339
		c5.398-2.77,11.136-5.219,16.737-7.575c-1.316-0.556-2.161-1.615-2.402-3.021c-2.474,0.85-4.379,2.867-7.007,3.326
		c1.216-0.745,1.205-1.894,1.749-2.749c-5.2,1.194-2.997-5.651,0.06-6.638c-2.715,1.776-5.969,4.497-8.94,5.563
		c0.737-4.906,6.407-7.483,5.503-12.9c-0.849,0.408-1.918,0.551-2.691,1.234c0.992-0.701,1.799-1.798,2.654-2.644
		c-3.881-1.645-10.758,3.785-13.361,6.101c-5.378,4.785-14.058,12.451-16.334,19.313c3.504-3.067,10.278-8.259,15.272-8.622
		c-1.723,1.917-4.696,3.719-4.154,6.621c4.041,0.249,8.459-2.547,12.462-3.27c-1.576,3.142-7.682,5.431-10.455,8.059
		c3.236,1.953-7.998,8.214-10.56,7.935c-4.334-0.477-1.453-4.163-0.221-7.316c-0.646,0.342-2.218,0.468-2.934,0.887
		c0.038-0.341-0.019-0.885,0.027-1.348c-1.621,0.15-3.341,0.439-4.737,1.372c1.054,2.177-0.919,3.617-1.541,5.708
		c-3.186,0.472-1.866-5.244-1.807-7.444c-1.791,0.391-1.995-1.69-2.432-3.399c-2.178,3.875-5.453,1.81-6.273,5.221
		c-1.634,6.809,2.937,14.54-0.485,21.599c-1.369-1.99-0.837-4.41-0.937-7.018c-0.098-2.501-0.521-4.947-0.623-7.449
		c-0.06-1.5,1.057-5.023,0.682-6.193c-0.496-1.537-6.536-7.312-0.625-7.816c0.033-0.563,0.167-1.228,0.146-1.783
		c6.513-0.216-0.104-14.106,1.908-17.199c-3.47,1.534-6.755,3.428-10.644,4.002c-3.757,0.556-3.594-0.095-6.217-2.657
		c3.354,0.053,3.271-2.636,1.09-4.319c1.471-1.602-0.53-2.901-1.623-4.42c-2.485-3.461-1.673-3.538-1.315-7.656
		c1.174,3.031-0.209,11.156-1.04,14.504c-1.021,4.111-5.093,6.372-6.633,10.722c-2.543,7.188-2.583,18.744,0.74,25.236
		c2.211,4.317-0.271,8.181,0.096,12.534c0.405,4.823,3.898,3.461,8.165,4.28c4.229,0.813,8.203,3.137,12.508,3.873
		c4.613,0.789,9.38,0.405,13.988,0.521c4.818,0.122,9.571,0.928,14.356,1.415C261.746,336.056,262.794,335.337,267.75,332.414z"/>
	<path opacity="0.56" fill="#BCBEC0" enable-background="new    " d="M373.147,255.08c-3.111,0.486-5.132,3.517-8.48,3.431
		c1.398,4.138-8.706,9.587-12.088,11.028c2.629,5.368-10.777,12.947-14,16.187c3.148-1.58,8.358-3.69,11.831-3.612
		c-0.606,0.372-1.105,0.939-1.593,1.304c3.669-0.533,7.798-4.184,11.375-2.903c-1.587,2.798-12.036,5.461-11.176,9.135
		c0.523,2.229,5.379,0.622,6.294,4.332c-0.444,0.111-0.888,0.312-1.275,0.423c10.1,2.417-1.908,16.702-3.952,20.68
		c6.225-4.75,9.328-11.803,14.044-17.612c1.367,0.669,8.37-1.162,9.379-3.058c1.367-2.568-2.915-3.437-4.171-5.567
		c2.935-0.753,9.082-2.193,5.806-6.219c1.33-1.138,2.723-2.205,2.73-3.885c-3.232-1.719-9.772-3.705-10.054-8.287
		c-0.13-2.097,2.304-3.53,3.054-5.146c1.266-2.723-0.208-3.444,0.422-6.301c0.623,0.248,2.104,0.041,2.738,0.346
		c0.387-1.837-0.311-3.871-1.85-4.75"/>
	<path opacity="0.56" fill="#BCBEC0" enable-background="new    " d="M322.149,222.363c-1.795-1.019-3.298-0.426-4.259,1.083
		c1.251,2.152-1.467,3.546-2.917,4.604c0.538-0.209,1.719-0.181,2.304-0.333c-1.042,7.497-5.297,10.737-10.525,15.297
		c6.157-2.048,11.293-8.295,16.334-11.881c-1.12,0.133-2.257-0.539-3.315-0.688c0.418-1.413,1.113-2.745,1.705-4.173
		c-0.303,0.097-0.96,0.246-1.199,0.335c1.181-1.579,3.566-2.667,5.249-3.177c-1.171,0.021-3.119-0.405-3.375-0.585"/>
	<path opacity="0.56" fill="#BCBEC0" enable-background="new    " d="M335.62,230.061c-1.814,1.547-4.209,2.667-5.806,4.27
		c1.903-0.2,4.169-0.296,4.298,1.903c-2.7,0.931-4.202,2.969-4.338,5.783c-4.02-0.811-6.013,5.511-9.069,7.687
		c-9.028,6.424-20.014,12.512-28.336,20.199c9.101-6.757,18.791-12.722,28.176-19.067c2.154-1.458,7.742-7.839,10.237-4.908
		c0.583-1.275,1.561-2.172,2.864-2.477c-1.565-3.059,1.401-3.321,3.769-3.806c-0.238,0.105-0.479,0.213-0.719,0.315
		c1.58-0.485,2.978-1.036,4.563-0.828c-0.25,6.646,10.52-3.597-0.265-4.355c0.385-0.275,1.057-1.614,1.333-1.853
		c-1.945-1.039-4.641-1.763-6.227-2.862"/>
	<path opacity="0.56" fill="#BCBEC0" enable-background="new    " d="M270.668,212.74c-0.643-0.363-1.324-0.511-2.04-0.446
		c-0.558,2.614,3.963,1.012,5.882,1.855c-0.53,1.922-2.549,2.643-3.837,3.819c3.134-0.688,4.962-3.354,7.706-4.541
		c2.17-0.941,4.378-0.574,6.691-0.796c-1.843-0.716-4.837-1.47-7.133-1.909c-1.3-3.339-7.644,0.167-9.674,1.535"/>
	<path opacity="0.56" fill="#BCBEC0" enable-background="new    " d="M224,229.58c-5.938,1.052-13.724,10.773-15.103,15.824
		c2.064-2.168,4.44-4.853,7.302-5.688c-0.68,0.625-1.233,1.629-1.785,2.208c0.416-0.241,0.896-0.441,1.337-0.651
		c-0.183,0.743,0.281,1.911,0.145,2.67c0.48,0.154,1.791,0.361,2.274,0.316c-0.095-0.021-0.171,0.022-0.233,0.127
		c4.081-1.634,7.637-7.688,12.642-9.07c-1.16,1.475-2.958,2.53-3.12,4.325c0.499-0.104,1.269-0.23,1.757-0.351
		c0.059,0.265,0.108,0.528,0.149,0.796c1.146-0.072,2.236,0.185,3.328-0.36c1.351,2.198-0.947,3.315-1.981,5.185
		c-1.515,2.736-2.445,5.961-2.41,9.106c2-4.061,5.283-8.423,9.037-10.955c-0.697,0.858-0.794,1.901-1.197,2.746
		c1.543-0.661,3.083-1.43,4.71-1.762c-2.415,3.07,0.433,3.353,2.723,4.276c-0.759,1.842,0.452,2.692,2.33,2.167
		c-0.732,2.799-2.447,5.547-2.652,8.409c2.395-1.157,4.563-4.819,6.721-6.713c2.224-1.955,4.614-3.925,7.199-5.307
		c4.156-2.221,6.521-4.002-0.858-3.142c3.823-3.496-0.661-3.232-3.261-2.634c2.835-3.397,6.247-6.469,9.313-9.651
		c-4.713,1.687-11.905,6.943-16.59,5.775c1.472-1.689,3.863-3.063,4.141-5.197c-1.929,1.176-3.878,2.859-6.101,3.745
		c-2.207-2.349,1.375-5.175,2.646-7.229c-4.092,2.674-7.352,6.515-11.89,7.304c-1.56,0.271-3.453-0.141-5.221,0.407
		c0.148-0.421,0.223-0.908,0.375-1.335c-2.435,0.48-3.665,2.781-6.134,3.271c-0.412-2.009,0.961-3.621,1.706-5.108
		c-0.623,0.512-1.631,0.892-2.23,1.306c0.6-2.073,3.803-4.429,1.505-6.247c-1.692,1.206-3.229,2.607-4.9,3.845"/>
	<path opacity="0.56" fill="#BCBEC0" enable-background="new    " d="M329.365,410.963c-0.23-3.467-1.71-1.173-1.829,1.06
		c-0.147,2.753,1.438,5.978,1.357,8.909c-1.848-9.175-11.474-22.53,0.406-29.176c-1.036,2.936-2.316,6.283-2.357,9.425
		c-0.025,1.844,1.478,7.247,3.603,3.516c-7.521,3.397,4.577,8.432,5.504,11.449c-0.728-2.363-1.958-4.93-3.726-6.756
		c1.535-0.673,2.799-2.023,2.403-4.163c2.161,0.818,3.756,2.938,5.262,4.629c-0.69-2.109-1.558-4.466-1.895-6.556
		c0.244,0.285,1.001,0.805,1.393,1.238c-0.172-0.692,0.145-1.513,0.052-2.164c3.994-0.809,4.856,5.702,7.068,7.573
		c-0.902-2.818-2.599-5.753-3.219-8.524c3.6-1.978,6.536,3.039,8.523,5.181c-0.628-2.453-8.095-6.37-3.703-9.51
		c3.139-2.245,5.21,3.156,7.059,4.546c-0.873-1.111-4.858-7.094-3.699-8.514c2.495-3.057,6.052,5.023,7.179,6.133
		c0.014-0.415-0.007-0.747,0.072-1.146c0.335,0.765,0.861,1.362,1.239,2.11c0.392-3.53-2.258-6.953-0.796-10.368
		c2.323,0.534,4.081,5,4.26,7.487c0.01-1.817-0.155-11.212,3.395-7.719c0.464-1.403,1.118-3.146,1.381-4.603
		c2.987,1.041,1.982,7.272,2.95,9.928c0.078-1.711-2.195-13.622,1.896-10.136c0.271-0.851,1.23-1.376,1.537-2.161
		c3.527,0.999,2.273,4.69,1.895,7.388c0.787-1.121,1.543-2.292,2.234-3.457c0.07,0.302,0.229,0.661,0.41,0.916
		c-4.318,3.458-1.244,8.374-4.525,11.376c-0.275-0.652-0.701-0.911-0.973-1.333c0.018,5.448-6.591,4.849-7.325,9.423
		c-0.182-3.441,2.922-5.957,2.319-9.436c-1.309,1.235-2.721,2.92-4.081,4.242c0.1-0.133,0.612-0.636,0.773-0.857
		c-1.35,0.272-2.641,1.173-3.738,1.832c-0.053-0.452-0.131-0.917-0.146-1.37c-4.024,2.169-2.834,4.133-2.898,7.994
		c-0.992-1.117-1.567-2.522-1.818-4.013c-1.824,0.698-2.434,0.114-3.88,1.757c-1.172,1.332,0.594,2.736-1.435,4.297
		c-0.413-0.226-0.517-0.452-0.959-0.775c-0.261,0.613-1.154,1.348-1.459,1.843c-0.213-0.316-0.739-0.78-0.936-1.104
		c-0.873,1.039-1.322,2.456-2.042,3.75c-0.382-0.892-0.837-0.666-0.846-2.09c-0.354,1.788-1.207,3.324-0.566,4.987
		c-1.456-2.514-2.935-5.488-2.43-8.376c-2.84,4.726,0.433,8.217-5.642,9.965c0.081,0.457,0.281,0.453,0.399,0.843
		c-1.067,1.133-10.252-0.399-6.134,3.645c2.288,2.247,9.391-0.014,11.93-0.732c4.072-1.154,6.846-3.916,10.623-5.557
		c2.968-1.291,6.061-1.525,9.128-2.621c7.374-2.638,12.755-8.211,18.253-13.473c3.594-3.438,5.842-4.333,10.273-6.158
		c2.934-1.208,1.457-0.317,3.707-2.924c1.291-1.492,2.602-2.155,3.318-4.208c-2.648-0.528-5.889,1.754-8.9,1.276
		c0.131-0.21,0.209-0.439,0.23-0.681c-3.883,1.328-2.133-7.159-2.432-9.182c-3.563,3.268,0.854,11.855-4.166,14.235
		c-0.559-1.73-1.971-1.468-3.402-0.482c1.543-4.34,1.059-10.375,5.098-13.803c-1.906-1.017-4.41-1.229-6.506-1.624
		c-0.055-0.267-0.107-0.533-0.166-0.799c-2.674-0.524-3.941,1.374-6.17,1.85c-1.985,0.425-3.903-0.532-5.772,0.58
		c-4.415,2.637-1.049,7.103-7.111,2.816c-1.534,2.015-1.848,3.741-3.476,5.255c-2.075,1.925-4.752,1.266-6.76,2.381
		c-2.727,1.514-1.385,3.171-3.321,4.362c-0.536,0.331-3.118,0.299-3.788,0.449c0.53-0.119-1.628,2.038-1.504,1.898
		c-0.492-0.609-1.638-0.982-1.982-1.356c-0.482,0.976-0.388,2.86-0.93,3.716c-0.85,1.333-1.419,1.085-2.778,2.139
		c-1.489,1.157-3.214,1.408-4.464,2.316"/>
	
		<linearGradient id="SVGID_2_" gradientUnits="userSpaceOnUse" x1="202.2727" y1="447.8298" x2="207.7849" y2="447.8298" gradientTransform="matrix(1 0 0 1 202.4375 -80.166)">
		<stop  offset="0" style="stop-color:#FFFFFF"/>
		<stop  offset="0.1046" style="stop-color:#FAFAFA"/>
		<stop  offset="0.2282" style="stop-color:#ECECEC"/>
		<stop  offset="0.3616" style="stop-color:#D4D4D4"/>
		<stop  offset="0.5018" style="stop-color:#B2B2B2"/>
		<stop  offset="0.6474" style="stop-color:#888888"/>
		<stop  offset="0.7976" style="stop-color:#535353"/>
		<stop  offset="0.9487" style="stop-color:#161616"/>
		<stop  offset="1" style="stop-color:#000000"/>
	</linearGradient>
	<path fill="url(#SVGID_2_)" d="M405.87,370.966c4.852,0.706,6.219-9.487,1.141-5.852
		C405.895,365.915,403.163,370.571,405.87,370.966z"/>
	<path opacity="0.56" fill="#BCBEC0" enable-background="new    " d="M262.484,334.573c-0.701,1.5-17.202-2.42-18.706-3.081
		c1.208-2.348,4.288-3.211,6.104-5.049c-4.224,1.265-8.591,3.73-13.341,3.139c0.989-3.985,0.385-7.604,2.71-12.126
		c-0.988,1.397-1.723,2.96-2.696,4.336c0.006,0.007-1.438,4.517-2.797,5.481c-3.046,2.16-1.868,0.759-3.972-1.01
		c-2.186-1.841-4.188-2.481-6.876-3.381c-1.176-0.393-1.673,1.365-2.694,0.008c-0.805-1.069,0.632-4.118,0.888-5.226
		c-0.511,0.657-1.85,1.631-2.333,2.396c-0.382-3.119,0.347-6.513,0.946-9.571c-1.04,3.087-2.155,8.136-4.893,9.989
		c-1.561-1.922-0.659-4.812-1.396-7.063c-0.286-0.119-0.499-0.042-0.634,0.229c-1.651-5.488,1.146-12.507,1.017-18.201
		c-2.553,3.818-3.207,9.41-3.354,13.934c-2.306-3.162-2.461-6.958-2.771-10.699c-0.091-1.107-1.253-8.521-0.998-8.816
		c-0.815,0.954-1.253,2.366-1.436,3.588c0.135-0.905,0.417-1.747-0.603-1.46c-5.378,6.788,8.754,25.555,4.997,36.271
		c2.645,2.181,5.985,1.761,9.087,2.838c4.553,1.584,7.886,3.241,12.484,3.818c10.037,1.261,19.881,0.713,29.747,1.892
		C261.249,336.504,262.321,334.922,262.484,334.573z"/>
	<path opacity="0.56" fill="#BCBEC0" enable-background="new    " d="M313.969,347.936c3.5-0.925,6.605,4.143,6.735,7.097
		c0.101-1.576,0.101-3.146-0.325-4.629c1.461,0.168,2.746,0.888,4.003,1.799c-0.809-1.047-1.294-2.298-1.102-3.604
		c2.815,0.65,7.649,2.151,10.323,0.756c-5.258,0.331-11.154-0.987-16.301-2.019c-2.011-0.401-4.565-1.84-6.224-0.844"/>
	<path opacity="0.56" fill="#BCBEC0" enable-background="new    " d="M352.46,341.2c4.312-2.099,9.635-1.396,14.256-3.735
		c4.597-2.324,8.701-5.868,10.847-10.636c1.822,0.647,3.686,1.289,5.504,1.839c-1.65,2.26-4.375,4.782-6.486,6.207
		c0.791-0.614,3.01-1.553,3.359,0.061c0.313,1.442-6.205,3.348-7.289,3.834c-7.017,3.146-12.212,2.338-19.711,1.952"/>
	<path opacity="0.56" fill="#BCBEC0" enable-background="new    " d="M335.14,423.472c3.528-1.435,8.098,1.14,11.92-0.098
		c2.307-0.746,3.656-2.911,5.521-4.111c4.194-2.708,9.593-1.303,14.285-4.063c4.749-2.796,8.321-7.788,12.081-11.309
		c2.965-2.774,11.947-10.491,15.814-8.893c-2.984-4.9-7.91,1.761-11.145,3.277c-0.619-0.543-1.115-0.336-1.459-0.488
		c-0.225-0.368-0.49-0.729-0.699-1.112c-0.994,1.146-1.723,2.486-2.09,3.956c-0.061-0.271-0.053-0.786-0.063-1.073
		c-1.977,3.008-3.557,9.054-7.996,8.963c-0.352-1.268-0.751-1.868-0.291-3.115c-0.166,1.267-0.596,2.41-1.251,3.5
		c-0.21-0.375-0.402-0.823-0.601-1.202c-0.874,6.518-6.78,8.339-7.082,0.511c-0.014,2.238,0.394,4.538-0.604,6.55
		c-0.279,0.118-0.423-0.328-0.719-0.361c-0.113,0.521-0.537,1.116-0.675,1.78c-1.918-0.667-4.998,0.25-6.103-1.72
		c0.396,3.227-4.292,3.702-6.659,5.16c-2.888,1.775-5.854,2.837-9.229,1.985c-0.132,2.056-2.205,2.286-3.92,1.863"/>
	<path opacity="0.56" fill="#BCBEC0" enable-background="new    " d="M292.318,367.18c-3.903,3.089-5.093,12.262-5.194,16.792
		c6.269-2.575,5.664,8.135,5.878,11.607c0.34,0.38,0.789,0.674,1.146,0.924c0.293-2.853,1.325-5.54,1.056-8.487
		c0.13,2.171,0.08,5.886,0.51,7.256c-0.11,0.439-0.144,1.133-0.062,1.577c0.066,0.044,1.857,0.583,2.343,0.588
		c1.115-2.364,1.375-5.069,2.045-7.587c-0.049,2.335-0.164,4.769,0.085,7.061c0.108-0.384,0.346-0.887,0.491-1.308
		c0.313,1.384,1.777,2.289,3.246,2.428c0.808-1.052,1.427-2.563,2.334-3.758c-0.472,1.423-0.928,2.875-0.429,4.155
		c1.534-1.237,3.148,0.065,3.952-1.838c1.637,0.539,3.437,0.546,5.183,0.326c-3.146-2.239-5.521-2.571-5.375-7.478
		c-0.891,2.229-0.777,4.693-1.417,7.027c-0.44,0-0.841,0.026-1.29-0.011c-0.188-2.456,0.022-5.028-0.143-7.477
		c-0.598,0.876-1.705,1.672-2.252,2.594c0.315-1.569,0.214-3.403-1.444-3.774c-0.693-2.564-0.423-6.748-2.981-8.178
		c-0.281,0.304-0.614,0.628-0.935,0.989c-2.855-1.298-0.947-4.921-2.783-6.618c-0.27,0.244-0.448,0.577-0.72,0.816
		c-3.441-1.198-3.691-5.538-3.728-7.625"/>
	<path opacity="0.56" fill="#BCBEC0" enable-background="new    " d="M299.055,399.897c-0.652,0.381-1.305,0.759-1.958,1.141
		c4.085-0.017,6.232,1.032,3.838,5.932c1.674-2.423,4.796-3.905,6.272-6.493c-2.82-1.116-7.45-0.507-9.115-0.579"/>
	<path opacity="0.56" fill="#BCBEC0" enable-background="new    " d="M297.61,412.29c1.664-1.957,5.54-4.706,5.502-7.537
		c-0.063-4.926-4.187-2.253-5.817-3.407c4.529,3.213-3.962,13.049-5.803,15.979c-2.174,3.461-2.776,6.501-3.909,10.381
		C290.028,422.13,293.664,416.932,297.61,412.29z"/>
	<path opacity="0.56" fill="#BCBEC0" enable-background="new    " d="M312.15,395.225c1.678,2.571,4.495,2.286,7.006,1.178
		c-0.199-2.563-2.533-1.063-2.793-1.526c-0.716-1.271-0.862-4.914-2.49-5.467C310.446,388.248,311.035,393.516,312.15,395.225z"/>
	<path opacity="0.56" fill="#BCBEC0" enable-background="new    " d="M299.115,356.994c3.064,0.916-0.803,6.94-1.548,9.055
		c1.111-1.183,2.1-2.529,3.209-3.663c-0.747,3.151,0.404,4.767,0.288,7.654c0.265-0.348,1.397-0.967,1.733-1.365
		c0.159,0.853,0.88,1.413,1.068,1.941c0.67-0.875,1.481-1.604,1.526-2.95c3.825,4.046,6.542,8.658,7.214,14.32
		c0.883-1.366,1.149-3.039,1.713-4.554c0.222,0.686,0.86,1.372,1.095,2.113c0.178-0.583,0.652-1.104,0.833-1.642
		c1.381,1.921,2.427,4.583,2.508,6.944c2.006-5.24,0.563-13.34-0.756-18.625c0.692,1.015,1.715,2.126,2.619,2.833
		c-0.984-3.646-2.824-7.709-3.713-11.554c2.518-0.224,5.369,3.05,7.469,4.35c-1.264-0.784-2.834-5.294-4.103-6.667
		c-1.49-1.612-3.298-3.318-5.416-4.091c-3.098-1.132-6.521-0.526-9.511,0.637C305.065,351.839,297.574,356.533,299.115,356.994z"/>
	
		<linearGradient id="SVGID_3_" gradientUnits="userSpaceOnUse" x1="111.8464" y1="453.6785" x2="103.6913" y2="430.8696" gradientTransform="matrix(1 0 0 1 202.4375 -80.166)">
		<stop  offset="0" style="stop-color:#808284"/>
		<stop  offset="0.1524" style="stop-color:#7B7D7F"/>
		<stop  offset="0.3326" style="stop-color:#6D6F71"/>
		<stop  offset="0.5268" style="stop-color:#565859"/>
		<stop  offset="0.7309" style="stop-color:#363738"/>
		<stop  offset="0.9407" style="stop-color:#0D0D0D"/>
		<stop  offset="1" style="stop-color:#000000"/>
	</linearGradient>
	<path fill="url(#SVGID_3_)" d="M308.677,348.898c-2.139-0.099-4.583,0.313-5.71,1.958c0.415,0.051,0.742,0.009,1.293,0.022
		c0,0.029,0.091,1.396,0.013,1.306c-2.682,0.755-3.369,3.753-4.208,6.203c0.527-0.499,1.373-0.905,1.8-1.275
		c-0.108,0.757-0.091,1.113-0.358,1.817c0.396-0.1,0.919-0.44,1.334-0.364c-1.583,3.764,0.338,6.385-0.695,10.499
		c0.283-0.574,1.293-1.391,1.596-1.847c0.217,1.158,1.01,2.45,1.448,3.29c0.862-1.333,1.476-3.194,2.031-4.37
		c2.617,2.764,5.029,7.646,5.787,11.502c0.046-1.372,0.391-2.768,0.938-4.008c1.245,0.965,1.847,2.548,2.569,4.029
		c0.723-2.369,1.048-7.305-0.428-9.579c0.157,0.059,1.146,0.449,1.201,0.479c-0.85-1.613-4.663-3.254-1.936-4.856
		c-0.992-2.3,0.793-4.443-0.244-6.767c1.219-0.47,2.677,0.13,3.61,1.024c-0.638-1.141-1.627-2.581-2.308-3.736
		c0.505,0.285,1.342,0.581,1.835,0.864c-1.897-3.985-7.9-5.665-11.979-5.711"/>
	<path fill="none" stroke="#000000" stroke-width="0.866" d="M325.998,349.379c-2.856,0.113-6.914,0.146-9.49-1.01
		c2.601,1.824,5.673,3.967,7.258,6.795c0.491,0.875,2.078,8.481,2.661,8.575c-0.659-0.107-1.625,0.261-2.28,0.146
		c-0.067,2.374,1.293,4.595,0.817,7.082c-0.403-0.066-0.858-0.159-1.302-0.253c0.274,0.058-0.644,13.123-0.826,14.208
		c-0.42,2.492-1.077,4.637-2.462,6.756c-2.121,3.238-3.154,2.842-0.8,7.185c-1.673,0.12-4.604,0.758-6.098,0.482
		c-2.124-0.394-3.37-3.698-4.932,0.033c-2.83-2.851-8.714,1.866-10.574-2.19c-0.915,1.213-1.458,0.446-2.766,0.784"/>
	<path fill="none" stroke="#000000" stroke-width="0.866" d="M360.64,338.795c5.642-0.177,17.015-6.389,18.281-12.509"/>
	<path fill="none" stroke="#000000" stroke-width="0.866" d="M408.751,365.256c0.674-0.161,1.232-0.014,1.684,0.446
		c0.016,2.992-3.199,5.806-5.932,5.739c0.066-0.699-0.338-0.57-0.563-0.891"/>
</g>
<path fill="#F48969" stroke="#000000" stroke-width="0.866" d="M132.74,282.519c-0.796,1.553-1.874,2.116-1.739,4.372
	c0.108,1.84,0.832,3.122,0.354,4.928c0.49-0.08,1.202,0.188,1.692,0.108c-0.406,2.492-0.335,3.086,2.211,3.88
	c-0.471,3.845-4.354,6.464-4.3,10.498c0.024,1.78,0.656,2.237,0.43,3.96c-0.177,1.354-1.215,3.023-1.486,4.276
	c0.73,0.458,1.052,0.604,1.771,1.197c4-6.229,5.158-13.327,6.889-20.476c1.153-4.764,1.104-10.438,0.606-15.281
	c-0.173,0.154-0.365,0.376-0.572,0.586C135.972,274.679,134.873,278.366,132.74,282.519z"/>
<path opacity="0.21" fill="none" stroke="#636466" stroke-width="1.4434" enable-background="new    " d="M128.04,252.124
	c12.188,13.862,13.229,28.431,8.848,45.939c-1.719,6.872-16.188,44.017-29.658,30.578c-1.113-1.111-1.307-7.613-2.072-9.423
	c-1.594-3.764-4.562-6.042-4.807-10.589c-0.505-9.414,9.051-15.324,8.654-25.017c-0.251-6.13-5.941-11.763-4.644-18.121
	c0.531-0.11,1.063-0.22,1.596-0.33c0.795-7.422-1.924-14.894-5.373-21.268c-3.245-5.994-15.846-20.14-0.397-16.208
	C111.811,230.645,120.482,243.527,128.04,252.124z"/>
<path fill="none" stroke="#E5300C" stroke-width="12" d="M19.539,216.884"/>
<g>
	<path fill="#ED1C24" d="M424.226,541.375l-21.041-36.434h15.521v-42.402H429.7v42.402h15.567L424.226,541.375z"/>
</g>
<g>
	<path fill="#ED1C24" d="M-24.559,213.44l36.434-21.041v15.57h42.402v10.944H11.874v15.567L-24.559,213.44z"/>
</g>
<path fill="none" stroke="#ED1C24" stroke-width="11" d="M54.251,213.39c81.198,0.135,178.352,5.221,251.12,44.901
	c12.636,6.89,24.46,15.242,35.231,24.799c29.964,26.587,55.666,58.528,69.541,96.494c9.688,26.512,14.085,54.818,14.06,83.004"/>
<g>
	<path d="M387.087,564.918c0,3.119,1.38,4.229,5.01,4.229c1.29,0,3.09-0.149,4.44-0.39l0.21,1.529c-1.5,0.301-3.36,0.45-4.8,0.45
		c-4.83,0-6.63-2.069-6.63-5.79v-8.999c0-3.72,1.8-5.79,6.63-5.79c1.439,0,3.3,0.15,4.8,0.45l-0.21,1.53
		c-1.351-0.24-3.15-0.391-4.44-0.391c-3.63,0-5.01,1.11-5.01,4.23V564.918z"/>
	<path d="M410.697,570.437h-1.5l-0.12-1.14c-1.41,0.87-3.03,1.439-4.95,1.439c-2.58,0-3.779-1.47-3.779-4.08
		c0-3.09,1.409-4.05,4.29-4.05h4.319v-2.85c0-2.01-1.05-2.67-3.45-2.67c-1.439,0-2.97,0.21-4.319,0.48l-0.271-1.471
		c1.17-0.329,3-0.569,4.5-0.569c3.78,0,5.28,1.5,5.28,4.229V570.437z M408.957,564.168h-4.26c-2.01,0-2.61,0.6-2.61,2.52
		c0,1.71,0.36,2.49,2.4,2.49c1.439,0,3.149-0.57,4.47-1.5V564.168z"/>
	<path d="M417.086,555.828v11.819c0,1.08,0.57,1.47,1.59,1.47c1.2,0,3.78-0.72,5.61-1.68v-11.609h1.739v14.609h-1.529l-0.12-1.32
		c-1.561,0.75-4.17,1.62-5.939,1.62c-2.28,0-3.09-1.29-3.09-3.3v-11.609H417.086z"/>
	<path d="M430.676,560.028c0-2.67,1.2-4.5,4.5-4.5c1.53,0,2.82,0.149,4.5,0.479v-6.149l1.74-0.24v20.819h-1.59l-0.091-1.38
		c-1.47,1.11-3.3,1.68-4.92,1.68c-2.85,0-4.14-1.41-4.14-4.05V560.028z M439.676,557.597c-1.59-0.33-3.15-0.51-4.56-0.51
		c-1.92,0-2.7,0.96-2.7,2.94v6.659c0,1.68,0.54,2.49,2.52,2.49c1.8,0,3.36-0.75,4.74-1.86V557.597z"/>
	<path d="M456.265,570.437h-1.5l-0.12-1.14c-1.41,0.87-3.03,1.439-4.95,1.439c-2.58,0-3.779-1.47-3.779-4.08
		c0-3.09,1.409-4.05,4.29-4.05h4.319v-2.85c0-2.01-1.05-2.67-3.45-2.67c-1.439,0-2.97,0.21-4.319,0.48l-0.271-1.471
		c1.17-0.329,3-0.569,4.5-0.569c3.78,0,5.28,1.5,5.28,4.229V570.437z M454.525,564.168h-4.26c-2.01,0-2.61,0.6-2.61,2.52
		c0,1.71,0.36,2.49,2.4,2.49c1.439,0,3.149-0.57,4.47-1.5V564.168z"/>
	<path d="M461.065,570.437v-20.579l1.74-0.24v20.819H461.065z"/>
</g>
<g>
	<path d="M-29.187,168.066h-0.39h-5.31v7.68h-1.77v-19.979h7.08c4.02,0,5.49,1.83,5.49,4.62v3.06c0,2.19-0.9,3.81-3.24,4.379
		l5.34,7.92h-2.01L-29.187,168.066z M-29.547,157.356h-5.34v9.12h5.34c2.52,0,3.69-0.84,3.69-3.03v-3.06
		C-25.857,158.196-27.027,157.356-29.547,157.356z"/>
	<path d="M-13.317,176.045c-4.11,0-5.67-2.31-5.67-5.31v-4.59c0-3,1.56-5.31,5.67-5.31s5.67,2.31,5.67,5.31v4.59
		C-7.647,173.736-9.207,176.045-13.317,176.045z M-9.387,166.086c0-2.46-1.2-3.69-3.93-3.69s-3.93,1.23-3.93,3.69v4.71
		c0,2.46,1.2,3.69,3.93,3.69s3.93-1.23,3.93-3.69V166.086z"/>
	<path d="M0.543,176.045c-1.47,0-3.21-0.3-4.29-0.75l0.3-1.41c1.26,0.39,2.79,0.6,3.87,0.6c2.7,0,3.24-0.51,3.24-2.37
		c0-2.1-0.06-2.31-3.39-3.09c-3.66-0.87-3.96-1.77-3.96-4.44c0-2.43,1.17-3.75,4.77-3.75c1.35,0,3,0.18,4.14,0.51l-0.18,1.47
		c-1.17-0.24-2.88-0.42-4.08-0.42c-2.55,0-2.91,0.66-2.91,2.25c0,2.01,0.12,2.22,2.82,2.91c4.29,1.08,4.53,1.77,4.53,4.5
		C5.403,174.696,4.443,176.045,0.543,176.045z"/>
	<path d="M17.282,175.475c-0.84,0.33-2.01,0.57-3.06,0.57c-2.31,0-3.3-0.84-3.3-3.15v-10.259h-2.82v-1.5h2.82v-3.45l1.74-0.24v3.69
		h4.47l-0.18,1.5h-4.29v10.08c0,1.29,0.18,1.83,1.68,1.83c0.81,0,1.74-0.15,2.61-0.42L17.282,175.475z"/>
	<path d="M27.242,162.546c-1.53,0.66-3.21,1.77-4.62,2.7v10.5h-1.74v-14.609h1.56l0.09,2.22c1.56-1.02,3.12-2.01,4.5-2.52
		L27.242,162.546z"/>
	<path d="M39.992,175.745h-1.5l-0.12-1.14c-1.41,0.87-3.03,1.44-4.95,1.44c-2.58,0-3.78-1.47-3.78-4.08c0-3.09,1.41-4.05,4.29-4.05
		h4.32v-2.85c0-2.01-1.05-2.67-3.45-2.67c-1.44,0-2.97,0.21-4.32,0.48l-0.27-1.47c1.17-0.33,3-0.57,4.5-0.57
		c3.78,0,5.28,1.5,5.28,4.229V175.745z M38.252,169.476h-4.26c-2.01,0-2.61,0.6-2.61,2.52c0,1.71,0.36,2.49,2.4,2.49
		c1.44,0,3.15-0.57,4.47-1.5V169.476z"/>
	<path d="M44.792,175.745v-20.579l1.74-0.24v20.819H44.792z"/>
</g>
</svg>
